{
.appVersion = "3185";
.formatVersion = 3;
axes = (
{
name = Weight;
tag = wght;
}
);
classes = (
{
automatic = 1;

glyphs = (
{
glyphname = A;
lastChange = "2023-04-14 09:29:02 +0000";
layers = (
{
anchors = (
{
name = bottom;
pos = (314,0);
},
{
name = ogonek;
pos = (597,10);
},
{
name = top;
pos = (314,694);
},
{
name = topleft;
pos = (104,694);
}
);
background = {
anchors = (
{
name = bottom;
pos = (314,0);
},
{
name = ogonek;
pos = (597,10);
},
{
name = top;
pos = (314,694);
},
{
name = topleft;
pos = (104,694);
}
);
shapes = (
{
closed = 1;
nodes = (
(94,0,l),
(321,636,l),
(312,636,l),
(526,0,l),
(619,0,l),
(375,694,l),
(267,694,l),
(7,0,l)
);
},
{
closed = 1;
nodes = (
(485,206,l),
(485,278,l),
(138,278,l),
(138,206,l)
);
}
);
};
layerId = "F333AEC5-BB61-4D5E-9EDD-6124322D28F2";
shapes = (
{
closed = 1;
nodes = (
(94,0,l),
(321,636,l),
(312,636,l),
(526,0,l),
(619,0,l),
(375,694,l),
(267,694,l),
(7,0,l)
);
},
{
closed = 1;
nodes = (
(485,206,l),
(485,278,l),
(138,278,l),
(138,206,l)
);
}
);
userData = {
com.schriftgestaltung.Glyphs.glyph.rightMetricsKey = "=|";
};
width = 626;
},
{
anchors = (
{
name = bottom;
pos = (320,0);
},
{
name = ogonek;
pos = (582,10);
},
{
name = top;
pos = (323,694);
},
{
name = topleft;
pos = (154,694);
}
);
background = {
anchors = (
{
name = bottom;
pos = (320,0);
},
{
name = ogonek;
pos = (582,10);
},
{
name = top;
pos = (323,694);
},
{
name = topleft;
pos = (154,694);
}
);
shapes = (
{
closed = 1;
nodes = (
(60,0,l),
(323,676,l),
(319,676,l),
(564,0,l),
(588,0,l),
(334,694,l),
(311,694,l),
(38,0,l)
);
},
{
closed = 1;
nodes = (
(487,249,l),
(481,268,l),
(152,268,l),
(147,249,l)
);
}
);
};
layerId = "0B2E441B-685E-400D-9B9B-E078DEED62EF";
shapes = (
{
closed = 1;
nodes = (
(60,0,l),
(323,676,l),
(319,676,l),
(564,0,l),
(588,0,l),
(334,694,l),
(311,694,l),
(38,0,l)
);
},
{
closed = 1;
nodes = (
(487,249,l),
(481,268,l),
(152,268,l),
(147,249,l)
);
}
);
userData = {
com.schriftgestaltung.Glyphs.glyph.rightMetricsKey = "=|";
};
width = 626;
},
{
anchors = (
{
name = bottom;
pos = (345,0);
},
{
name = ogonek;
pos = (651,10);
},
{
name = top;
pos = (345,694);
},
{
name = topleft;
pos = (92,694);
}
);
background = {
anchors = (
{
name = bottom;
pos = (345,0);
},
{
name = ogonek;
pos = (651,10);
},
{
name = top;
pos = (345,694);
},
{
name = topleft;
pos = (92,694);
}
);
shapes = (
{
closed = 1;
nodes = (
(178,0,l),
(362,620,l),
(314,620,l),
(507,0,l),
(698,0,l),
(461,694,l),
(240,694,l),
(-7,0,l)
);
},
{
closed = 1;
nodes = (
(504,143,l),
(468,299,l),
(221,299,l),
(186,143,l)
);
}
);
};
layerId = "51C2DFEF-3776-4D13-9284-96485B799B57";
shapes = (
{
closed = 1;
nodes = (
(178,0,l),
(362,620,l),
(314,620,l),
(507,0,l),
(698,0,l),
(461,694,l),
(240,694,l),
(-7,0,l)
);
},
{
closed = 1;
nodes = (
(504,143,l),
(468,299,l),
(221,299,l),
(186,143,l)
);
}
);
userData = {
com.schriftgestaltung.Glyphs.glyph.rightMetricsKey = "=|";
};
width = 691;
}
);
unicode = 65;
},
{
glyphname = Aacute;
lastChange = "2023-04-14 09:29:06 +0000";
layers = (
{
background = {
anchors = (
{
name = bottom;
pos = (314,0);
},
{
name = ogonek;
pos = (597,10);
},
{
name = top;
pos = (265,801);
},
{
name = topleft;
pos = (104,694);
}
);
shapes = (
{
closed = 1;
nodes = (
(94,0,l),
(321,636,l),
(312,636,l),
(526,0,l),
(619,0,l),
(375,694,l),
(267,694,l),
(7,0,l)
);
},
{
closed = 1;
nodes = (
(485,206,l),
(485,278,l),
(138,278,l),
(138,206,l)
);
},
{
closed = 1;
nodes = (
(462,853,l),
(412,917,l),
(266,786,l),
(298,744,l)
);
}
);
};
layerId = "F333AEC5-BB61-4D5E-9EDD-6124322D28F2";
shapes = (
{
ref = A;
},
{
pos = (226,0);
ref = acutecomb.case;
}
);
width = 626;
},
{
background = {
anchors = (
{
name = bottom;
pos = (320,0);
},
{
name = ogonek;
pos = (582,10);
},
{
name = top;
pos = (318,764);
},
{
name = topleft;
pos = (154,694);
}
);
shapes = (
{
closed = 1;
nodes = (
(60,0,l),
(323,676,l),
(319,676,l),
(564,0,l),
(588,0,l),
(334,694,l),
(311,694,l),
(38,0,l)
);
},
{
closed = 1;
nodes = (
(487,249,l),
(481,268,l),
(152,268,l),
(147,249,l)
);
},
{
closed = 1;
nodes = (
(461,866,l),
(446,883,l),
(318,764,l),
(324,758,l)
);
}
);
};
layerId = "0B2E441B-685E-400D-9B9B-E078DEED62EF";
shapes = (
{
ref = A;
},
{
pos = (265,0);
ref = acutecomb.case;
}
);
width = 626;
},
{
background = {
anchors = (
{
name = bottom;
pos = (345,0);
},
{
name = ogonek;
pos = (651,10);
},
{
name = top;
pos = (248,839);
},
{
name = topleft;
pos = (92,694);
}
);
shapes = (
{
closed = 1;
nodes = (
(178,0,l),
(362,620,l),
(314,620,l),
(507,0,l),
(698,0,l),
(461,694,l),
(240,694,l),
(-7,0,l)
);
},
{
closed = 1;
nodes = (
(504,143,l),
(468,299,l),
(221,299,l),
(186,143,l)
);
},
{
closed = 1;
nodes = (
(538,849,l),
(440,983,l),
(261,827,l),
(329,734,l)
);
}
);
};
layerId = "51C2DFEF-3776-4D13-9284-96485B799B57";
shapes = (
{
ref = A;
},
{
pos = (266,0);
ref = acutecomb.case;
}
);
width = 691;
}
);
unicode = 193;
},
{
glyphname = Abreve;
lastChange = "2023-04-14 09:29:06 +0000";
layers = (
{
background = {
anchors = (
{
name = bottom;
pos = (314,0);
},
{
name = ogonek;
pos = (597,10);
},
{
name = top;
pos = (314,826);
},
{
name = topleft;
pos = (104,694);
}
);
shapes = (
{
closed = 1;
nodes = (
(94,0,l),
(321,636,l),
(312,636,l),
(526,0,l),
(619,0,l),
(375,694,l),
(267,694,l),
(7,0,l)
);
},
{
closed = 1;
nodes = (
(485,206,l),
(485,278,l),
(138,278,l),
(138,206,l)
);
},
{
closed = 1;
nodes = (
(387,758,o),
(448,816,o),
(461,902,c),
(422,928,l),
(415,865,o),
(375,823,o),
(322,823,cs),
(271,823,o),
(232,865,o),
(224,927,c),
(160,890,l),
(174,811,o),
(234,758,o),
(310,758,cs)
);
}
);
};
layerId = "F333AEC5-BB61-4D5E-9EDD-6124322D28F2";
shapes = (
{
ref = A;
},
{
pos = (105,0);
ref = brevecomb.case;
}
);
width = 626;
},
{
background = {
anchors = (
{
name = bottom;
pos = (320,0);
},
{
name = ogonek;
pos = (582,10);
},
{
name = top;
pos = (323,805);
},
{
name = topleft;
pos = (154,694);
}
);
shapes = (
{
closed = 1;
nodes = (
(60,0,l),
(323,676,l),
(319,676,l),
(564,0,l),
(588,0,l),
(334,694,l),
(311,694,l),
(38,0,l)
);
},
{
closed = 1;
nodes = (
(487,249,l),
(481,268,l),
(152,268,l),
(147,249,l)
);
},
{
closed = 1;
nodes = (
(382,752,o),
(432,802,o),
(441,877,c),
(431,883,l),
(424,815,o),
(380,770,o),
(326,770,cs),
(274,770,o),
(228,810,o),
(219,879,c),
(202,873,l),
(211,800,o),
(260,752,o),
(320,752,cs)
);
}
);
};
layerId = "0B2E441B-685E-400D-9B9B-E078DEED62EF";
shapes = (
{
ref = A;
},
{
pos = (120,0);
ref = brevecomb.case;
}
);
width = 626;
},
{
background = {
anchors = (
{
name = bottom;
pos = (345,0);
},
{
name = ogonek;
pos = (651,10);
},
{
name = top;
pos = (345,892);
},
{
name = topleft;
pos = (92,694);
}
);
shapes = (
{
closed = 1;
nodes = (
(178,0,l),
(362,620,l),
(314,620,l),
(507,0,l),
(698,0,l),
(461,694,l),
(240,694,l),
(-7,0,l)
);
},
{
closed = 1;
nodes = (
(504,143,l),
(468,299,l),
(221,299,l),
(186,143,l)
);
},
{
closed = 1;
nodes = (
(430,741,o),
(505,809,o),
(522,916,c),
(441,972,l),
(436,908,o),
(398,871,o),
(348,871,cs),
(296,871,o),
(257,911,o),
(251,971,c),
(127,894,l),
(141,799,o),
(224,741,o),
(329,741,cs)
);
}
);
};
layerId = "51C2DFEF-3776-4D13-9284-96485B799B57";
shapes = (
{
ref = A;
},
{
pos = (112,0);
ref = brevecomb.case;
}
);
width = 691;
}
);
unicode = 258;
},
{
glyphname = Abreveacute;
lastChange = "2023-04-14 09:29:06 +0000";
layers = (
{
background = {
anchors = (
{
name = bottom;
pos = (314,0);
},
{
name = ogonek;
pos = (597,10);
},
{
name = top;
pos = (348,972);
},
{
name = top_dot;
pos = (272,937);
},
{
name = topleft;
pos = (104,694);
}
);
shapes = (
{
closed = 1;
nodes = (
(94,0,l),
(321,636,l),
(312,636,l),
(526,0,l),
(619,0,l),
(375,694,l),
(267,694,l),
(7,0,l)
);
},
{
closed = 1;
nodes = (
(485,206,l),
(485,278,l),
(138,278,l),
(138,206,l)
);
},
{
closed = 1;
nodes = (
(388,751,o),
(449,799,o),
(462,870,c),
(423,896,l),
(416,847,o),
(376,814,o),
(323,814,cs),
(272,814,o),
(233,847,o),
(225,895,c),
(161,859,l),
(175,794,o),
(235,751,o),
(311,751,cs)
);
},
{
closed = 1;
nodes = (
(451,1001,l),
(390,1054,l),
(281,902,l),
(317,872,l)
);
}
);
};
layerId = "F333AEC5-BB61-4D5E-9EDD-6124322D28F2";
shapes = (
{
ref = A;
},
{
pos = (106,212);
ref = brevecomb.loclVIET;
},
{
pos = (231,310);
ref = acutecomb.loclVIET;
}
);
width = 626;
},
{
background = {
anchors = (
{
name = bottom;
pos = (320,0);
},
{
name = ogonek;
pos = (582,10);
},
{
name = top;
pos = (350,976);
},
{
name = top_dot;
pos = (279,871);
},
{
name = topleft;
pos = (154,694);
}
);
shapes = (
{
closed = 1;
nodes = (
(60,0,l),
(323,676,l),
(319,676,l),
(564,0,l),
(588,0,l),
(334,694,l),
(311,694,l),
(38,0,l)
);
},
{
closed = 1;
nodes = (
(487,249,l),
(481,268,l),
(152,268,l),
(147,249,l)
);
},
{
closed = 1;
nodes = (
(372,768,o),
(422,809,o),
(431,868,c),
(421,874,l),
(414,822,o),
(371,786,o),
(316,786,cs),
(261,786,o),
(217,821,o),
(209,871,c),
(192,864,l),
(201,807,o),
(250,768,o),
(310,768,cs)
);
},
{
closed = 1;
nodes = (
(425,998,l),
(408,1012,l),
(302,883,l),
(310,875,l)
);
}
);
};
layerId = "0B2E441B-685E-400D-9B9B-E078DEED62EF";
shapes = (
{
ref = A;
},
{
pos = (115,214);
ref = brevecomb.loclVIET;
},
{
pos = (248,294);
ref = acutecomb.loclVIET;
}
);
width = 626;
},
{
background = {
anchors = (
{
name = bottom;
pos = (345,0);
},
{
name = ogonek;
pos = (651,10);
},
{
name = top;
pos = (370,1092);
},
{
name = top_dot;
pos = (270,1003);
},
{
name = topleft;
pos = (92,694);
}
);
shapes = (
{
closed = 1;
nodes = (
(178,0,l),
(362,620,l),
(314,620,l),
(507,0,l),
(698,0,l),
(461,694,l),
(240,694,l),
(-7,0,l)
);
},
{
closed = 1;
nodes = (
(504,143,l),
(468,299,l),
(221,299,l),
(186,143,l)
);
},
{
closed = 1;
nodes = (
(437,723,o),
(513,779,o),
(530,866,c),
(453,919,l),
(448,875,o),
(409,844,o),
(359,844,cs),
(315,844,o),
(273,872,o),
(253,916,c),
(145,852,l),
(158,777,o),
(238,723,o),
(337,723,cs)
);
},
{
closed = 1;
nodes = (
(518,1021,l),
(401,1119,l),
(281,945,l),
(356,881,l)
);
}
);
};
layerId = "51C2DFEF-3776-4D13-9284-96485B799B57";
shapes = (
{
ref = A;
},
{
pos = (120,204);
ref = brevecomb.loclVIET;
},
{
pos = (259,345);
ref = acutecomb.loclVIET;
}
);
width = 691;
}
);
unicode = 7854;
},
{
glyphname = Abrevedotbelow;
lastChange = "2023-04-14 09:29:06 +0000";
layers = (
{
background = {
anchors = (
{
name = bottom;
pos = (314,-205);
},
{
name = ogonek;
pos = (597,10);
},
{
name = top;
pos = (314,826);
},
{
name = topleft;
pos = (104,694);
}
);
shapes = (
{
closed = 1;
nodes = (
(94,0,l),
(321,636,l),
(312,636,l),
(526,0,l),
(619,0,l),
(375,694,l),
(267,694,l),
(7,0,l)
);
},
{
closed = 1;
nodes = (
(485,206,l),
(485,278,l),
(138,278,l),
(138,206,l)
);
},
{
closed = 1;
nodes = (
(350,-195,o),
(371,-174,o),
(371,-138,cs),
(371,-102,o),
(350,-81,o),
(314,-81,cs),
(278,-81,o),
(257,-102,o),
(257,-138,cs),
(257,-174,o),
(278,-195,o),
(314,-195,cs)
);
},
{
closed = 1;
nodes = (
(387,758,o),
(448,816,o),
(461,902,c),
(422,928,l),
(415,865,o),
(375,823,o),
(322,823,cs),
(271,823,o),
(232,865,o),
(224,927,c),
(160,890,l),
(174,811,o),
(234,758,o),
(310,758,cs)
);
}
);
};
layerId = "F333AEC5-BB61-4D5E-9EDD-6124322D28F2";
shapes = (
{
ref = A;
},
{
pos = (178,0);
ref = dotbelowcomb;
},
{
pos = (105,0);
ref = brevecomb.case;
}
);
width = 626;
},
{
background = {
anchors = (
{
name = bottom;
pos = (320,-143);
},
{
name = ogonek;
pos = (582,10);
},
{
name = top;
pos = (323,805);
},
{
name = topleft;
pos = (154,694);
}
);
shapes = (
{
closed = 1;
nodes = (
(60,0,l),
(323,676,l),
(319,676,l),
(564,0,l),
(588,0,l),
(334,694,l),
(311,694,l),
(38,0,l)
);
},
{
closed = 1;
nodes = (
(487,249,l),
(481,268,l),
(152,268,l),
(147,249,l)
);
},
{
closed = 1;
nodes = (
(332,-143,o),
(341,-134,o),
(341,-122,cs),
(341,-110,o),
(332,-101,o),
(320,-101,cs),
(308,-101,o),
(299,-110,o),
(299,-122,cs),
(299,-134,o),
(308,-143,o),
(320,-143,cs)
);
},
{
closed = 1;
nodes = (
(382,752,o),
(432,802,o),
(441,877,c),
(431,883,l),
(424,815,o),
(380,770,o),
(326,770,cs),
(274,770,o),
(228,810,o),
(219,879,c),
(202,873,l),
(211,800,o),
(260,752,o),
(320,752,cs)
);
}
);
};
layerId = "0B2E441B-685E-400D-9B9B-E078DEED62EF";
shapes = (
{
ref = A;
},
{
pos = (200,0);
ref = dotbelowcomb;
},
{
pos = (120,0);
ref = brevecomb.case;
}
);
width = 626;
},
{
background = {
anchors = (
{
name = bottom;
pos = (345,-227);
},
{
name = ogonek;
pos = (651,10);
},
{
name = top;
pos = (345,892);
},
{
name = topleft;
pos = (92,694);
}
);
shapes = (
{
closed = 1;
nodes = (
(178,0,l),
(362,620,l),
(314,620,l),
(507,0,l),
(698,0,l),
(461,694,l),
(240,694,l),
(-7,0,l)
);
},
{
closed = 1;
nodes = (
(504,143,l),
(468,299,l),
(221,299,l),
(186,143,l)
);
},
{
closed = 1;
nodes = (
(404,-225,o),
(444,-185,o),
(444,-126,cs),
(444,-66,o),
(404,-26,o),
(345,-26,cs),
(286,-26,o),
(246,-66,o),
(246,-126,cs),
(246,-185,o),
(286,-225,o),
(345,-225,cs)
);
},
{
closed = 1;
nodes = (
(430,741,o),
(505,809,o),
(522,916,c),
(441,972,l),
(436,908,o),
(398,871,o),
(348,871,cs),
(296,871,o),
(257,911,o),
(251,971,c),
(127,894,l),
(141,799,o),
(224,741,o),
(329,741,cs)
);
}
);
};
layerId = "51C2DFEF-3776-4D13-9284-96485B799B57";
shapes = (
{
ref = A;
},
{
pos = (195,0);
ref = dotbelowcomb;
},
{
pos = (112,0);
ref = brevecomb.case;
}
);
width = 691;
}
);
unicode = 7862;
},
{
glyphname = Abrevegrave;
lastChange = "2023-04-14 09:29:06 +0000";
layers = (
{
background = {
anchors = (
{
name = bottom;
pos = (314,0);
},
{
name = ogonek;
pos = (597,10);
},
{
name = top;
pos = (290,972);
},
{
name = topleft;
pos = (104,694);
}
);
shapes = (
{
closed = 1;
nodes = (
(94,0,l),
(321,636,l),
(312,636,l),
(526,0,l),
(619,0,l),
(375,694,l),
(267,694,l),
(7,0,l)
);
},
{
closed = 1;
nodes = (
(485,206,l),
(485,278,l),
(138,278,l),
(138,206,l)
);
},
{
closed = 1;
nodes = (
(388,751,o),
(449,799,o),
(462,870,c),
(423,896,l),
(416,847,o),
(376,814,o),
(323,814,cs),
(272,814,o),
(233,847,o),
(225,895,c),
(161,859,l),
(175,794,o),
(235,751,o),
(311,751,cs)
);
},
{
closed = 1;
nodes = (
(352,907,l),
(235,1053,l),
(177,997,l),
(318,874,l)
);
}
);
};
layerId = "F333AEC5-BB61-4D5E-9EDD-6124322D28F2";
shapes = (
{
ref = A;
},
{
pos = (106,212);
ref = brevecomb.loclVIET;
},
{
pos = (144,310);
ref = gravecomb.loclVIET;
}
);
width = 626;
},
{
background = {
anchors = (
{
name = bottom;
pos = (320,0);
},
{
name = ogonek;
pos = (582,10);
},
{
name = top;
pos = (289,928);
},
{
name = topleft;
pos = (154,694);
}
);
shapes = (
{
closed = 1;
nodes = (
(60,0,l),
(323,676,l),
(319,676,l),
(564,0,l),
(588,0,l),
(334,694,l),
(311,694,l),
(38,0,l)
);
},
{
closed = 1;
nodes = (
(487,249,l),
(481,268,l),
(152,268,l),
(147,249,l)
);
},
{
closed = 1;
nodes = (
(372,768,o),
(422,809,o),
(431,868,c),
(421,874,l),
(414,822,o),
(371,786,o),
(316,786,cs),
(261,786,o),
(217,821,o),
(209,871,c),
(192,864,l),
(201,807,o),
(250,768,o),
(310,768,cs)
);
},
{
closed = 1;
nodes = (
(341,886,l),
(228,1010,l),
(212,995,l),
(334,878,l)
);
}
);
};
layerId = "0B2E441B-685E-400D-9B9B-E078DEED62EF";
shapes = (
{
ref = A;
},
{
pos = (115,214);
ref = brevecomb.loclVIET;
},
{
pos = (144,294);
ref = gravecomb.loclVIET;
}
);
width = 626;
},
{
background = {
anchors = (
{
name = bottom;
pos = (345,0);
},
{
name = ogonek;
pos = (651,10);
},
{
name = top;
pos = (339,1092);
},
{
name = topleft;
pos = (92,694);
}
);
shapes = (
{
closed = 1;
nodes = (
(178,0,l),
(362,620,l),
(314,620,l),
(507,0,l),
(698,0,l),
(461,694,l),
(240,694,l),
(-7,0,l)
);
},
{
closed = 1;
nodes = (
(504,143,l),
(468,299,l),
(221,299,l),
(186,143,l)
);
},
{
closed = 1;
nodes = (
(437,723,o),
(513,779,o),
(530,866,c),
(453,919,l),
(448,875,o),
(409,844,o),
(359,844,cs),
(315,844,o),
(273,872,o),
(253,916,c),
(145,852,l),
(158,777,o),
(238,723,o),
(337,723,cs)
);
},
{
closed = 1;
nodes = (
(426,949,l),
(300,1119,l),
(186,1017,l),
(353,882,l)
);
}
);
};
layerId = "51C2DFEF-3776-4D13-9284-96485B799B57";
shapes = (
{
ref = A;
},
{
pos = (120,204);
ref = brevecomb.loclVIET;
},
{
pos = (169,345);
ref = gravecomb.loclVIET;
}
);
width = 691;
}
);
unicode = 7856;
},
{
glyphname = Abrevehookabove;
lastChange = "2023-04-14 09:29:06 +0000";
layers = (
{
background = {
anchors = (
{
name = bottom;
pos = (314,0);
},
{
name = ogonek;
pos = (597,10);
},
{
name = top;
pos = (324,1052);
},
{
name = topleft;
pos = (104,694);
}
);
shapes = (
{
closed = 1;
nodes = (
(94,0,l),
(321,636,l),
(312,636,l),
(526,0,l),
(619,0,l),
(375,694,l),
(267,694,l),
(7,0,l)
);
},
{
closed = 1;
nodes = (
(485,206,l),
(485,278,l),
(138,278,l),
(138,206,l)
);
},
{
closed = 1;
nodes = (
(388,751,o),
(449,799,o),
(462,870,c),
(423,896,l),
(416,847,o),
(376,814,o),
(323,814,cs),
(272,814,o),
(233,847,o),
(225,895,c),
(161,859,l),
(175,794,o),
(235,751,o),
(311,751,cs)
);
},
{
closed = 1;
nodes = (
(389,902,o),
(428,947,o),
(428,990,cs),
(428,1033,o),
(391,1062,o),
(331,1062,cs),
(300,1062,o),
(256,1054,o),
(220,1037,c),
(239,985,l),
(267,995,o),
(295,1002,o),
(315,1002,cs),
(342,1002,o),
(361,989,o),
(361,972,cs),
(361,952,o),
(337,928,o),
(301,914,c),
(316,874,l)
);
}
);
};
layerId = "F333AEC5-BB61-4D5E-9EDD-6124322D28F2";
shapes = (
{
ref = A;
},
{
pos = (106,212);
ref = brevecomb.loclVIET;
},
{
pos = (180,310);
ref = hookabovecomb.loclVIET;
}
);
width = 626;
},
{
background = {
anchors = (
{
name = bottom;
pos = (320,0);
},
{
name = ogonek;
pos = (582,10);
},
{
name = top;
pos = (323,1009);
},
{
name = topleft;
pos = (154,694);
}
);
shapes = (
{
closed = 1;
nodes = (
(60,0,l),
(323,676,l),
(319,676,l),
(564,0,l),
(588,0,l),
(334,694,l),
(311,694,l),
(38,0,l)
);
},
{
closed = 1;
nodes = (
(487,249,l),
(481,268,l),
(152,268,l),
(147,249,l)
);
},
{
closed = 1;
nodes = (
(372,768,o),
(422,809,o),
(431,868,c),
(421,874,l),
(414,822,o),
(371,786,o),
(316,786,cs),
(261,786,o),
(217,821,o),
(209,871,c),
(192,864,l),
(201,807,o),
(250,768,o),
(310,768,cs)
);
},
{
closed = 1;
nodes = (
(380,883,o),
(416,921,o),
(416,958,cs),
(416,992,o),
(382,1019,o),
(331,1019,cs),
(298,1019,o),
(265,1011,o),
(230,994,c),
(235,981,l),
(266,995,o),
(301,1002,o),
(328,1002,cs),
(368,1002,o),
(396,980,o),
(396,953,cs),
(396,922,o),
(364,888,o),
(318,869,c),
(322,859,l)
);
}
);
};
layerId = "0B2E441B-685E-400D-9B9B-E078DEED62EF";
shapes = (
{
ref = A;
},
{
pos = (115,214);
ref = brevecomb.loclVIET;
},
{
pos = (175,294);
ref = hookabovecomb.loclVIET;
}
);
width = 626;
},
{
background = {
anchors = (
{
name = bottom;
pos = (345,0);
},
{
name = ogonek;
pos = (651,10);
},
{
name = top;
pos = (335,1129);
},
{
name = topleft;
pos = (92,694);
}
);
shapes = (
{
closed = 1;
nodes = (
(178,0,l),
(362,620,l),
(314,620,l),
(507,0,l),
(698,0,l),
(461,694,l),
(240,694,l),
(-7,0,l)
);
},
{
closed = 1;
nodes = (
(504,143,l),
(468,299,l),
(221,299,l),
(186,143,l)
);
},
{
closed = 1;
nodes = (
(437,723,o),
(513,779,o),
(530,866,c),
(453,919,l),
(448,875,o),
(409,844,o),
(359,844,cs),
(315,844,o),
(273,872,o),
(253,916,c),
(145,852,l),
(158,777,o),
(238,723,o),
(337,723,cs)
);
},
{
closed = 1;
nodes = (
(408,933,o),
(461,988,o),
(461,1045,cs),
(461,1100,o),
(411,1138,o),
(335,1138,cs),
(297,1138,o),
(253,1129,o),
(209,1113,c),
(248,1019,l),
(271,1027,o),
(286,1029,o),
(300,1029,cs),
(322,1029,o),
(332,1023,o),
(332,1011,cs),
(332,998,o),
(316,984,o),
(291,979,c),
(319,904,l)
);
}
);
};
layerId = "51C2DFEF-3776-4D13-9284-96485B799B57";
shapes = (
{
ref = A;
},
{
pos = (120,204);
ref = brevecomb.loclVIET;
},
{
pos = (192,344);
ref = hookabovecomb.loclVIET;
}
);
width = 691;
}
);
unicode = 7858;
},
{
glyphname = Abrevetilde;
lastChange = "2023-04-14 09:29:06 +0000";
layers = (
{
background = {
anchors = (
{
name = bottom;
pos = (314,0);
},
{
name = ogonek;
pos = (597,10);
},
{
name = top;
pos = (314,942);
},
{
name = topleft;
pos = (104,694);
}
);
shapes = (
{
closed = 1;
nodes = (
(94,0,l),
(321,636,l),
(312,636,l),
(526,0,l),
(619,0,l),
(375,694,l),
(267,694,l),
(7,0,l)
);
},
{
closed = 1;
nodes = (
(485,206,l),
(485,278,l),
(138,278,l),
(138,206,l)
);
},
{
closed = 1;
nodes = (
(388,751,o),
(449,799,o),
(462,870,c),
(423,896,l),
(416,847,o),
(376,814,o),
(323,814,cs),
(272,814,o),
(233,847,o),
(225,895,c),
(161,859,l),
(175,794,o),
(235,751,o),
(311,751,cs)
);
},
{
closed = 1;
nodes = (
(214,955,o),
(233,972,o),
(257,972,cs),
(296,972,o),
(312,931,o),
(374,931,cs),
(426,931,o),
(470,963,o),
(483,1023,c),
(432,1036,l),
(422,1010,o),
(403,992,o),
(376,992,cs),
(335,992,o),
(315,1035,o),
(259,1035,cs),
(215,1035,o),
(171,1004,o),
(153,941,c),
(204,929,l)
);
}
);
};
layerId = "F333AEC5-BB61-4D5E-9EDD-6124322D28F2";
shapes = (
{
ref = A;
},
{
pos = (106,212);
ref = brevecomb.loclVIET;
},
{
pos = (92,310);
ref = tildecomb.loclVIET;
}
);
width = 626;
},
{
background = {
anchors = (
{
name = bottom;
pos = (320,0);
},
{
name = ogonek;
pos = (582,10);
},
{
name = top;
pos = (313,906);
},
{
name = topleft;
pos = (154,694);
}
);
shapes = (
{
closed = 1;
nodes = (
(60,0,l),
(323,676,l),
(319,676,l),
(564,0,l),
(588,0,l),
(334,694,l),
(311,694,l),
(38,0,l)
);
},
{
closed = 1;
nodes = (
(487,249,l),
(481,268,l),
(152,268,l),
(147,249,l)
);
},
{
closed = 1;
nodes = (
(372,768,o),
(422,809,o),
(431,868,c),
(421,874,l),
(414,822,o),
(371,786,o),
(316,786,cs),
(261,786,o),
(217,821,o),
(209,871,c),
(192,864,l),
(201,807,o),
(250,768,o),
(310,768,cs)
);
},
{
closed = 1;
nodes = (
(195,971,o),
(225,981,o),
(249,981,cs),
(300,981,o),
(313,932,o),
(374,932,cs),
(412,932,o),
(447,958,o),
(463,999,c),
(454,1001,l),
(439,968,o),
(409,948,o),
(380,948,cs),
(324,948,o),
(310,997,o),
(254,997,cs),
(222,997,o),
(184,979,o),
(164,937,c),
(172,934,l)
);
}
);
};
layerId = "0B2E441B-685E-400D-9B9B-E078DEED62EF";
shapes = (
{
ref = A;
},
{
pos = (115,214);
ref = brevecomb.loclVIET;
},
{
pos = (86,294);
ref = tildecomb.loclVIET;
}
);
width = 626;
},
{
background = {
anchors = (
{
name = bottom;
pos = (345,0);
},
{
name = ogonek;
pos = (651,10);
},
{
name = top;
pos = (345,1015);
},
{
name = topleft;
pos = (92,694);
}
);
shapes = (
{
closed = 1;
nodes = (
(178,0,l),
(362,620,l),
(314,620,l),
(507,0,l),
(698,0,l),
(461,694,l),
(240,694,l),
(-7,0,l)
);
},
{
closed = 1;
nodes = (
(504,143,l),
(468,299,l),
(221,299,l),
(186,143,l)
);
},
{
closed = 1;
nodes = (
(437,723,o),
(513,779,o),
(530,866,c),
(453,919,l),
(448,875,o),
(409,844,o),
(359,844,cs),
(315,844,o),
(273,872,o),
(253,916,c),
(145,852,l),
(158,777,o),
(238,723,o),
(337,723,cs)
);
},
{
closed = 1;
nodes = (
(267,966,o),
(283,980,o),
(298,980,cs),
(325,980,o),
(348,948,o),
(403,948,cs),
(471,948,o),
(526,998,o),
(536,1079,c),
(440,1104,l),
(432,1080,o),
(416,1068,o),
(400,1068,cs),
(373,1068,o),
(337,1103,o),
(288,1103,cs),
(225,1103,o),
(175,1047,o),
(162,964,c),
(259,941,l)
);
}
);
};
layerId = "51C2DFEF-3776-4D13-9284-96485B799B57";
shapes = (
{
ref = A;
},
{
pos = (120,204);
ref = brevecomb.loclVIET;
},
{
pos = (127,344);
ref = tildecomb.loclVIET;
}
);
width = 691;
}
);
unicode = 7860;
},
{
glyphname = Acaron;
lastChange = "2023-04-14 09:29:06 +0000";
layers = (
{
background = {
anchors = (
{
name = bottom;
pos = (314,0);
},
{
name = ogonek;
pos = (597,10);
},
{
name = top;
pos = (314,836);
},
{
name = topleft;
pos = (104,694);
}
);
shapes = (
{
closed = 1;
nodes = (
(94,0,l),
(321,636,l),
(312,636,l),
(526,0,l),
(619,0,l),
(375,694,l),
(267,694,l),
(7,0,l)
);
},
{
closed = 1;
nodes = (
(485,206,l),
(485,278,l),
(138,278,l),
(138,206,l)
);
},
{
closed = 1;
nodes = (
(337,754,l),
(464,893,l),
(430,923,l),
(318,822,l),
(213,922,l),
(164,880,l),
(294,754,l)
);
}
);
};
layerId = "F333AEC5-BB61-4D5E-9EDD-6124322D28F2";
shapes = (
{
ref = A;
},
{
pos = (130,0);
ref = caroncomb.case;
}
);
width = 626;
},
{
background = {
anchors = (
{
name = bottom;
pos = (320,0);
},
{
name = ogonek;
pos = (582,10);
},
{
name = top;
pos = (323,803);
},
{
name = topleft;
pos = (154,694);
}
);
shapes = (
{
closed = 1;
nodes = (
(60,0,l),
(323,676,l),
(319,676,l),
(564,0,l),
(588,0,l),
(334,694,l),
(311,694,l),
(38,0,l)
);
},
{
closed = 1;
nodes = (
(487,249,l),
(481,268,l),
(152,268,l),
(147,249,l)
);
},
{
closed = 1;
nodes = (
(337,757,l),
(447,881,l),
(439,887,l),
(330,774,l),
(221,888,l),
(207,877,l),
(322,757,l)
);
}
);
};
layerId = "0B2E441B-685E-400D-9B9B-E078DEED62EF";
shapes = (
{
ref = A;
},
{
pos = (148,0);
ref = caroncomb.case;
}
);
width = 626;
},
{
background = {
anchors = (
{
name = bottom;
pos = (345,0);
},
{
name = ogonek;
pos = (651,10);
},
{
name = top;
pos = (345,888);
},
{
name = topleft;
pos = (92,694);
}
);
shapes = (
{
closed = 1;
nodes = (
(178,0,l),
(362,620,l),
(314,620,l),
(507,0,l),
(698,0,l),
(461,694,l),
(240,694,l),
(-7,0,l)
);
},
{
closed = 1;
nodes = (
(504,143,l),
(468,299,l),
(221,299,l),
(186,143,l)
);
},
{
closed = 1;
nodes = (
(383,742,l),
(525,909,l),
(457,967,l),
(349,874,l),
(246,968,l),
(146,878,l),
(297,742,l)
);
}
);
};
layerId = "51C2DFEF-3776-4D13-9284-96485B799B57";
shapes = (
{
ref = A;
},
{
pos = (131,0);
ref = caroncomb.case;
}
);
width = 691;
}
);
unicode = 461;
},
{
glyphname = Acircumflex;
lastChange = "2023-04-14 09:29:06 +0000";
layers = (
{
background = {
anchors = (
{
name = bottom;
pos = (314,0);
},
{
name = ogonek;
pos = (597,10);
},
{
name = top;
pos = (314,852);
},
{
name = top_viet;
pos = (481,779);
},
{
name = topleft;
pos = (104,694);
}
);
shapes = (
{
closed = 1;
nodes = (
(94,0,l),
(321,636,l),
(312,636,l),
(526,0,l),
(619,0,l),
(375,694,l),
(267,694,l),
(7,0,l)
);
},
{
closed = 1;
nodes = (
(485,206,l),
(485,278,l),
(138,278,l),
(138,206,l)
);
},
{
closed = 1;
nodes = (
(316,852,l),
(425,754,l),
(469,796,l),
(342,923,l),
(299,923,l),
(171,782,l),
(206,754,l)
);
}
);
};
layerId = "F333AEC5-BB61-4D5E-9EDD-6124322D28F2";
shapes = (
{
ref = A;
},
{
pos = (126,0);
ref = circumflexcomb.case;
}
);
width = 626;
},
{
background = {
anchors = (
{
name = bottom;
pos = (320,0);
},
{
name = ogonek;
pos = (582,10);
},
{
name = top;
pos = (323,834);
},
{
name = top_viet;
pos = (448,779);
},
{
name = topleft;
pos = (154,694);
}
);
shapes = (
{
closed = 1;
nodes = (
(60,0,l),
(323,676,l),
(319,676,l),
(564,0,l),
(588,0,l),
(334,694,l),
(311,694,l),
(38,0,l)
);
},
{
closed = 1;
nodes = (
(487,249,l),
(481,268,l),
(152,268,l),
(147,249,l)
);
},
{
closed = 1;
nodes = (
(317,868,l),
(430,754,l),
(442,765,l),
(327,885,l),
(311,885,l),
(201,761,l),
(207,755,l)
);
}
);
};
layerId = "0B2E441B-685E-400D-9B9B-E078DEED62EF";
shapes = (
{
ref = A;
},
{
pos = (146,0);
ref = circumflexcomb.case;
}
);
width = 626;
},
{
background = {
anchors = (
{
name = bottom;
pos = (345,0);
},
{
name = ogonek;
pos = (651,10);
},
{
name = top;
pos = (345,912);
},
{
name = top_viet;
pos = (535,861);
},
{
name = topleft;
pos = (92,694);
}
);
shapes = (
{
closed = 1;
nodes = (
(178,0,l),
(362,620,l),
(314,620,l),
(507,0,l),
(698,0,l),
(461,694,l),
(240,694,l),
(-7,0,l)
);
},
{
closed = 1;
nodes = (
(504,143,l),
(468,299,l),
(221,299,l),
(186,143,l)
);
},
{
closed = 1;
nodes = (
(344,818,l),
(448,734,l),
(544,825,l),
(397,962,l),
(312,962,l),
(166,794,l),
(235,735,l)
);
}
);
};
layerId = "51C2DFEF-3776-4D13-9284-96485B799B57";
shapes = (
{
ref = A;
},
{
pos = (146,0);
ref = circumflexcomb.case;
}
);
width = 691;
}
);
unicode = 194;
},
{
glyphname = Acircumflexacute;
lastChange = "2023-04-14 09:29:06 +0000";
layers = (
{
background = {
anchors = (
{
name = bottom;
pos = (314,0);
},
{
name = ogonek;
pos = (597,10);
},
{
name = top;
pos = (315,792);
},
{
name = top_dot;
pos = (402,920);
},
{
name = top_viet;
pos = (478,955);
},
{
name = topleft;
pos = (104,694);
}
);
shapes = (
{
closed = 1;
nodes = (
(94,0,l),
(321,636,l),
(312,636,l),
(526,0,l),
(619,0,l),
(375,694,l),
(267,694,l),
(7,0,l)
);
},
{
closed = 1;
nodes = (
(485,206,l),
(485,278,l),
(138,278,l),
(138,206,l)
);
},
{
closed = 1;
nodes = (
(313,822,l),
(422,748,l),
(466,790,l),
(339,892,l),
(296,892,l),
(168,776,l),
(203,748,l)
);
},
{
closed = 1;
nodes = (
(581,984,l),
(520,1037,l),
(411,885,l),
(447,855,l)
);
}
);
};
layerId = "F333AEC5-BB61-4D5E-9EDD-6124322D28F2";
shapes = (
{
ref = A;
},
{
pos = (123,212);
ref = circumflexcomb.loclVIET;
},
{
anchor = top_viet;
pos = (361,293);
ref = acutecomb.loclVIET;
}
);
width = 626;
},
{
background = {
anchors = (
{
name = bottom;
pos = (320,0);
},
{
name = ogonek;
pos = (582,10);
},
{
name = top;
pos = (323,774);
},
{
name = top_dot;
pos = (397,865);
},
{
name = top_viet;
pos = (468,970);
},
{
name = topleft;
pos = (154,694);
}
);
shapes = (
{
closed = 1;
nodes = (
(60,0,l),
(323,676,l),
(319,676,l),
(564,0,l),
(588,0,l),
(334,694,l),
(311,694,l),
(38,0,l)
);
},
{
closed = 1;
nodes = (
(487,249,l),
(481,268,l),
(152,268,l),
(147,249,l)
);
},
{
closed = 1;
nodes = (
(318,857,l),
(431,768,l),
(443,779,l),
(328,874,l),
(312,874,l),
(202,775,l),
(208,769,l)
);
},
{
closed = 1;
nodes = (
(543,992,l),
(526,1006,l),
(420,877,l),
(428,869,l)
);
}
);
};
layerId = "0B2E441B-685E-400D-9B9B-E078DEED62EF";
shapes = (
{
ref = A;
},
{
pos = (147,214);
ref = circumflexcomb.loclVIET;
},
{
anchor = top_viet;
pos = (366,288);
ref = acutecomb.loclVIET;
}
);
width = 626;
},
{
background = {
anchors = (
{
name = bottom;
pos = (345,0);
},
{
name = ogonek;
pos = (651,10);
},
{
name = top;
pos = (345,834);
},
{
name = top_dot;
pos = (447,985);
},
{
name = top_viet;
pos = (547,1074);
},
{
name = topleft;
pos = (92,694);
}
);
shapes = (
{
closed = 1;
nodes = (
(178,0,l),
(362,620,l),
(314,620,l),
(507,0,l),
(698,0,l),
(461,694,l),
(240,694,l),
(-7,0,l)
);
},
{
closed = 1;
nodes = (
(504,143,l),
(468,299,l),
(221,299,l),
(186,143,l)
);
},
{
closed = 1;
nodes = (
(339,785,l),
(443,715,l),
(539,806,l),
(392,918,l),
(307,918,l),
(161,775,l),
(230,716,l)
);
},
{
closed = 1;
nodes = (
(695,1003,l),
(578,1101,l),
(458,927,l),
(533,863,l)
);
}
);
};
layerId = "51C2DFEF-3776-4D13-9284-96485B799B57";
shapes = (
{
ref = A;
},
{
pos = (141,204);
ref = circumflexcomb.loclVIET;
},
{
anchor = top_viet;
pos = (436,327);
ref = acutecomb.loclVIET;
}
);
width = 691;
}
);
unicode = 7844;
},
{
glyphname = Acircumflexdotbelow;
lastChange = "2023-04-14 09:29:06 +0000";
layers = (
{
background = {
anchors = (
{
name = bottom;
pos = (314,-205);
},
{
name = ogonek;
pos = (597,10);
},
{
name = top;
pos = (314,852);
},
{
name = top_viet;
pos = (481,779);
},
{
name = topleft;
pos = (104,694);
}
);
shapes = (
{
closed = 1;
nodes = (
(94,0,l),
(321,636,l),
(312,636,l),
(526,0,l),
(619,0,l),
(375,694,l),
(267,694,l),
(7,0,l)
);
},
{
closed = 1;
nodes = (
(485,206,l),
(485,278,l),
(138,278,l),
(138,206,l)
);
},
{
closed = 1;
nodes = (
(350,-195,o),
(371,-174,o),
(371,-138,cs),
(371,-102,o),
(350,-81,o),
(314,-81,cs),
(278,-81,o),
(257,-102,o),
(257,-138,cs),
(257,-174,o),
(278,-195,o),
(314,-195,cs)
);
},
{
closed = 1;
nodes = (
(316,852,l),
(425,754,l),
(469,796,l),
(342,923,l),
(299,923,l),
(171,782,l),
(206,754,l)
);
}
);
};
layerId = "F333AEC5-BB61-4D5E-9EDD-6124322D28F2";
shapes = (
{
ref = A;
},
{
pos = (178,0);
ref = dotbelowcomb;
},
{
pos = (126,0);
ref = circumflexcomb.case;
}
);
width = 626;
},
{
background = {
anchors = (
{
name = bottom;
pos = (320,-143);
},
{
name = ogonek;
pos = (582,10);
},
{
name = top;
pos = (323,834);
},
{
name = top_viet;
pos = (448,779);
},
{
name = topleft;
pos = (154,694);
}
);
shapes = (
{
closed = 1;
nodes = (
(60,0,l),
(323,676,l),
(319,676,l),
(564,0,l),
(588,0,l),
(334,694,l),
(311,694,l),
(38,0,l)
);
},
{
closed = 1;
nodes = (
(487,249,l),
(481,268,l),
(152,268,l),
(147,249,l)
);
},
{
closed = 1;
nodes = (
(332,-143,o),
(341,-134,o),
(341,-122,cs),
(341,-110,o),
(332,-101,o),
(320,-101,cs),
(308,-101,o),
(299,-110,o),
(299,-122,cs),
(299,-134,o),
(308,-143,o),
(320,-143,cs)
);
},
{
closed = 1;
nodes = (
(317,868,l),
(430,754,l),
(442,765,l),
(327,885,l),
(311,885,l),
(201,761,l),
(207,755,l)
);
}
);
};
layerId = "0B2E441B-685E-400D-9B9B-E078DEED62EF";
shapes = (
{
ref = A;
},
{
pos = (200,0);
ref = dotbelowcomb;
},
{
pos = (146,0);
ref = circumflexcomb.case;
}
);
width = 626;
},
{
background = {
anchors = (
{
name = bottom;
pos = (345,-227);
},
{
name = ogonek;
pos = (651,10);
},
{
name = top;
pos = (345,912);
},
{
name = top_viet;
pos = (535,861);
},
{
name = topleft;
pos = (92,694);
}
);
shapes = (
{
closed = 1;
nodes = (
(178,0,l),
(362,620,l),
(314,620,l),
(507,0,l),
(698,0,l),
(461,694,l),
(240,694,l),
(-7,0,l)
);
},
{
closed = 1;
nodes = (
(504,143,l),
(468,299,l),
(221,299,l),
(186,143,l)
);
},
{
closed = 1;
nodes = (
(404,-225,o),
(444,-185,o),
(444,-126,cs),
(444,-66,o),
(404,-26,o),
(345,-26,cs),
(286,-26,o),
(246,-66,o),
(246,-126,cs),
(246,-185,o),
(286,-225,o),
(345,-225,cs)
);
},
{
closed = 1;
nodes = (
(344,818,l),
(448,734,l),
(544,825,l),
(397,962,l),
(312,962,l),
(166,794,l),
(235,735,l)
);
}
);
};
layerId = "51C2DFEF-3776-4D13-9284-96485B799B57";
shapes = (
{
ref = A;
},
{
pos = (195,0);
ref = dotbelowcomb;
},
{
pos = (146,0);
ref = circumflexcomb.case;
}
);
width = 691;
}
);
unicode = 7852;
},
{
glyphname = Acircumflexgrave;
lastChange = "2023-04-14 09:29:06 +0000";
layers = (
{
background = {
anchors = (
{
name = bottom;
pos = (314,0);
},
{
name = ogonek;
pos = (597,10);
},
{
name = top;
pos = (315,792);
},
{
name = top_viet;
pos = (420,955);
},
{
name = topleft;
pos = (104,694);
}
);
shapes = (
{
closed = 1;
nodes = (
(94,0,l),
(321,636,l),
(312,636,l),
(526,0,l),
(619,0,l),
(375,694,l),
(267,694,l),
(7,0,l)
);
},
{
closed = 1;
nodes = (
(485,206,l),
(485,278,l),
(138,278,l),
(138,206,l)
);
},
{
closed = 1;
nodes = (
(313,822,l),
(422,748,l),
(466,790,l),
(339,892,l),
(296,892,l),
(168,776,l),
(203,748,l)
);
},
{
closed = 1;
nodes = (
(482,890,l),
(365,1036,l),
(307,980,l),
(448,857,l)
);
}
);
};
layerId = "F333AEC5-BB61-4D5E-9EDD-6124322D28F2";
shapes = (
{
ref = A;
},
{
pos = (123,212);
ref = circumflexcomb.loclVIET;
},
{
anchor = top_viet;
pos = (274,293);
ref = gravecomb.loclVIET;
}
);
width = 626;
},
{
background = {
anchors = (
{
name = bottom;
pos = (320,0);
},
{
name = ogonek;
pos = (582,10);
},
{
name = top;
pos = (323,774);
},
{
name = top_viet;
pos = (407,922);
},
{
name = topleft;
pos = (154,694);
}
);
shapes = (
{
closed = 1;
nodes = (
(60,0,l),
(323,676,l),
(319,676,l),
(564,0,l),
(588,0,l),
(334,694,l),
(311,694,l),
(38,0,l)
);
},
{
closed = 1;
nodes = (
(487,249,l),
(481,268,l),
(152,268,l),
(147,249,l)
);
},
{
closed = 1;
nodes = (
(318,857,l),
(431,768,l),
(443,779,l),
(328,874,l),
(312,874,l),
(202,775,l),
(208,769,l)
);
},
{
closed = 1;
nodes = (
(459,880,l),
(346,1004,l),
(330,989,l),
(452,872,l)
);
}
);
};
layerId = "0B2E441B-685E-400D-9B9B-E078DEED62EF";
shapes = (
{
ref = A;
},
{
pos = (147,214);
ref = circumflexcomb.loclVIET;
},
{
anchor = top_viet;
pos = (262,288);
ref = gravecomb.loclVIET;
}
);
width = 626;
},
{
background = {
anchors = (
{
name = bottom;
pos = (345,0);
},
{
name = ogonek;
pos = (651,10);
},
{
name = top;
pos = (345,834);
},
{
name = top_viet;
pos = (516,1074);
},
{
name = topleft;
pos = (92,694);
}
);
shapes = (
{
closed = 1;
nodes = (
(178,0,l),
(362,620,l),
(314,620,l),
(507,0,l),
(698,0,l),
(461,694,l),
(240,694,l),
(-7,0,l)
);
},
{
closed = 1;
nodes = (
(504,143,l),
(468,299,l),
(221,299,l),
(186,143,l)
);
},
{
closed = 1;
nodes = (
(339,785,l),
(443,715,l),
(539,806,l),
(392,918,l),
(307,918,l),
(161,775,l),
(230,716,l)
);
},
{
closed = 1;
nodes = (
(603,931,l),
(477,1101,l),
(363,999,l),
(530,864,l)
);
}
);
};
layerId = "51C2DFEF-3776-4D13-9284-96485B799B57";
shapes = (
{
ref = A;
},
{
pos = (141,204);
ref = circumflexcomb.loclVIET;
},
{
anchor = top_viet;
pos = (346,327);
ref = gravecomb.loclVIET;
}
);
width = 691;
}
);
unicode = 7846;
},
{
glyphname = Acircumflexhookabove;
lastChange = "2023-04-14 09:29:06 +0000";
layers = (
{
background = {
anchors = (
{
name = bottom;
pos = (314,0);
},
{
name = ogonek;
pos = (597,10);
},
{
name = top;
pos = (315,792);
},
{
name = top_viet;
pos = (454,1035);
},
{
name = topleft;
pos = (104,694);
}
);
shapes = (
{
closed = 1;
nodes = (
(94,0,l),
(321,636,l),
(312,636,l),
(526,0,l),
(619,0,l),
(375,694,l),
(267,694,l),
(7,0,l)
);
},
{
closed = 1;
nodes = (
(485,206,l),
(485,278,l),
(138,278,l),
(138,206,l)
);
},
{
closed = 1;
nodes = (
(313,822,l),
(422,748,l),
(466,790,l),
(339,892,l),
(296,892,l),
(168,776,l),
(203,748,l)
);
},
{
closed = 1;
nodes = (
(519,885,o),
(558,930,o),
(558,973,cs),
(558,1016,o),
(521,1045,o),
(461,1045,cs),
(430,1045,o),
(386,1037,o),
(350,1020,c),
(369,968,l),
(397,978,o),
(425,985,o),
(445,985,cs),
(472,985,o),
(491,972,o),
(491,955,cs),
(491,935,o),
(467,911,o),
(431,897,c),
(446,857,l)
);
}
);
};
layerId = "F333AEC5-BB61-4D5E-9EDD-6124322D28F2";
shapes = (
{
ref = A;
},
{
pos = (123,212);
ref = circumflexcomb.loclVIET;
},
{
anchor = top_viet;
pos = (310,293);
ref = hookabovecomb.loclVIET;
}
);
width = 626;
},
{
background = {
anchors = (
{
name = bottom;
pos = (320,0);
},
{
name = ogonek;
pos = (582,10);
},
{
name = top;
pos = (323,774);
},
{
name = top_viet;
pos = (441,1003);
},
{
name = topleft;
pos = (154,694);
}
);
shapes = (
{
closed = 1;
nodes = (
(60,0,l),
(323,676,l),
(319,676,l),
(564,0,l),
(588,0,l),
(334,694,l),
(311,694,l),
(38,0,l)
);
},
{
closed = 1;
nodes = (
(487,249,l),
(481,268,l),
(152,268,l),
(147,249,l)
);
},
{
closed = 1;
nodes = (
(318,857,l),
(431,768,l),
(443,779,l),
(328,874,l),
(312,874,l),
(202,775,l),
(208,769,l)
);
},
{
closed = 1;
nodes = (
(498,877,o),
(534,915,o),
(534,952,cs),
(534,986,o),
(500,1013,o),
(449,1013,cs),
(416,1013,o),
(383,1005,o),
(348,988,c),
(353,975,l),
(384,989,o),
(419,996,o),
(446,996,cs),
(486,996,o),
(514,974,o),
(514,947,cs),
(514,916,o),
(482,882,o),
(436,863,c),
(440,853,l)
);
}
);
};
layerId = "0B2E441B-685E-400D-9B9B-E078DEED62EF";
shapes = (
{
ref = A;
},
{
pos = (147,214);
ref = circumflexcomb.loclVIET;
},
{
anchor = top_viet;
pos = (293,288);
ref = hookabovecomb.loclVIET;
}
);
width = 626;
},
{
background = {
anchors = (
{
name = bottom;
pos = (345,0);
},
{
name = ogonek;
pos = (651,10);
},
{
name = top;
pos = (345,834);
},
{
name = top_viet;
pos = (512,1111);
},
{
name = topleft;
pos = (92,694);
}
);
shapes = (
{
closed = 1;
nodes = (
(178,0,l),
(362,620,l),
(314,620,l),
(507,0,l),
(698,0,l),
(461,694,l),
(240,694,l),
(-7,0,l)
);
},
{
closed = 1;
nodes = (
(504,143,l),
(468,299,l),
(221,299,l),
(186,143,l)
);
},
{
closed = 1;
nodes = (
(339,785,l),
(443,715,l),
(539,806,l),
(392,918,l),
(307,918,l),
(161,775,l),
(230,716,l)
);
},
{
closed = 1;
nodes = (
(585,915,o),
(638,970,o),
(638,1027,cs),
(638,1082,o),
(588,1120,o),
(512,1120,cs),
(474,1120,o),
(430,1111,o),
(386,1095,c),
(425,1001,l),
(448,1009,o),
(463,1011,o),
(477,1011,cs),
(499,1011,o),
(509,1005,o),
(509,993,cs),
(509,980,o),
(493,966,o),
(468,961,c),
(496,886,l)
);
}
);
};
layerId = "51C2DFEF-3776-4D13-9284-96485B799B57";
shapes = (
{
ref = A;
},
{
pos = (141,204);
ref = circumflexcomb.loclVIET;
},
{
anchor = top_viet;
pos = (369,326);
ref = hookabovecomb.loclVIET;
}
);
width = 691;
}
);
unicode = 7848;
},
{
glyphname = Acircumflextilde;
lastChange = "2023-04-14 09:29:06 +0000";
layers = (
{
background = {
anchors = (
{
name = bottom;
pos = (314,0);
},
{
name = ogonek;
pos = (597,10);
},
{
name = top;
pos = (315,942);
},
{
name = top_viet;
pos = (444,775);
},
{
name = topleft;
pos = (104,694);
}
);
shapes = (
{
closed = 1;
nodes = (
(94,0,l),
(321,636,l),
(312,636,l),
(526,0,l),
(619,0,l),
(375,694,l),
(267,694,l),
(7,0,l)
);
},
{
closed = 1;
nodes = (
(485,206,l),
(485,278,l),
(138,278,l),
(138,206,l)
);
},
{
closed = 1;
nodes = (
(313,822,l),
(422,748,l),
(466,790,l),
(339,892,l),
(296,892,l),
(168,776,l),
(203,748,l)
);
},
{
closed = 1;
nodes = (
(215,955,o),
(234,972,o),
(258,972,cs),
(297,972,o),
(313,931,o),
(375,931,cs),
(427,931,o),
(471,963,o),
(484,1023,c),
(433,1036,l),
(423,1010,o),
(404,992,o),
(377,992,cs),
(336,992,o),
(316,1035,o),
(260,1035,cs),
(216,1035,o),
(172,1004,o),
(154,941,c),
(205,929,l)
);
}
);
};
layerId = "F333AEC5-BB61-4D5E-9EDD-6124322D28F2";
shapes = (
{
ref = A;
},
{
pos = (123,212);
ref = circumflexcomb.loclVIET;
},
{
pos = (93,310);
ref = tildecomb.loclVIET;
}
);
width = 626;
},
{
background = {
anchors = (
{
name = bottom;
pos = (320,0);
},
{
name = ogonek;
pos = (582,10);
},
{
name = top;
pos = (323,906);
},
{
name = top_viet;
pos = (431,768);
},
{
name = topleft;
pos = (154,694);
}
);
shapes = (
{
closed = 1;
nodes = (
(60,0,l),
(323,676,l),
(319,676,l),
(564,0,l),
(588,0,l),
(334,694,l),
(311,694,l),
(38,0,l)
);
},
{
closed = 1;
nodes = (
(487,249,l),
(481,268,l),
(152,268,l),
(147,249,l)
);
},
{
closed = 1;
nodes = (
(318,857,l),
(431,768,l),
(443,779,l),
(328,874,l),
(312,874,l),
(202,775,l),
(208,769,l)
);
},
{
closed = 1;
nodes = (
(205,971,o),
(235,981,o),
(259,981,cs),
(310,981,o),
(323,932,o),
(384,932,cs),
(422,932,o),
(457,958,o),
(473,999,c),
(464,1001,l),
(449,968,o),
(419,948,o),
(390,948,cs),
(334,948,o),
(320,997,o),
(264,997,cs),
(232,997,o),
(194,979,o),
(174,937,c),
(182,934,l)
);
}
);
};
layerId = "0B2E441B-685E-400D-9B9B-E078DEED62EF";
shapes = (
{
ref = A;
},
{
pos = (147,214);
ref = circumflexcomb.loclVIET;
},
{
pos = (96,294);
ref = tildecomb.loclVIET;
}
);
width = 626;
},
{
background = {
anchors = (
{
name = bottom;
pos = (345,0);
},
{
name = ogonek;
pos = (651,10);
},
{
name = top;
pos = (345,1015);
},
{
name = top_viet;
pos = (522,816);
},
{
name = topleft;
pos = (92,694);
}
);
shapes = (
{
closed = 1;
nodes = (
(178,0,l),
(362,620,l),
(314,620,l),
(507,0,l),
(698,0,l),
(461,694,l),
(240,694,l),
(-7,0,l)
);
},
{
closed = 1;
nodes = (
(504,143,l),
(468,299,l),
(221,299,l),
(186,143,l)
);
},
{
closed = 1;
nodes = (
(339,785,l),
(443,715,l),
(539,806,l),
(392,918,l),
(307,918,l),
(161,775,l),
(230,716,l)
);
},
{
closed = 1;
nodes = (
(267,966,o),
(283,980,o),
(298,980,cs),
(325,980,o),
(348,948,o),
(403,948,cs),
(471,948,o),
(526,998,o),
(536,1079,c),
(440,1104,l),
(432,1080,o),
(416,1068,o),
(400,1068,cs),
(373,1068,o),
(337,1103,o),
(288,1103,cs),
(225,1103,o),
(175,1047,o),
(162,964,c),
(259,941,l)
);
}
);
};
layerId = "51C2DFEF-3776-4D13-9284-96485B799B57";
shapes = (
{
ref = A;
},
{
pos = (141,204);
ref = circumflexcomb.loclVIET;
},
{
anchor = top;
pos = (127,344);
ref = tildecomb.loclVIET;
}
);
width = 691;
}
);
unicode = 7850;
},
{
glyphname = Adblgrave;
lastChange = "2023-04-14 09:29:06 +0000";
layers = (
{
background = {
anchors = (
{
name = bottom;
pos = (314,0);
},
{
name = ogonek;
pos = (597,10);
},
{
name = top;
pos = (314,926);
},
{
name = topleft;
pos = (104,694);
}
);
shapes = (
{
closed = 1;
nodes = (
(94,0,l),
(321,636,l),
(312,636,l),
(526,0,l),
(619,0,l),
(375,694,l),
(267,694,l),
(7,0,l)
);
},
{
closed = 1;
nodes = (
(485,206,l),
(485,278,l),
(138,278,l),
(138,206,l)
);
},
{
closed = 1;
nodes = (
(468,800,l),
(359,939,l),
(299,885,l),
(429,764,l)
);
},
{
closed = 1;
nodes = (
(278,800,l),
(169,939,l),
(109,885,l),
(239,764,l)
);
}
);
};
layerId = "F333AEC5-BB61-4D5E-9EDD-6124322D28F2";
shapes = (
{
ref = A;
},
{
pos = (93,0);
ref = dblgravecomb.case;
}
);
width = 626;
},
{
background = {
anchors = (
{
name = bottom;
pos = (320,0);
},
{
name = ogonek;
pos = (582,10);
},
{
name = top;
pos = (323,926);
},
{
name = topleft;
pos = (154,694);
}
);
shapes = (
{
closed = 1;
nodes = (
(60,0,l),
(323,676,l),
(319,676,l),
(564,0,l),
(588,0,l),
(334,694,l),
(311,694,l),
(38,0,l)
);
},
{
closed = 1;
nodes = (
(487,249,l),
(481,268,l),
(152,268,l),
(147,249,l)
);
},
{
closed = 1;
nodes = (
(442,777,l),
(329,911,l),
(313,895,l),
(436,772,l)
);
},
{
closed = 1;
nodes = (
(262,777,l),
(149,911,l),
(133,895,l),
(256,772,l)
);
}
);
};
layerId = "0B2E441B-685E-400D-9B9B-E078DEED62EF";
shapes = (
{
ref = A;
},
{
pos = (80,0);
ref = dblgravecomb.case;
}
);
width = 626;
},
{
background = {
anchors = (
{
name = bottom;
pos = (345,0);
},
{
name = ogonek;
pos = (651,10);
},
{
name = top;
pos = (345,926);
},
{
name = topleft;
pos = (92,694);
}
);
shapes = (
{
closed = 1;
nodes = (
(178,0,l),
(362,620,l),
(314,620,l),
(507,0,l),
(698,0,l),
(461,694,l),
(240,694,l),
(-7,0,l)
);
},
{
closed = 1;
nodes = (
(504,143,l),
(468,299,l),
(221,299,l),
(186,143,l)
);
},
{
closed = 1;
nodes = (
(576,812,l),
(443,986,l),
(324,871,l),
(500,739,l)
);
},
{
closed = 1;
nodes = (
(321,812,l),
(188,986,l),
(69,871,l),
(245,739,l)
);
}
);
};
layerId = "51C2DFEF-3776-4D13-9284-96485B799B57";
shapes = (
{
ref = A;
},
{
pos = (62,0);
ref = dblgravecomb.case;
}
);
width = 691;
}
);
unicode = 512;
},
{
glyphname = Adieresis;
lastChange = "2023-04-14 09:29:06 +0000";
layers = (
{
background = {
anchors = (
{
name = bottom;
pos = (314,0);
},
{
name = ogonek;
pos = (597,10);
},
{
name = top;
pos = (314,856);
},
{
name = topleft;
pos = (104,694);
}
);
shapes = (
{
closed = 1;
nodes = (
(94,0,l),
(321,636,l),
(312,636,l),
(526,0,l),
(619,0,l),
(375,694,l),
(267,694,l),
(7,0,l)
);
},
{
closed = 1;
nodes = (
(485,206,l),
(485,278,l),
(138,278,l),
(138,206,l)
);
},
{
closed = 1;
nodes = (
(447,777,o),
(468,798,o),
(468,834,cs),
(468,870,o),
(447,891,o),
(411,891,cs),
(375,891,o),
(354,870,o),
(354,834,cs),
(354,798,o),
(375,777,o),
(411,777,cs)
);
},
{
closed = 1;
nodes = (
(247,777,o),
(268,798,o),
(268,834,cs),
(268,870,o),
(247,891,o),
(211,891,cs),
(175,891,o),
(154,870,o),
(154,834,cs),
(154,798,o),
(175,777,o),
(211,777,cs)
);
}
);
};
layerId = "F333AEC5-BB61-4D5E-9EDD-6124322D28F2";
shapes = (
{
ref = A;
},
{
pos = (78,0);
ref = dieresiscomb.case;
}
);
width = 626;
},
{
background = {
anchors = (
{
name = bottom;
pos = (320,0);
},
{
name = ogonek;
pos = (582,10);
},
{
name = top;
pos = (323,839);
},
{
name = topleft;
pos = (154,694);
}
);
shapes = (
{
closed = 1;
nodes = (
(60,0,l),
(323,676,l),
(319,676,l),
(564,0,l),
(588,0,l),
(334,694,l),
(311,694,l),
(38,0,l)
);
},
{
closed = 1;
nodes = (
(487,249,l),
(481,268,l),
(152,268,l),
(147,249,l)
);
},
{
closed = 1;
nodes = (
(419,797,o),
(428,806,o),
(428,818,cs),
(428,830,o),
(419,839,o),
(407,839,cs),
(395,839,o),
(386,830,o),
(386,818,cs),
(386,806,o),
(395,797,o),
(407,797,cs)
);
},
{
closed = 1;
nodes = (
(249,797,o),
(258,806,o),
(258,818,cs),
(258,830,o),
(249,839,o),
(237,839,cs),
(225,839,o),
(216,830,o),
(216,818,cs),
(216,806,o),
(225,797,o),
(237,797,cs)
);
}
);
};
layerId = "0B2E441B-685E-400D-9B9B-E078DEED62EF";
shapes = (
{
ref = A;
},
{
pos = (103,0);
ref = dieresiscomb.case;
}
);
width = 626;
},
{
background = {
anchors = (
{
name = bottom;
pos = (345,0);
},
{
name = ogonek;
pos = (651,10);
},
{
name = top;
pos = (345,906);
},
{
name = topleft;
pos = (92,694);
}
);
shapes = (
{
closed = 1;
nodes = (
(178,0,l),
(362,620,l),
(314,620,l),
(507,0,l),
(698,0,l),
(461,694,l),
(240,694,l),
(-7,0,l)
);
},
{
closed = 1;
nodes = (
(504,143,l),
(468,299,l),
(221,299,l),
(186,143,l)
);
},
{
closed = 1;
nodes = (
(523,747,o),
(563,787,o),
(563,846,cs),
(563,906,o),
(523,946,o),
(464,946,cs),
(405,946,o),
(365,906,o),
(365,846,cs),
(365,787,o),
(405,747,o),
(464,747,cs)
);
},
{
closed = 1;
nodes = (
(273,747,o),
(313,787,o),
(313,846,cs),
(313,906,o),
(273,946,o),
(214,946,cs),
(155,946,o),
(115,906,o),
(115,846,cs),
(115,787,o),
(155,747,o),
(214,747,cs)
);
}
);
};
layerId = "51C2DFEF-3776-4D13-9284-96485B799B57";
shapes = (
{
ref = A;
},
{
pos = (70,0);
ref = dieresiscomb.case;
}
);
width = 691;
}
);
unicode = 196;
},
{
glyphname = Adotbelow;
lastChange = "2023-04-14 09:29:06 +0000";
layers = (
{
background = {
anchors = (
{
name = bottom;
pos = (314,-205);
},
{
name = ogonek;
pos = (597,10);
},
{
name = top;
pos = (314,694);
},
{
name = topleft;
pos = (104,694);
}
);
shapes = (
{
closed = 1;
nodes = (
(94,0,l),
(321,636,l),
(312,636,l),
(526,0,l),
(619,0,l),
(375,694,l),
(267,694,l),
(7,0,l)
);
},
{
closed = 1;
nodes = (
(485,206,l),
(485,278,l),
(138,278,l),
(138,206,l)
);
},
{
closed = 1;
nodes = (
(350,-195,o),
(371,-174,o),
(371,-138,cs),
(371,-102,o),
(350,-81,o),
(314,-81,cs),
(278,-81,o),
(257,-102,o),
(257,-138,cs),
(257,-174,o),
(278,-195,o),
(314,-195,cs)
);
}
);
};
layerId = "F333AEC5-BB61-4D5E-9EDD-6124322D28F2";
shapes = (
{
ref = A;
},
{
pos = (178,0);
ref = dotbelowcomb;
}
);
width = 626;
},
{
background = {
anchors = (
{
name = bottom;
pos = (320,-143);
},
{
name = ogonek;
pos = (582,10);
},
{
name = top;
pos = (323,694);
},
{
name = topleft;
pos = (154,694);
}
);
shapes = (
{
closed = 1;
nodes = (
(60,0,l),
(323,676,l),
(319,676,l),
(564,0,l),
(588,0,l),
(334,694,l),
(311,694,l),
(38,0,l)
);
},
{
closed = 1;
nodes = (
(487,249,l),
(481,268,l),
(152,268,l),
(147,249,l)
);
},
{
closed = 1;
nodes = (
(332,-143,o),
(341,-134,o),
(341,-122,cs),
(341,-110,o),
(332,-101,o),
(320,-101,cs),
(308,-101,o),
(299,-110,o),
(299,-122,cs),
(299,-134,o),
(308,-143,o),
(320,-143,cs)
);
}
);
};
layerId = "0B2E441B-685E-400D-9B9B-E078DEED62EF";
shapes = (
{
ref = A;
},
{
pos = (200,0);
ref = dotbelowcomb;
}
);
width = 626;
},
{
background = {
anchors = (
{
name = bottom;
pos = (345,-227);
},
{
name = ogonek;
pos = (651,10);
},
{
name = top;
pos = (345,694);
},
{
name = topleft;
pos = (92,694);
}
);
shapes = (
{
closed = 1;
nodes = (
(178,0,l),
(362,620,l),
(314,620,l),
(507,0,l),
(698,0,l),
(461,694,l),
(240,694,l),
(-7,0,l)
);
},
{
closed = 1;
nodes = (
(504,143,l),
(468,299,l),
(221,299,l),
(186,143,l)
);
},
{
closed = 1;
nodes = (
(404,-225,o),
(444,-185,o),
(444,-126,cs),
(444,-66,o),
(404,-26,o),
(345,-26,cs),
(286,-26,o),
(246,-66,o),
(246,-126,cs),
(246,-185,o),
(286,-225,o),
(345,-225,cs)
);
}
);
};
layerId = "51C2DFEF-3776-4D13-9284-96485B799B57";
shapes = (
{
ref = A;
},
{
pos = (195,0);
ref = dotbelowcomb;
}
);
width = 691;
}
);
unicode = 7840;
},
{
glyphname = Agrave;
lastChange = "2023-04-14 09:29:06 +0000";
layers = (
{
background = {
anchors = (
{
name = bottom;
pos = (314,0);
},
{
name = ogonek;
pos = (597,10);
},
{
name = top;
pos = (363,801);
},
{
name = topleft;
pos = (104,694);
}
);
shapes = (
{
closed = 1;
nodes = (
(94,0,l),
(321,636,l),
(312,636,l),
(526,0,l),
(619,0,l),
(375,694,l),
(267,694,l),
(7,0,l)
);
},
{
closed = 1;
nodes = (
(485,206,l),
(485,278,l),
(138,278,l),
(138,206,l)
);
},
{
closed = 1;
nodes = (
(362,786,l),
(216,917,l),
(166,853,l),
(330,744,l)
);
}
);
};
layerId = "F333AEC5-BB61-4D5E-9EDD-6124322D28F2";
shapes = (
{
ref = A;
},
{
pos = (119,0);
ref = gravecomb.case;
}
);
width = 626;
},
{
background = {
anchors = (
{
name = bottom;
pos = (320,0);
},
{
name = ogonek;
pos = (582,10);
},
{
name = top;
pos = (328,764);
},
{
name = topleft;
pos = (154,694);
}
);
shapes = (
{
closed = 1;
nodes = (
(60,0,l),
(323,676,l),
(319,676,l),
(564,0,l),
(588,0,l),
(334,694,l),
(311,694,l),
(38,0,l)
);
},
{
closed = 1;
nodes = (
(487,249,l),
(481,268,l),
(152,268,l),
(147,249,l)
);
},
{
closed = 1;
nodes = (
(328,764,l),
(200,883,l),
(185,866,l),
(322,758,l)
);
}
);
};
layerId = "0B2E441B-685E-400D-9B9B-E078DEED62EF";
shapes = (
{
ref = A;
},
{
pos = (126,0);
ref = gravecomb.case;
}
);
width = 626;
},
{
background = {
anchors = (
{
name = bottom;
pos = (345,0);
},
{
name = ogonek;
pos = (651,10);
},
{
name = top;
pos = (426,800);
},
{
name = topleft;
pos = (92,694);
}
);
shapes = (
{
closed = 1;
nodes = (
(178,0,l),
(362,620,l),
(314,620,l),
(507,0,l),
(698,0,l),
(461,694,l),
(240,694,l),
(-7,0,l)
);
},
{
closed = 1;
nodes = (
(504,143,l),
(468,299,l),
(221,299,l),
(186,143,l)
);
},
{
closed = 1;
nodes = (
(429,827,l),
(250,983,l),
(152,849,l),
(361,734,l)
);
}
);
};
layerId = "51C2DFEF-3776-4D13-9284-96485B799B57";
shapes = (
{
ref = A;
},
{
pos = (116,0);
ref = gravecomb.case;
}
);
width = 691;
}
);
unicode = 192;
},
{
glyphname = Ahookabove;
lastChange = "2023-04-14 09:29:06 +0000";
layers = (
{
background = {
anchors = (
{
name = bottom;
pos = (314,0);
},
{
name = ogonek;
pos = (597,10);
},
{
name = top;
pos = (314,962);
},
{
name = topleft;
pos = (104,694);
}
);
shapes = (
{
closed = 1;
nodes = (
(94,0,l),
(321,636,l),
(312,636,l),
(526,0,l),
(619,0,l),
(375,694,l),
(267,694,l),
(7,0,l)
);
},
{
closed = 1;
nodes = (
(485,206,l),
(485,278,l),
(138,278,l),
(138,206,l)
);
},
{
closed = 1;
nodes = (
(379,774,o),
(418,826,o),
(418,878,cs),
(418,929,o),
(381,962,o),
(321,962,cs),
(288,962,o),
(246,952,o),
(210,930,c),
(229,876,l),
(257,890,o),
(285,899,o),
(305,899,cs),
(332,899,o),
(351,883,o),
(351,859,cs),
(351,832,o),
(327,801,o),
(291,781,c),
(306,739,l)
);
}
);
};
layerId = "F333AEC5-BB61-4D5E-9EDD-6124322D28F2";
shapes = (
{
ref = A;
},
{
pos = (170,0);
ref = hookabovecomb.case;
}
);
width = 626;
},
{
background = {
anchors = (
{
name = bottom;
pos = (320,0);
},
{
name = ogonek;
pos = (582,10);
},
{
name = top;
pos = (323,953);
},
{
name = topleft;
pos = (154,694);
}
);
shapes = (
{
closed = 1;
nodes = (
(60,0,l),
(323,676,l),
(319,676,l),
(564,0,l),
(588,0,l),
(334,694,l),
(311,694,l),
(38,0,l)
);
},
{
closed = 1;
nodes = (
(487,249,l),
(481,268,l),
(152,268,l),
(147,249,l)
);
},
{
closed = 1;
nodes = (
(385,776,o),
(421,823,o),
(421,868,cs),
(421,911,o),
(387,943,o),
(336,943,cs),
(302,943,o),
(270,933,o),
(235,911,c),
(240,899,l),
(270,916,o),
(304,926,o),
(333,926,cs),
(373,926,o),
(401,899,o),
(401,863,cs),
(401,824,o),
(369,781,o),
(323,757,c),
(327,747,l)
);
}
);
};
layerId = "0B2E441B-685E-400D-9B9B-E078DEED62EF";
shapes = (
{
ref = A;
},
{
pos = (168,0);
ref = hookabovecomb.case;
}
);
width = 626;
},
{
background = {
anchors = (
{
name = bottom;
pos = (345,0);
},
{
name = ogonek;
pos = (651,10);
},
{
name = top;
pos = (345,1022);
},
{
name = topleft;
pos = (92,694);
}
);
shapes = (
{
closed = 1;
nodes = (
(178,0,l),
(362,620,l),
(314,620,l),
(507,0,l),
(698,0,l),
(461,694,l),
(240,694,l),
(-7,0,l)
);
},
{
closed = 1;
nodes = (
(504,143,l),
(468,299,l),
(221,299,l),
(186,143,l)
);
},
{
closed = 1;
nodes = (
(406,781,o),
(459,842,o),
(459,909,cs),
(459,973,o),
(409,1015,o),
(333,1015,cs),
(294,1015,o),
(251,1004,o),
(207,983,c),
(246,881,l),
(265,891,o),
(282,896,o),
(297,896,cs),
(317,896,o),
(330,886,o),
(330,871,cs),
(330,850,o),
(316,833,o),
(289,822,c),
(317,745,l)
);
}
);
};
layerId = "51C2DFEF-3776-4D13-9284-96485B799B57";
shapes = (
{
ref = A;
},
{
pos = (190,0);
ref = hookabovecomb.case;
}
);
width = 691;
}
);
unicode = 7842;
},
{
glyphname = Ainvertedbreve;
lastChange = "2023-04-14 09:29:06 +0000";
layers = (
{
background = {
anchors = (
{
name = bottom;
pos = (314,0);
},
{
name = ogonek;
pos = (597,10);
},
{
name = top;
pos = (314,908);
},
{
name = topleft;
pos = (104,694);
}
);
shapes = (
{
closed = 1;
nodes = (
(94,0,l),
(321,636,l),
(312,636,l),
(526,0,l),
(619,0,l),
(375,694,l),
(267,694,l),
(7,0,l)
);
},
{
closed = 1;
nodes = (
(485,206,l),
(485,278,l),
(138,278,l),
(138,206,l)
);
},
{
closed = 1;
nodes = (
(228,823,o),
(269,862,o),
(317,862,cs),
(366,862,o),
(405,820,o),
(412,758,c),
(476,795,l),
(463,874,o),
(403,927,o),
(330,927,cs),
(254,927,o),
(195,869,o),
(182,783,c),
(221,757,l)
);
}
);
};
layerId = "F333AEC5-BB61-4D5E-9EDD-6124322D28F2";
shapes = (
{
ref = A;
},
{
pos = (117,0);
ref = breveinvertedcomb.case;
}
);
width = 626;
},
{
background = {
anchors = (
{
name = bottom;
pos = (320,0);
},
{
name = ogonek;
pos = (582,10);
},
{
name = top;
pos = (323,872);
},
{
name = topleft;
pos = (154,694);
}
);
shapes = (
{
closed = 1;
nodes = (
(60,0,l),
(323,676,l),
(319,676,l),
(564,0,l),
(588,0,l),
(334,694,l),
(311,694,l),
(38,0,l)
);
},
{
closed = 1;
nodes = (
(487,249,l),
(481,268,l),
(152,268,l),
(147,249,l)
);
},
{
closed = 1;
nodes = (
(219,820,o),
(261,865,o),
(313,865,cs),
(367,865,o),
(409,821,o),
(417,756,c),
(434,762,l),
(425,835,o),
(378,883,o),
(320,883,cs),
(259,883,o),
(211,833,o),
(202,758,c),
(212,752,l)
);
}
);
};
layerId = "0B2E441B-685E-400D-9B9B-E078DEED62EF";
shapes = (
{
ref = A;
},
{
pos = (117,0);
ref = breveinvertedcomb.case;
}
);
width = 626;
},
{
background = {
anchors = (
{
name = bottom;
pos = (345,0);
},
{
name = ogonek;
pos = (651,10);
},
{
name = top;
pos = (345,932);
},
{
name = topleft;
pos = (92,694);
}
);
shapes = (
{
closed = 1;
nodes = (
(178,0,l),
(362,620,l),
(314,620,l),
(507,0,l),
(698,0,l),
(461,694,l),
(240,694,l),
(-7,0,l)
);
},
{
closed = 1;
nodes = (
(504,143,l),
(468,299,l),
(221,299,l),
(186,143,l)
);
},
{
closed = 1;
nodes = (
(244,801,o),
(281,839,o),
(329,839,cs),
(378,839,o),
(418,799,o),
(423,739,c),
(547,816,l),
(534,911,o),
(450,969,o),
(349,969,cs),
(249,969,o),
(176,901,o),
(159,794,c),
(240,738,l)
);
}
);
};
layerId = "51C2DFEF-3776-4D13-9284-96485B799B57";
shapes = (
{
ref = A;
},
{
pos = (114,0);
ref = breveinvertedcomb.case;
}
);
width = 691;
}
);
unicode = 514;
},
{
glyphname = Amacron;
lastChange = "2023-04-14 09:29:06 +0000";
layers = (
{
background = {
anchors = (
{
name = bottom;
pos = (314,0);
},
{
name = ogonek;
pos = (597,10);
},
{
name = top;
pos = (314,857);
},
{
name = topleft;
pos = (104,694);
}
);
shapes = (
{
closed = 1;
nodes = (
(94,0,l),
(321,636,l),
(312,636,l),
(526,0,l),
(619,0,l),
(375,694,l),
(267,694,l),
(7,0,l)
);
},
{
closed = 1;
nodes = (
(485,206,l),
(485,278,l),
(138,278,l),
(138,206,l)
);
},
{
closed = 1;
nodes = (
(473,788,l),
(473,854,l),
(160,854,l),
(160,788,l)
);
}
);
};
layerId = "F333AEC5-BB61-4D5E-9EDD-6124322D28F2";
shapes = (
{
ref = A;
},
{
pos = (72,0);
ref = macroncomb.case;
}
);
width = 626;
},
{
background = {
anchors = (
{
name = bottom;
pos = (320,0);
},
{
name = ogonek;
pos = (582,10);
},
{
name = top;
pos = (323,822);
},
{
name = topleft;
pos = (154,694);
}
);
shapes = (
{
closed = 1;
nodes = (
(60,0,l),
(323,676,l),
(319,676,l),
(564,0,l),
(588,0,l),
(334,694,l),
(311,694,l),
(38,0,l)
);
},
{
closed = 1;
nodes = (
(487,249,l),
(481,268,l),
(152,268,l),
(147,249,l)
);
},
{
closed = 1;
nodes = (
(468,794,l),
(468,809,l),
(187,809,l),
(187,794,l)
);
}
);
};
layerId = "0B2E441B-685E-400D-9B9B-E078DEED62EF";
shapes = (
{
ref = A;
},
{
pos = (85,0);
ref = macroncomb.case;
}
);
width = 626;
},
{
background = {
anchors = (
{
name = bottom;
pos = (345,0);
},
{
name = ogonek;
pos = (651,10);
},
{
name = top;
pos = (345,902);
},
{
name = topleft;
pos = (92,694);
}
);
shapes = (
{
closed = 1;
nodes = (
(178,0,l),
(362,620,l),
(314,620,l),
(507,0,l),
(698,0,l),
(461,694,l),
(240,694,l),
(-7,0,l)
);
},
{
closed = 1;
nodes = (
(504,143,l),
(468,299,l),
(221,299,l),
(186,143,l)
);
},
{
closed = 1;
nodes = (
(528,769,l),
(528,905,l),
(168,905,l),
(168,769,l)
);
}
);
};
layerId = "51C2DFEF-3776-4D13-9284-96485B799B57";
shapes = (
{
ref = A;
},
{
pos = (106,0);
ref = macroncomb.case;
}
);
width = 691;
}
);
unicode = 256;
},
{
glyphname = Aogonek;
lastChange = "2023-04-14 09:29:06 +0000";
layers = (
{
background = {
anchors = (
{
name = bottom;
pos = (314,0);
},
{
name = ogonek;
pos = (597,10);
},
{
name = top;
pos = (314,694);
},
{
name = topleft;
pos = (104,694);
}
);
shapes = (
{
closed = 1;
nodes = (
(94,0,l),
(321,636,l),
(312,636,l),
(526,0,l),
(619,0,l),
(375,694,l),
(267,694,l),
(7,0,l)
);
},
{
closed = 1;
nodes = (
(485,206,l),
(485,278,l),
(138,278,l),
(138,206,l)
);
},
{
closed = 1;
nodes = (
(566,-252,o),
(591,-245,o),
(615,-231,c),
(609,-179,l),
(594,-185,o),
(574,-190,o),
(558,-190,cs),
(524,-190,o),
(501,-168,o),
(501,-136,cs),
(501,-90,o),
(548,-36,o),
(619,0,c),
(579,22,l),
(478,-15,o),
(418,-79,o),
(418,-150,cs),
(418,-212,o),
(464,-252,o),
(537,-252,cs)
);
}
);
};
layerId = "F333AEC5-BB61-4D5E-9EDD-6124322D28F2";
shapes = (
{
ref = A;
},
{
pos = (165,0);
ref = ogonekcomb;
}
);
width = 626;
},
{
background = {
anchors = (
{
name = bottom;
pos = (320,0);
},
{
name = ogonek;
pos = (582,10);
},
{
name = top;
pos = (323,694);
},
{
name = topleft;
pos = (154,694);
}
);
shapes = (
{
closed = 1;
nodes = (
(60,0,l),
(323,676,l),
(319,676,l),
(564,0,l),
(588,0,l),
(334,694,l),
(311,694,l),
(38,0,l)
);
},
{
closed = 1;
nodes = (
(487,249,l),
(481,268,l),
(152,268,l),
(147,249,l)
);
},
{
closed = 1;
nodes = (
(553,-243,o),
(577,-238,o),
(594,-230,c),
(591,-215,l),
(573,-222,o),
(555,-226,o),
(537,-226,cs),
(488,-226,o),
(455,-195,o),
(455,-148,cs),
(455,-92,o),
(504,-38,o),
(588,0,c),
(579,11,l),
(489,-28,o),
(434,-89,o),
(434,-152,cs),
(434,-207,o),
(473,-243,o),
(531,-243,cs)
);
}
);
};
layerId = "0B2E441B-685E-400D-9B9B-E078DEED62EF";
shapes = (
{
ref = A;
},
{
pos = (181,0);
ref = ogonekcomb;
}
);
width = 626;
},
{
background = {
anchors = (
{
name = bottom;
pos = (345,0);
},
{
name = ogonek;
pos = (651,10);
},
{
name = top;
pos = (345,694);
},
{
name = topleft;
pos = (92,694);
}
);
shapes = (
{
closed = 1;
nodes = (
(178,0,l),
(362,620,l),
(314,620,l),
(507,0,l),
(698,0,l),
(461,694,l),
(240,694,l),
(-7,0,l)
);
},
{
closed = 1;
nodes = (
(504,143,l),
(468,299,l),
(221,299,l),
(186,143,l)
);
},
{
closed = 1;
nodes = (
(628,-256,o),
(665,-246,o),
(692,-231,c),
(679,-141,l),
(665,-148,o),
(647,-151,o),
(639,-151,cs),
(614,-151,o),
(598,-130,o),
(598,-105,cs),
(598,-61,o),
(636,-21,o),
(698,0,c),
(631,20,l),
(519,3,o),
(448,-59,o),
(448,-140,cs),
(448,-209,o),
(500,-256,o),
(588,-256,cs)
);
}
);
};
layerId = "51C2DFEF-3776-4D13-9284-96485B799B57";
shapes = (
{
ref = A;
},
{
pos = (191,0);
ref = ogonekcomb;
}
);
width = 691;
}
);
unicode = 260;
},
{
glyphname = Aring;
lastChange = "2023-04-14 09:29:06 +0000";
layers = (
{
background = {
anchors = (
{
name = bottom;
pos = (314,0);
},
{
name = ogonek;
pos = (597,10);
},
{
name = top;
pos = (314,950);
},
{
name = topleft;
pos = (104,694);
}
);
shapes = (
{
closed = 1;
nodes = (
(94,0,l),
(321,636,l),
(312,636,l),
(526,0,l),
(619,0,l),
(375,694,l),
(267,694,l),
(7,0,l)
);
},
{
closed = 1;
nodes = (
(485,206,l),
(485,278,l),
(138,278,l),
(138,206,l)
);
},
{
closed = 1;
nodes = (
(376,742,o),
(418,784,o),
(418,848,cs),
(418,909,o),
(377,950,o),
(316,950,cs),
(252,950,o),
(210,908,o),
(210,844,cs),
(210,783,o),
(251,742,o),
(312,742,cs)
);
},
{
closed = 1;
nodes = (
(287,800,o),
(268,819,o),
(268,848,cs),
(268,874,o),
(286,892,o),
(312,892,cs),
(341,892,o),
(360,873,o),
(360,844,cs),
(360,818,o),
(342,800,o),
(316,800,cs)
);
}
);
};
layerId = "F333AEC5-BB61-4D5E-9EDD-6124322D28F2";
shapes = (
{
ref = A;
},
{
pos = (141,0);
ref = ringcomb.case;
}
);
width = 626;
},
{
background = {
anchors = (
{
name = bottom;
pos = (320,0);
},
{
name = ogonek;
pos = (582,10);
},
{
name = top;
pos = (323,921);
},
{
name = topleft;
pos = (154,694);
}
);
shapes = (
{
closed = 1;
nodes = (
(60,0,l),
(323,676,l),
(319,676,l),
(564,0,l),
(588,0,l),
(334,694,l),
(311,694,l),
(38,0,l)
);
},
{
closed = 1;
nodes = (
(487,249,l),
(481,268,l),
(152,268,l),
(147,249,l)
);
},
{
closed = 1;
nodes = (
(373,739,o),
(408,773,o),
(408,824,cs),
(408,876,o),
(374,911,o),
(323,911,cs),
(271,911,o),
(237,876,o),
(237,823,cs),
(237,773,o),
(271,739,o),
(321,739,cs)
);
},
{
closed = 1;
nodes = (
(280,754,o),
(252,782,o),
(252,825,cs),
(252,868,o),
(280,896,o),
(321,896,cs),
(364,896,o),
(393,867,o),
(393,823,cs),
(393,782,o),
(365,754,o),
(323,754,cs)
);
}
);
};
layerId = "0B2E441B-685E-400D-9B9B-E078DEED62EF";
shapes = (
{
ref = A;
},
{
pos = (149,0);
ref = ringcomb.case;
}
);
width = 626;
},
{
background = {
anchors = (
{
name = bottom;
pos = (345,0);
},
{
name = ogonek;
pos = (651,10);
},
{
name = top;
pos = (345,985);
},
{
name = topleft;
pos = (92,694);
}
);
shapes = (
{
closed = 1;
nodes = (
(178,0,l),
(362,620,l),
(314,620,l),
(507,0,l),
(698,0,l),
(461,694,l),
(240,694,l),
(-7,0,l)
);
},
{
closed = 1;
nodes = (
(504,143,l),
(468,299,l),
(221,299,l),
(186,143,l)
);
},
{
closed = 1;
nodes = (
(424,739,o),
(476,792,o),
(476,872,cs),
(476,948,o),
(424,998,o),
(347,998,cs),
(268,998,o),
(216,947,o),
(216,870,cs),
(216,791,o),
(268,739,o),
(345,739,cs)
);
},
{
closed = 1;
nodes = (
(321,825,o),
(303,844,o),
(303,872,cs),
(303,896,o),
(320,912,o),
(345,912,cs),
(371,912,o),
(389,895,o),
(389,870,cs),
(389,843,o),
(372,825,o),
(347,825,cs)
);
}
);
};
layerId = "51C2DFEF-3776-4D13-9284-96485B799B57";
shapes = (
{
ref = A;
},
{
pos = (179,0);
ref = ringcomb.case;
}
);
width = 691;
}
);
unicode = 197;
},
{
glyphname = Aringacute;
lastChange = "2023-04-14 09:29:06 +0000";
layers = (
{
background = {
anchors = (
{
name = bottom;
pos = (314,0);
},
{
name = ogonek;
pos = (597,10);
},
{
name = top;
pos = (314,694);
},
{
name = topleft;
pos = (104,694);
}
);
shapes = (
{
closed = 1;
nodes = (
(94,0,l),
(321,636,l),
(312,636,l),
(526,0,l),
(619,0,l),
(375,694,l),
(267,694,l),
(7,0,l)
);
},
{
closed = 1;
nodes = (
(485,206,l),
(485,278,l),
(138,278,l),
(138,206,l)
);
},
{
closed = 1;
nodes = (
(554,929,l),
(515,1001,l),
(349,897,l),
(373,851,l)
);
},
{
closed = 1;
nodes = (
(376,742,o),
(418,784,o),
(418,848,cs),
(418,909,o),
(377,950,o),
(316,950,cs),
(252,950,o),
(210,908,o),
(210,844,cs),
(210,783,o),
(251,742,o),
(312,742,cs)
);
},
{
closed = 1;
nodes = (
(287,800,o),
(268,819,o),
(268,848,cs),
(268,874,o),
(286,892,o),
(312,892,cs),
(341,892,o),
(360,873,o),
(360,844,cs),
(360,818,o),
(342,800,o),
(316,800,cs)
);
}
);
};
layerId = "F333AEC5-BB61-4D5E-9EDD-6124322D28F2";
shapes = (
{
ref = A;
},
{
pos = (154,0);
ref = ringcomb_acutecomb.case;
}
);
width = 626;
},
{
background = {
anchors = (
{
name = bottom;
pos = (320,0);
},
{
name = ogonek;
pos = (582,10);
},
{
name = top;
pos = (323,694);
},
{
name = topleft;
pos = (154,694);
}
);
shapes = (
{
closed = 1;
nodes = (
(60,0,l),
(323,676,l),
(319,676,l),
(564,0,l),
(588,0,l),
(334,694,l),
(311,694,l),
(38,0,l)
);
},
{
closed = 1;
nodes = (
(487,249,l),
(481,268,l),
(152,268,l),
(147,249,l)
);
},
{
closed = 1;
nodes = (
(546,963,l),
(534,982,l),
(387,887,l),
(392,880,l)
);
},
{
closed = 1;
nodes = (
(374,739,o),
(409,773,o),
(409,824,cs),
(409,876,o),
(375,911,o),
(324,911,cs),
(272,911,o),
(238,876,o),
(238,823,cs),
(238,773,o),
(272,739,o),
(322,739,cs)
);
},
{
closed = 1;
nodes = (
(281,754,o),
(253,782,o),
(253,825,cs),
(253,868,o),
(281,896,o),
(322,896,cs),
(365,896,o),
(394,867,o),
(394,823,cs),
(394,782,o),
(366,754,o),
(324,754,cs)
);
}
);
};
layerId = "0B2E441B-685E-400D-9B9B-E078DEED62EF";
shapes = (
{
ref = A;
},
{
pos = (164,0);
ref = ringcomb_acutecomb.case;
}
);
width = 626;
},
{
background = {
anchors = (
{
name = bottom;
pos = (345,0);
},
{
name = ogonek;
pos = (651,10);
},
{
name = top;
pos = (345,694);
},
{
name = topleft;
pos = (92,694);
}
);
shapes = (
{
closed = 1;
nodes = (
(178,0,l),
(362,620,l),
(314,620,l),
(507,0,l),
(698,0,l),
(461,694,l),
(240,694,l),
(-7,0,l)
);
},
{
closed = 1;
nodes = (
(504,143,l),
(468,299,l),
(221,299,l),
(186,143,l)
);
},
{
closed = 1;
nodes = (
(631,910,l),
(558,1059,l),
(355,936,l),
(405,833,l)
);
},
{
closed = 1;
nodes = (
(417,739,o),
(469,792,o),
(469,872,cs),
(469,948,o),
(417,998,o),
(340,998,cs),
(261,998,o),
(209,947,o),
(209,870,cs),
(209,791,o),
(261,739,o),
(338,739,cs)
);
},
{
closed = 1;
nodes = (
(314,825,o),
(296,844,o),
(296,872,cs),
(296,896,o),
(313,912,o),
(338,912,cs),
(364,912,o),
(382,895,o),
(382,870,cs),
(382,843,o),
(365,825,o),
(340,825,cs)
);
}
);
};
layerId = "51C2DFEF-3776-4D13-9284-96485B799B57";
shapes = (
{
ref = A;
},
{
pos = (184,0);
ref = ringcomb_acutecomb.case;
}
);
width = 691;
}
);
unicode = 506;
},
{
glyphname = Atilde;
lastChange = "2023-04-14 09:29:06 +0000";
layers = (
{
background = {
anchors = (
{
name = bottom;
pos = (314,0);
},
{
name = ogonek;
pos = (597,10);
},
{
name = top;
pos = (315,876);
},
{
name = topleft;
pos = (104,694);
}
);
shapes = (
{
closed = 1;
nodes = (
(94,0,l),
(321,636,l),
(312,636,l),
(526,0,l),
(619,0,l),
(375,694,l),
(267,694,l),
(7,0,l)
);
},
{
closed = 1;
nodes = (
(485,206,l),
(485,278,l),
(138,278,l),
(138,206,l)
);
},
{
closed = 1;
nodes = (
(198,794,o),
(219,815,o),
(245,815,cs),
(286,815,o),
(303,764,o),
(370,764,cs),
(427,764,o),
(472,800,o),
(486,869,c),
(433,883,l),
(422,848,o),
(400,828,o),
(373,828,cs),
(329,828,o),
(309,881,o),
(248,881,cs),
(200,881,o),
(155,848,o),
(135,776,c),
(188,762,l)
);
}
);
};
layerId = "F333AEC5-BB61-4D5E-9EDD-6124322D28F2";
shapes = (
{
ref = A;
},
{
pos = (74,0);
ref = tildecomb.case;
}
);
width = 626;
},
{
background = {
anchors = (
{
name = bottom;
pos = (320,0);
},
{
name = ogonek;
pos = (582,10);
},
{
name = top;
pos = (323,836);
},
{
name = topleft;
pos = (154,694);
}
);
shapes = (
{
closed = 1;
nodes = (
(60,0,l),
(323,676,l),
(319,676,l),
(564,0,l),
(588,0,l),
(334,694,l),
(311,694,l),
(38,0,l)
);
},
{
closed = 1;
nodes = (
(487,249,l),
(481,268,l),
(152,268,l),
(147,249,l)
);
},
{
closed = 1;
nodes = (
(189,819,o),
(224,830,o),
(248,830,cs),
(302,830,o),
(316,772,o),
(381,772,cs),
(423,772,o),
(459,802,o),
(476,849,c),
(467,851,l),
(451,812,o),
(421,788,o),
(388,788,cs),
(328,788,o),
(313,846,o),
(253,846,cs),
(220,846,o),
(179,827,o),
(157,777,c),
(165,774,l)
);
}
);
};
layerId = "0B2E441B-685E-400D-9B9B-E078DEED62EF";
shapes = (
{
ref = A;
},
{
pos = (79,0);
ref = tildecomb.case;
}
);
width = 626;
},
{
background = {
anchors = (
{
name = bottom;
pos = (345,0);
},
{
name = ogonek;
pos = (651,10);
},
{
name = top;
pos = (345,939);
},
{
name = topleft;
pos = (92,694);
}
);
shapes = (
{
closed = 1;
nodes = (
(178,0,l),
(362,620,l),
(314,620,l),
(507,0,l),
(698,0,l),
(461,694,l),
(240,694,l),
(-7,0,l)
);
},
{
closed = 1;
nodes = (
(504,143,l),
(468,299,l),
(221,299,l),
(186,143,l)
);
},
{
closed = 1;
nodes = (
(266,780,o),
(283,796,o),
(298,796,cs),
(328,796,o),
(353,756,o),
(411,756,cs),
(486,756,o),
(544,814,o),
(555,905,c),
(450,932,l),
(441,902,o),
(425,888,o),
(407,888,cs),
(379,888,o),
(339,930,o),
(287,930,cs),
(218,930,o),
(164,868,o),
(151,774,c),
(257,749,l)
);
}
);
};
layerId = "51C2DFEF-3776-4D13-9284-96485B799B57";
shapes = (
{
ref = A;
},
{
pos = (116,0);
ref = tildecomb.case;
}
);
width = 691;
}
);
unicode = 195;
},
{
glyphname = AE;
lastChange = "2023-04-14 09:29:02 +0000";
layers = (
{
anchors = (
{
name = bottom;
pos = (476,0);
},
{
name = top;
pos = (476,694);
}
);
background = {
anchors = (
{
name = bottom;
pos = (476,0);
},
{
name = top;
pos = (476,694);
}
);
shapes = (
{
closed = 1;
nodes = (
(72,0,l),
(486,694,l),
(403,694,l),
(-20,0,l)
);
},
{
closed = 1;
nodes = (
(476,202,l),
(476,282,l),
(200,282,l),
(200,202,l)
);
},
{
closed = 1;
nodes = (
(863,0,l),
(863,72,l),
(510,72,l),
(510,323,l),
(836,323,l),
(836,395,l),
(510,395,l),
(510,622,l),
(863,622,l),
(863,694,l),
(427,694,l),
(427,0,l)
);
}
);
};
layerId = "F333AEC5-BB61-4D5E-9EDD-6124322D28F2";
shapes = (
{
closed = 1;
nodes = (
(72,0,l),
(486,694,l),
(403,694,l),
(-20,0,l)
);
},
{
closed = 1;
nodes = (
(476,202,l),
(476,282,l),
(200,282,l),
(200,202,l)
);
},
{
closed = 1;
nodes = (
(863,0,l),
(863,72,l),
(510,72,l),
(510,323,l),
(836,323,l),
(836,395,l),
(510,395,l),
(510,622,l),
(863,622,l),
(863,694,l),
(427,694,l),
(427,0,l)
);
}
);
userData = {
com.schriftgestaltung.Glyphs.glyph.rightMetricsKey = E;
};
width = 919;
},
{
anchors = (
{
name = bottom;
pos = (449,0);
},
{
name = top;
pos = (449,694);
}
);
background = {
anchors = (
{
name = bottom;
pos = (449,0);
},
{
name = top;
pos = (449,694);
}
);
shapes = (
{
closed = 1;
nodes = (
(23,0,l),
(442,694,l),
(423,694,l),
(0,0,l)
);
},
{
closed = 1;
nodes = (
(437,243,l),
(438,262,l),
(168,262,l),
(159,243,l)
);
},
{
closed = 1;
nodes = (
(814,0,l),
(814,18,l),
(448,18,l),
(448,351,l),
(789,351,l),
(789,369,l),
(448,369,l),
(448,676,l),
(814,676,l),
(814,694,l),
(427,694,l),
(427,0,l)
);
}
);
};
layerId = "0B2E441B-685E-400D-9B9B-E078DEED62EF";
shapes = (
{
closed = 1;
nodes = (
(23,0,l),
(442,694,l),
(423,694,l),
(0,0,l)
);
},
{
closed = 1;
nodes = (
(437,243,l),
(438,262,l),
(168,262,l),
(159,243,l)
);
},
{
closed = 1;
nodes = (
(814,0,l),
(814,18,l),
(448,18,l),
(448,351,l),
(789,351,l),
(789,369,l),
(448,369,l),
(448,676,l),
(814,676,l),
(814,694,l),
(427,694,l),
(427,0,l)
);
}
);
userData = {
com.schriftgestaltung.Glyphs.glyph.rightMetricsKey = E;
};
width = 876;
},
{
anchors = (
{
name = bottom;
pos = (542,0);
},
{
name = top;
pos = (542,694);
}
);
background = {
anchors = (
{
name = bottom;
pos = (542,0);
},
{
name = top;
pos = (542,694);
}
);
shapes = (
{
closed = 1;
nodes = (
(180,0,l),
(570,694,l),
(407,694,l),
(-10,0,l)
);
},
{
closed = 1;
nodes = (
(514,149,l),
(514,305,l),
(196,305,l),
(196,149,l)
);
},
{
closed = 1;
nodes = (
(972,0,l),
(972,152,l),
(647,152,l),
(647,278,l),
(944,278,l),
(944,430,l),
(647,430,l),
(647,542,l),
(972,542,l),
(972,694,l),
(474,694,l),
(474,0,l)
);
}
);
};
layerId = "51C2DFEF-3776-4D13-9284-96485B799B57";
shapes = (
{
closed = 1;
nodes = (
(180,0,l),
(570,694,l),
(407,694,l),
(-10,0,l)
);
},
{
closed = 1;
nodes = (
(514,149,l),
(514,305,l),
(196,305,l),
(196,149,l)
);
},
{
closed = 1;
nodes = (
(972,0,l),
(972,152,l),
(647,152,l),
(647,278,l),
(944,278,l),
(944,430,l),
(647,430,l),
(647,542,l),
(972,542,l),
(972,694,l),
(474,694,l),
(474,0,l)
);
}
);
userData = {
com.schriftgestaltung.Glyphs.glyph.rightMetricsKey = E;
};
width = 1022;
}
);
unicode = 198;
},
{
glyphname = AEacute;
lastChange = "2023-04-14 09:29:06 +0000";
layers = (
{
background = {
anchors = (
{
name = bottom;
pos = (476,0);
},
{
name = top;
pos = (427,801);
}
);
shapes = (
{
closed = 1;
nodes = (
(72,0,l),
(486,694,l),
(403,694,l),
(-20,0,l)
);
},
{
closed = 1;
nodes = (
(476,202,l),
(476,282,l),
(200,282,l),
(200,202,l)
);
},
{
closed = 1;
nodes = (
(863,0,l),
(863,72,l),
(510,72,l),
(510,323,l),
(836,323,l),
(836,395,l),
(510,395,l),
(510,622,l),
(863,622,l),
(863,694,l),
(427,694,l),
(427,0,l)
);
},
{
closed = 1;
nodes = (
(624,853,l),
(574,917,l),
(428,786,l),
(460,744,l)
);
}
);
};
layerId = "F333AEC5-BB61-4D5E-9EDD-6124322D28F2";
shapes = (
{
ref = AE;
},
{
pos = (388,0);
ref = acutecomb.case;
}
);
width = 919;
},
{
background = {
anchors = (
{
name = bottom;
pos = (449,0);
},
{
name = top;
pos = (444,764);
}
);
shapes = (
{
closed = 1;
nodes = (
(23,0,l),
(442,694,l),
(423,694,l),
(0,0,l)
);
},
{
closed = 1;
nodes = (
(437,243,l),
(438,262,l),
(168,262,l),
(159,243,l)
);
},
{
closed = 1;
nodes = (
(814,0,l),
(814,18,l),
(448,18,l),
(448,351,l),
(789,351,l),
(789,369,l),
(448,369,l),
(448,676,l),
(814,676,l),
(814,694,l),
(427,694,l),
(427,0,l)
);
},
{
closed = 1;
nodes = (
(587,866,l),
(572,883,l),
(444,764,l),
(450,758,l)
);
}
);
};
layerId = "0B2E441B-685E-400D-9B9B-E078DEED62EF";
shapes = (
{
ref = AE;
},
{
pos = (391,0);
ref = acutecomb.case;
}
);
width = 876;
},
{
background = {
anchors = (
{
name = bottom;
pos = (542,0);
},
{
name = top;
pos = (445,839);
}
);
shapes = (
{
closed = 1;
nodes = (
(180,0,l),
(570,694,l),
(407,694,l),
(-10,0,l)
);
},
{
closed = 1;
nodes = (
(514,149,l),
(514,305,l),
(196,305,l),
(196,149,l)
);
},
{
closed = 1;
nodes = (
(972,0,l),
(972,152,l),
(647,152,l),
(647,278,l),
(944,278,l),
(944,430,l),
(647,430,l),
(647,542,l),
(972,542,l),
(972,694,l),
(474,694,l),
(474,0,l)
);
},
{
closed = 1;
nodes = (
(735,849,l),
(637,983,l),
(458,827,l),
(526,734,l)
);
}
);
};
layerId = "51C2DFEF-3776-4D13-9284-96485B799B57";
shapes = (
{
ref = AE;
},
{
pos = (463,0);
ref = acutecomb.case;
}
);
width = 1022;
}
);
unicode = 508;
},
{
glyphname = B;
lastChange = "2023-04-14 09:29:02 +0000";
layers = (
{
anchors = (
{
name = bottom;
pos = (314,0);
},
{
name = top;
pos = (314,694);
}
);
background = {
anchors = (
{
name = bottom;
pos = (314,0);
},
{
name = top;
pos = (314,694);
}
);
shapes = (
{
closed = 1;
nodes = (
(334,0,ls),
(494,0,o),
(588,75,o),
(588,202,cs),
(588,319,o),
(500,396,o),
(367,396,cs),
(141,396,l),
(141,327,l),
(358,327,ls),
(446,327,o),
(503,271,o),
(503,185,cs),
(503,105,o),
(455,71,o),
(344,71,cs),
(175,71,l),
(175,623,l),
(293,623,ls),
(399,623,o),
(451,584,o),
(451,505,cs),
(451,444,o),
(417,409,o),
(325,375,c),
(445,375,l),
(500,399,o),
(536,460,o),
(536,527,cs),
(536,633,o),
(451,694,o),
(303,694,cs),
(92,694,l),
(92,0,l)
);
}
);
};
layerId = "F333AEC5-BB61-4D5E-9EDD-6124322D28F2";
shapes = (
{
closed = 1;
nodes = (
(334,0,ls),
(494,0,o),
(588,75,o),
(588,202,cs),
(588,319,o),
(500,396,o),
(367,396,cs),
(141,396,l),
(141,327,l),
(358,327,ls),
(446,327,o),
(503,271,o),
(503,185,cs),
(503,105,o),
(455,71,o),
(344,71,cs),
(175,71,l),
(175,623,l),
(293,623,ls),
(399,623,o),
(451,584,o),
(451,505,cs),
(451,444,o),
(417,409,o),
(325,375,c),
(445,375,l),
(500,399,o),
(536,460,o),
(536,527,cs),
(536,633,o),
(451,694,o),
(303,694,cs),
(92,694,l),
(92,0,l)
);
}
);
userData = {
com.schriftgestaltung.Glyphs.glyph.leftMetricsKey = I;
};
width = 630;
},
{
anchors = (
{
name = bottom;
pos = (280,0);
},
{
name = top;
pos = (280,694);
}
);
background = {
anchors = (
{
name = bottom;
pos = (280,0);
},
{
name = top;
pos = (280,694);
}
);
shapes = (
{
closed = 1;
nodes = (
(332,0,ls),
(486,0,o),
(570,68,o),
(570,185,cs),
(570,300,o),
(488,373,o),
(366,373,cs),
(137,373,l),
(137,356,l),
(356,356,ls),
(475,356,o),
(548,288,o),
(548,181,cs),
(548,75,o),
(477,18,o),
(343,18,cs),
(143,18,l),
(143,676,l),
(299,676,ls),
(427,676,o),
(497,622,o),
(497,521,cs),
(497,442,o),
(454,388,o),
(370,369,c),
(396,365,l),
(470,379,o),
(519,444,o),
(519,528,cs),
(519,635,o),
(440,694,o),
(299,694,cs),
(123,694,l),
(123,0,l)
);
}
);
};
layerId = "0B2E441B-685E-400D-9B9B-E078DEED62EF";
shapes = (
{
closed = 1;
nodes = (
(332,0,ls),
(486,0,o),
(570,68,o),
(570,185,cs),
(570,300,o),
(488,373,o),
(366,373,cs),
(137,373,l),
(137,356,l),
(356,356,ls),
(475,356,o),
(548,288,o),
(548,181,cs),
(548,75,o),
(477,18,o),
(343,18,cs),
(143,18,l),
(143,676,l),
(299,676,ls),
(427,676,o),
(497,622,o),
(497,521,cs),
(497,442,o),
(454,388,o),
(370,369,c),
(396,365,l),
(470,379,o),
(519,444,o),
(519,528,cs),
(519,635,o),
(440,694,o),
(299,694,cs),
(123,694,l),
(123,0,l)
);
}
);
userData = {
com.schriftgestaltung.Glyphs.glyph.leftMetricsKey = I;
};
width = 633;
},
{
anchors = (
{
name = bottom;
pos = (322,0);
},
{
name = top;
pos = (322,694);
}
);
background = {
anchors = (
{
name = bottom;
pos = (322,0);
},
{
name = top;
pos = (322,694);
}
);
shapes = (
{
closed = 1;
nodes = (
(347,0,ls),
(522,0,o),
(638,91,o),
(638,227,cs),
(638,350,o),
(549,424,o),
(398,424,cs),
(184,424,l),
(184,292,l),
(360,292,ls),
(422,292,o),
(458,260,o),
(458,210,cs),
(458,161,o),
(428,136,o),
(370,136,cs),
(241,136,l),
(241,558,l),
(309,558,ls),
(367,558,o),
(405,530,o),
(405,488,cs),
(405,450,o),
(374,418,o),
(318,401,c),
(452,374,l),
(529,394,o),
(579,457,o),
(579,531,cs),
(579,638,o),
(490,694,o),
(319,694,cs),
(71,694,l),
(71,0,l)
);
}
);
};
layerId = "51C2DFEF-3776-4D13-9284-96485B799B57";
shapes = (
{
closed = 1;
nodes = (
(347,0,ls),
(522,0,o),
(638,91,o),
(638,227,cs),
(638,350,o),
(549,424,o),
(398,424,cs),
(184,424,l),
(184,292,l),
(360,292,ls),
(422,292,o),
(458,260,o),
(458,210,cs),
(458,161,o),
(428,136,o),
(370,136,cs),
(241,136,l),
(241,558,l),
(309,558,ls),
(367,558,o),
(405,530,o),
(405,488,cs),
(405,450,o),
(374,418,o),
(318,401,c),
(452,374,l),
(529,394,o),
(579,457,o),
(579,531,cs),
(579,638,o),
(490,694,o),
(319,694,cs),
(71,694,l),
(71,0,l)
);
}
);
userData = {
com.schriftgestaltung.Glyphs.glyph.leftMetricsKey = I;
};
width = 670;
}
);
unicode = 66;
},
{
glyphname = C;
lastChange = "2023-04-14 09:29:02 +0000";
layers = (
{
anchors = (
{
name = bottom;
pos = (367,0);
},
{
name = bottomright;
pos = (380,0);
},
{
name = top;
pos = (367,694);
}
);
background = {
anchors = (
{
name = bottom;
pos = (367,0);
},
{
name = bottomright;
pos = (380,0);
},
{
name = top;
pos = (367,694);
}
);
shapes = (
{
closed = 1;
nodes = (
(463,-10,o),
(533,5,o),
(599,34,c),
(580,95,l),
(530,75,o),
(468,63,o),
(415,63,cs),
(249,63,o),
(139,181,o),
(139,358,cs),
(139,527,o),
(240,630,o),
(407,630,cs),
(463,630,o),
(526,618,o),
(579,598,c),
(603,660,l),
(552,687,o),
(480,703,o),
(412,703,cs),
(197,703,o),
(54,557,o),
(54,339,cs),
(54,130,o),
(191,-10,o),
(396,-10,cs)
);
}
);
};
layerId = "F333AEC5-BB61-4D5E-9EDD-6124322D28F2";
shapes = (
{
closed = 1;
nodes = (
(463,-10,o),
(533,5,o),
(599,34,c),
(580,95,l),
(530,75,o),
(468,63,o),
(415,63,cs),
(249,63,o),
(139,181,o),
(139,358,cs),
(139,527,o),
(240,630,o),
(407,630,cs),
(463,630,o),
(526,618,o),
(579,598,c),
(603,660,l),
(552,687,o),
(480,703,o),
(412,703,cs),
(197,703,o),
(54,557,o),
(54,339,cs),
(54,130,o),
(191,-10,o),
(396,-10,cs)
);
}
);
userData = {
com.schriftgestaltung.Glyphs.glyph.leftMetricsKey = O;
};
width = 645;
},
{
anchors = (
{
name = bottom;
pos = (361,0);
},
{
name = bottomright;
pos = (371,0);
},
{
name = top;
pos = (361,694);
}
);
background = {
anchors = (
{
name = bottom;
pos = (361,0);
},
{
name = bottomright;
pos = (371,0);
},
{
name = top;
pos = (361,694);
}
);
shapes = (
{
closed = 1;
nodes = (
(463,-10,o),
(537,6,o),
(598,33,c),
(593,49,l),
(533,24,o),
(461,9,o),
(401,9,cs),
(218,9,o),
(94,145,o),
(94,348,cs),
(94,549,o),
(221,683,o),
(411,683,cs),
(471,683,o),
(534,670,o),
(592,645,c),
(599,662,l),
(541,689,o),
(478,702,o),
(414,702,cs),
(209,702,o),
(72,556,o),
(72,338,cs),
(72,129,o),
(203,-10,o),
(397,-10,cs)
);
}
);
};
layerId = "0B2E441B-685E-400D-9B9B-E078DEED62EF";
shapes = (
{
closed = 1;
nodes = (
(463,-10,o),
(537,6,o),
(598,33,c),
(593,49,l),
(533,24,o),
(461,9,o),
(401,9,cs),
(218,9,o),
(94,145,o),
(94,348,cs),
(94,549,o),
(221,683,o),
(411,683,cs),
(471,683,o),
(534,670,o),
(592,645,c),
(599,662,l),
(541,689,o),
(478,702,o),
(414,702,cs),
(209,702,o),
(72,556,o),
(72,338,cs),
(72,129,o),
(203,-10,o),
(397,-10,cs)
);
}
);
userData = {
com.schriftgestaltung.Glyphs.glyph.leftMetricsKey = O;
};
width = 655;
},
{
anchors = (
{
name = bottom;
pos = (360,0);
},
{
name = bottomright;
pos = (342,0);
},
{
name = top;
pos = (360,694);
}
);
background = {
anchors = (
{
name = bottom;
pos = (360,0);
},
{
name = bottomright;
pos = (342,0);
},
{
name = top;
pos = (360,694);
}
);
shapes = (
{
closed = 1;
nodes = (
(469,-10,o),
(555,10,o),
(608,39,c),
(570,164,l),
(530,150,o),
(479,142,o),
(436,142,cs),
(297,142,o),
(217,224,o),
(217,359,cs),
(217,486,o),
(288,551,o),
(414,551,cs),
(468,551,o),
(531,541,o),
(569,525,c),
(617,661,l),
(550,690,o),
(485,704,o),
(416,704,cs),
(193,704,o),
(37,560,o),
(37,342,cs),
(37,131,o),
(183,-10,o),
(394,-10,cs)
);
}
);
};
layerId = "51C2DFEF-3776-4D13-9284-96485B799B57";
shapes = (
{
closed = 1;
nodes = (
(469,-10,o),
(555,10,o),
(608,39,c),
(570,164,l),
(530,150,o),
(479,142,o),
(436,142,cs),
(297,142,o),
(217,224,o),
(217,359,cs),
(217,486,o),
(288,551,o),
(414,551,cs),
(468,551,o),
(531,541,o),
(569,525,c),
(617,661,l),
(550,690,o),
(485,704,o),
(416,704,cs),
(193,704,o),
(37,560,o),
(37,342,cs),
(37,131,o),
(183,-10,o),
(394,-10,cs)
);
}
);
userData = {
com.schriftgestaltung.Glyphs.glyph.leftMetricsKey = O;
};
width = 636;
}
);
unicode = 67;
},
{
glyphname = Cacute;
lastChange = "2023-04-14 09:29:06 +0000";
layers = (
{
background = {
anchors = (
{
name = bottom;
pos = (367,0);
},
{
name = bottomright;
pos = (380,0);
},
{
name = top;
pos = (318,801);
}
);
shapes = (
{
closed = 1;
nodes = (
(463,-10,o),
(533,5,o),
(599,34,c),
(580,95,l),
(530,75,o),
(468,63,o),
(415,63,cs),
(249,63,o),
(139,181,o),
(139,358,cs),
(139,527,o),
(240,630,o),
(407,630,cs),
(463,630,o),
(526,618,o),
(579,598,c),
(603,660,l),
(552,687,o),
(480,703,o),
(412,703,cs),
(197,703,o),
(54,557,o),
(54,339,cs),
(54,130,o),
(191,-10,o),
(396,-10,cs)
);
},
{
closed = 1;
nodes = (
(515,853,l),
(465,917,l),
(319,786,l),
(351,744,l)
);
}
);
};
layerId = "F333AEC5-BB61-4D5E-9EDD-6124322D28F2";
shapes = (
{
ref = C;
},
{
pos = (279,0);
ref = acutecomb.case;
}
);
width = 645;
},
{
background = {
anchors = (
{
name = bottom;
pos = (361,0);
},
{
name = bottomright;
pos = (371,0);
},
{
name = top;
pos = (356,764);
}
);
shapes = (
{
closed = 1;
nodes = (
(463,-10,o),
(537,6,o),
(598,33,c),
(593,49,l),
(533,24,o),
(461,9,o),
(401,9,cs),
(218,9,o),
(94,145,o),
(94,348,cs),
(94,549,o),
(221,683,o),
(411,683,cs),
(471,683,o),
(534,670,o),
(592,645,c),
(599,662,l),
(541,689,o),
(478,702,o),
(414,702,cs),
(209,702,o),
(72,556,o),
(72,338,cs),
(72,129,o),
(203,-10,o),
(397,-10,cs)
);
},
{
closed = 1;
nodes = (
(499,866,l),
(484,883,l),
(356,764,l),
(362,758,l)
);
}
);
};
layerId = "0B2E441B-685E-400D-9B9B-E078DEED62EF";
shapes = (
{
ref = C;
},
{
pos = (303,0);
ref = acutecomb.case;
}
);
width = 655;
},
{
background = {
anchors = (
{
name = bottom;
pos = (360,0);
},
{
name = bottomright;
pos = (342,0);
},
{
name = top;
pos = (263,839);
}
);
shapes = (
{
closed = 1;
nodes = (
(469,-10,o),
(555,10,o),
(608,39,c),
(570,164,l),
(530,150,o),
(479,142,o),
(436,142,cs),
(297,142,o),
(217,224,o),
(217,359,cs),
(217,486,o),
(288,551,o),
(414,551,cs),
(468,551,o),
(531,541,o),
(569,525,c),
(617,661,l),
(550,690,o),
(485,704,o),
(416,704,cs),
(193,704,o),
(37,560,o),
(37,342,cs),
(37,131,o),
(183,-10,o),
(394,-10,cs)
);
},
{
closed = 1;
nodes = (
(553,849,l),
(455,983,l),
(276,827,l),
(344,734,l)
);
}
);
};
layerId = "51C2DFEF-3776-4D13-9284-96485B799B57";
shapes = (
{
ref = C;
},
{
pos = (281,0);
ref = acutecomb.case;
}
);
width = 636;
}
);
unicode = 262;
},
{
glyphname = Ccaron;
lastChange = "2023-04-14 09:29:06 +0000";
layers = (
{
background = {
anchors = (
{
name = bottom;
pos = (367,0);
},
{
name = bottomright;
pos = (380,0);
},
{
name = top;
pos = (367,836);
}
);
shapes = (
{
closed = 1;
nodes = (
(463,-10,o),
(533,5,o),
(599,34,c),
(580,95,l),
(530,75,o),
(468,63,o),
(415,63,cs),
(249,63,o),
(139,181,o),
(139,358,cs),
(139,527,o),
(240,630,o),
(407,630,cs),
(463,630,o),
(526,618,o),
(579,598,c),
(603,660,l),
(552,687,o),
(480,703,o),
(412,703,cs),
(197,703,o),
(54,557,o),
(54,339,cs),
(54,130,o),
(191,-10,o),
(396,-10,cs)
);
},
{
closed = 1;
nodes = (
(390,754,l),
(517,893,l),
(483,923,l),
(371,822,l),
(266,922,l),
(217,880,l),
(347,754,l)
);
}
);
};
layerId = "F333AEC5-BB61-4D5E-9EDD-6124322D28F2";
shapes = (
{
ref = C;
},
{
pos = (183,0);
ref = caroncomb.case;
}
);
width = 645;
},
{
background = {
anchors = (
{
name = bottom;
pos = (361,0);
},
{
name = bottomright;
pos = (371,0);
},
{
name = top;
pos = (361,803);
}
);
shapes = (
{
closed = 1;
nodes = (
(463,-10,o),
(537,6,o),
(598,33,c),
(593,49,l),
(533,24,o),
(461,9,o),
(401,9,cs),
(218,9,o),
(94,145,o),
(94,348,cs),
(94,549,o),
(221,683,o),
(411,683,cs),
(471,683,o),
(534,670,o),
(592,645,c),
(599,662,l),
(541,689,o),
(478,702,o),
(414,702,cs),
(209,702,o),
(72,556,o),
(72,338,cs),
(72,129,o),
(203,-10,o),
(397,-10,cs)
);
},
{
closed = 1;
nodes = (
(375,757,l),
(485,881,l),
(477,887,l),
(368,774,l),
(259,888,l),
(245,877,l),
(360,757,l)
);
}
);
};
layerId = "0B2E441B-685E-400D-9B9B-E078DEED62EF";
shapes = (
{
ref = C;
},
{
pos = (186,0);
ref = caroncomb.case;
}
);
width = 655;
},
{
background = {
anchors = (
{
name = bottom;
pos = (360,0);
},
{
name = bottomright;
pos = (342,0);
},
{
name = top;
pos = (360,888);
}
);
shapes = (
{
closed = 1;
nodes = (
(469,-10,o),
(555,10,o),
(608,39,c),
(570,164,l),
(530,150,o),
(479,142,o),
(436,142,cs),
(297,142,o),
(217,224,o),
(217,359,cs),
(217,486,o),
(288,551,o),
(414,551,cs),
(468,551,o),
(531,541,o),
(569,525,c),
(617,661,l),
(550,690,o),
(485,704,o),
(416,704,cs),
(193,704,o),
(37,560,o),
(37,342,cs),
(37,131,o),
(183,-10,o),
(394,-10,cs)
);
},
{
closed = 1;
nodes = (
(398,742,l),
(540,909,l),
(472,967,l),
(364,874,l),
(261,968,l),
(161,878,l),
(312,742,l)
);
}
);
};
layerId = "51C2DFEF-3776-4D13-9284-96485B799B57";
shapes = (
{
ref = C;
},
{
pos = (146,0);
ref = caroncomb.case;
}
);
width = 636;
}
);
unicode = 268;
},
{
glyphname = Ccedilla;
lastChange = "2023-04-14 09:29:06 +0000";
layers = (
{
background = {
anchors = (
{
name = bottom;
pos = (476,-260);
},
{
name = bottomright;
pos = (380,0);
},
{
name = top;
pos = (367,694);
}
);
shapes = (
{
closed = 1;
nodes = (
(463,-10,o),
(533,5,o),
(599,34,c),
(580,95,l),
(530,75,o),
(468,63,o),
(415,63,cs),
(249,63,o),
(139,181,o),
(139,358,cs),
(139,527,o),
(240,630,o),
(407,630,cs),
(463,630,o),
(526,618,o),
(579,598,c),
(603,660,l),
(552,687,o),
(480,703,o),
(412,703,cs),
(197,703,o),
(54,557,o),
(54,339,cs),
(54,130,o),
(191,-10,o),
(396,-10,cs)
);
},
{
closed = 1;
nodes = (
(450,-256,o),
(497,-220,o),
(497,-157,cs),
(497,-102,o),
(459,-70,o),
(383,-59,c),
(394,5,l),
(336,5,l),
(316,-102,l),
(384,-105,o),
(424,-127,o),
(424,-161,cs),
(424,-186,o),
(404,-200,o),
(367,-200,cs),
(342,-200,o),
(310,-194,o),
(286,-183,c),
(269,-232,l),
(297,-248,o),
(330,-256,o),
(368,-256,cs)
);
}
);
};
layerId = "F333AEC5-BB61-4D5E-9EDD-6124322D28F2";
shapes = (
{
ref = C;
},
{
pos = (220,0);
ref = cedillacomb;
}
);
width = 645;
},
{
background = {
anchors = (
{
name = bottom;
pos = (487,-250);
},
{
name = bottomright;
pos = (371,0);
},
{
name = top;
pos = (361,694);
}
);
shapes = (
{
closed = 1;
nodes = (
(463,-10,o),
(537,6,o),
(598,33,c),
(593,49,l),
(533,24,o),
(461,9,o),
(401,9,cs),
(218,9,o),
(94,145,o),
(94,348,cs),
(94,549,o),
(221,683,o),
(411,683,cs),
(471,683,o),
(534,670,o),
(592,645,c),
(599,662,l),
(541,689,o),
(478,702,o),
(414,702,cs),
(209,702,o),
(72,556,o),
(72,338,cs),
(72,129,o),
(203,-10,o),
(397,-10,cs)
);
},
{
closed = 1;
nodes = (
(441,-243,o),
(482,-213,o),
(482,-164,cs),
(482,-110,o),
(435,-77,o),
(356,-73,c),
(371,4,l),
(355,4,l),
(337,-87,l),
(417,-91,o),
(462,-120,o),
(462,-165,cs),
(462,-204,o),
(431,-226,o),
(379,-226,cs),
(350,-226,o),
(319,-218,o),
(296,-207,c),
(290,-223,l),
(319,-236,o),
(349,-243,o),
(378,-243,cs)
);
}
);
};
layerId = "0B2E441B-685E-400D-9B9B-E078DEED62EF";
shapes = (
{
ref = C;
},
{
pos = (236,0);
ref = cedillacomb;
}
);
width = 655;
},
{
background = {
anchors = (
{
name = bottom;
pos = (443,-239);
},
{
name = bottomright;
pos = (342,0);
},
{
name = top;
pos = (360,694);
}
);
shapes = (
{
closed = 1;
nodes = (
(469,-10,o),
(555,10,o),
(608,39,c),
(570,164,l),
(530,150,o),
(479,142,o),
(436,142,cs),
(297,142,o),
(217,224,o),
(217,359,cs),
(217,486,o),
(288,551,o),
(414,551,cs),
(468,551,o),
(531,541,o),
(569,525,c),
(617,661,l),
(550,690,o),
(485,704,o),
(416,704,cs),
(193,704,o),
(37,560,o),
(37,342,cs),
(37,131,o),
(183,-10,o),
(394,-10,cs)
);
},
{
closed = 1;
nodes = (
(453,-258,o),
(517,-212,o),
(517,-139,cs),
(517,-87,o),
(482,-55,o),
(409,-44,c),
(421,18,l),
(306,18,l),
(285,-96,l),
(350,-102,o),
(380,-116,o),
(380,-137,cs),
(380,-150,o),
(364,-158,o),
(335,-158,cs),
(309,-158,o),
(274,-152,o),
(253,-143,c),
(236,-235,l),
(264,-250,o),
(308,-258,o),
(351,-258,cs)
);
}
);
};
layerId = "51C2DFEF-3776-4D13-9284-96485B799B57";
shapes = (
{
ref = C;
},
{
pos = (202,0);
ref = cedillacomb;
}
);
width = 636;
}
);
unicode = 199;
},
{
glyphname = Ccedillaacute;
lastChange = "2023-04-14 09:29:06 +0000";
layers = (
{
background = {
anchors = (
{
name = bottom;
pos = (476,-260);
},
{
name = bottomright;
pos = (380,0);
},
{
name = top;
pos = (318,801);
}
);
shapes = (
{
closed = 1;
nodes = (
(463,-10,o),
(533,5,o),
(599,34,c),
(580,95,l),
(530,75,o),
(468,63,o),
(415,63,cs),
(249,63,o),
(139,181,o),
(139,358,cs),
(139,527,o),
(240,630,o),
(407,630,cs),
(463,630,o),
(526,618,o),
(579,598,c),
(603,660,l),
(552,687,o),
(480,703,o),
(412,703,cs),
(197,703,o),
(54,557,o),
(54,339,cs),
(54,130,o),
(191,-10,o),
(396,-10,cs)
);
},
{
closed = 1;
nodes = (
(450,-256,o),
(497,-220,o),
(497,-157,cs),
(497,-102,o),
(459,-70,o),
(383,-59,c),
(394,5,l),
(336,5,l),
(316,-102,l),
(384,-105,o),
(424,-127,o),
(424,-161,cs),
(424,-186,o),
(404,-200,o),
(367,-200,cs),
(342,-200,o),
(310,-194,o),
(286,-183,c),
(269,-232,l),
(297,-248,o),
(330,-256,o),
(368,-256,cs)
);
},
{
closed = 1;
nodes = (
(515,853,l),
(465,917,l),
(319,786,l),
(351,744,l)
);
}
);
};
layerId = "F333AEC5-BB61-4D5E-9EDD-6124322D28F2";
shapes = (
{
ref = C;
},
{
pos = (220,0);
ref = cedillacomb;
},
{
pos = (279,0);
ref = acutecomb.case;
}
);
width = 645;
},
{
background = {
anchors = (
{
name = bottom;
pos = (487,-250);
},
{
name = bottomright;
pos = (371,0);
},
{
name = top;
pos = (356,764);
}
);
shapes = (
{
closed = 1;
nodes = (
(463,-10,o),
(537,6,o),
(598,33,c),
(593,49,l),
(533,24,o),
(461,9,o),
(401,9,cs),
(218,9,o),
(94,145,o),
(94,348,cs),
(94,549,o),
(221,683,o),
(411,683,cs),
(471,683,o),
(534,670,o),
(592,645,c),
(599,662,l),
(541,689,o),
(478,702,o),
(414,702,cs),
(209,702,o),
(72,556,o),
(72,338,cs),
(72,129,o),
(203,-10,o),
(397,-10,cs)
);
},
{
closed = 1;
nodes = (
(441,-243,o),
(482,-213,o),
(482,-164,cs),
(482,-110,o),
(435,-77,o),
(356,-73,c),
(371,4,l),
(355,4,l),
(337,-87,l),
(417,-91,o),
(462,-120,o),
(462,-165,cs),
(462,-204,o),
(431,-226,o),
(379,-226,cs),
(350,-226,o),
(319,-218,o),
(296,-207,c),
(290,-223,l),
(319,-236,o),
(349,-243,o),
(378,-243,cs)
);
},
{
closed = 1;
nodes = (
(499,866,l),
(484,883,l),
(356,764,l),
(362,758,l)
);
}
);
};
layerId = "0B2E441B-685E-400D-9B9B-E078DEED62EF";
shapes = (
{
ref = C;
},
{
pos = (236,0);
ref = cedillacomb;
},
{
pos = (303,0);
ref = acutecomb.case;
}
);
width = 655;
},
{
background = {
anchors = (
{
name = bottom;
pos = (443,-239);
},
{
name = bottomright;
pos = (342,0);
},
{
name = top;
pos = (263,839);
}
);
shapes = (
{
closed = 1;
nodes = (
(469,-10,o),
(555,10,o),
(608,39,c),
(570,164,l),
(530,150,o),
(479,142,o),
(436,142,cs),
(297,142,o),
(217,224,o),
(217,359,cs),
(217,486,o),
(288,551,o),
(414,551,cs),
(468,551,o),
(531,541,o),
(569,525,c),
(617,661,l),
(550,690,o),
(485,704,o),
(416,704,cs),
(193,704,o),
(37,560,o),
(37,342,cs),
(37,131,o),
(183,-10,o),
(394,-10,cs)
);
},
{
closed = 1;
nodes = (
(453,-258,o),
(517,-212,o),
(517,-139,cs),
(517,-87,o),
(482,-55,o),
(409,-44,c),
(421,18,l),
(306,18,l),
(285,-96,l),
(350,-102,o),
(380,-116,o),
(380,-137,cs),
(380,-150,o),
(364,-158,o),
(335,-158,cs),
(309,-158,o),
(274,-152,o),
(253,-143,c),
(236,-235,l),
(264,-250,o),
(308,-258,o),
(351,-258,cs)
);
},
{
closed = 1;
nodes = (
(553,849,l),
(455,983,l),
(276,827,l),
(344,734,l)
);
}
);
};
layerId = "51C2DFEF-3776-4D13-9284-96485B799B57";
shapes = (
{
ref = C;
},
{
pos = (202,0);
ref = cedillacomb;
},
{
pos = (281,0);
ref = acutecomb.case;
}
);
width = 636;
}
);
unicode = 7688;
},
{
glyphname = Ccircumflex;
lastChange = "2023-04-14 09:29:06 +0000";
layers = (
{
background = {
anchors = (
{
name = bottom;
pos = (367,0);
},
{
name = bottomright;
pos = (380,0);
},
{
name = top;
pos = (367,852);
},
{
name = top_viet;
pos = (534,779);
}
);
shapes = (
{
closed = 1;
nodes = (
(463,-10,o),
(533,5,o),
(599,34,c),
(580,95,l),
(530,75,o),
(468,63,o),
(415,63,cs),
(249,63,o),
(139,181,o),
(139,358,cs),
(139,527,o),
(240,630,o),
(407,630,cs),
(463,630,o),
(526,618,o),
(579,598,c),
(603,660,l),
(552,687,o),
(480,703,o),
(412,703,cs),
(197,703,o),
(54,557,o),
(54,339,cs),
(54,130,o),
(191,-10,o),
(396,-10,cs)
);
},
{
closed = 1;
nodes = (
(369,852,l),
(478,754,l),
(522,796,l),
(395,923,l),
(352,923,l),
(224,782,l),
(259,754,l)
);
}
);
};
layerId = "F333AEC5-BB61-4D5E-9EDD-6124322D28F2";
shapes = (
{
ref = C;
},
{
pos = (179,0);
ref = circumflexcomb.case;
}
);
width = 645;
},
{
background = {
anchors = (
{
name = bottom;
pos = (361,0);
},
{
name = bottomright;
pos = (371,0);
},
{
name = top;
pos = (361,834);
},
{
name = top_viet;
pos = (486,779);
}
);
shapes = (
{
closed = 1;
nodes = (
(463,-10,o),
(537,6,o),
(598,33,c),
(593,49,l),
(533,24,o),
(461,9,o),
(401,9,cs),
(218,9,o),
(94,145,o),
(94,348,cs),
(94,549,o),
(221,683,o),
(411,683,cs),
(471,683,o),
(534,670,o),
(592,645,c),
(599,662,l),
(541,689,o),
(478,702,o),
(414,702,cs),
(209,702,o),
(72,556,o),
(72,338,cs),
(72,129,o),
(203,-10,o),
(397,-10,cs)
);
},
{
closed = 1;
nodes = (
(355,868,l),
(468,754,l),
(480,765,l),
(365,885,l),
(349,885,l),
(239,761,l),
(245,755,l)
);
}
);
};
layerId = "0B2E441B-685E-400D-9B9B-E078DEED62EF";
shapes = (
{
ref = C;
},
{
pos = (184,0);
ref = circumflexcomb.case;
}
);
width = 655;
},
{
background = {
anchors = (
{
name = bottom;
pos = (360,0);
},
{
name = bottomright;
pos = (342,0);
},
{
name = top;
pos = (360,912);
},
{
name = top_viet;
pos = (550,861);
}
);
shapes = (
{
closed = 1;
nodes = (
(469,-10,o),
(555,10,o),
(608,39,c),
(570,164,l),
(530,150,o),
(479,142,o),
(436,142,cs),
(297,142,o),
(217,224,o),
(217,359,cs),
(217,486,o),
(288,551,o),
(414,551,cs),
(468,551,o),
(531,541,o),
(569,525,c),
(617,661,l),
(550,690,o),
(485,704,o),
(416,704,cs),
(193,704,o),
(37,560,o),
(37,342,cs),
(37,131,o),
(183,-10,o),
(394,-10,cs)
);
},
{
closed = 1;
nodes = (
(359,818,l),
(463,734,l),
(559,825,l),
(412,962,l),
(327,962,l),
(181,794,l),
(250,735,l)
);
}
);
};
layerId = "51C2DFEF-3776-4D13-9284-96485B799B57";
shapes = (
{
ref = C;
},
{
pos = (161,0);
ref = circumflexcomb.case;
}
);
width = 636;
}
);
unicode = 264;
},
{
glyphname = Cdotaccent;
lastChange = "2023-04-14 09:29:06 +0000";
layers = (
{
background = {
anchors = (
{
name = bottom;
pos = (367,0);
},
{
name = bottomright;
pos = (380,0);
},
{
name = top;
pos = (367,856);
}
);
shapes = (
{
closed = 1;
nodes = (
(463,-10,o),
(533,5,o),
(599,34,c),
(580,95,l),
(530,75,o),
(468,63,o),
(415,63,cs),
(249,63,o),
(139,181,o),
(139,358,cs),
(139,527,o),
(240,630,o),
(407,630,cs),
(463,630,o),
(526,618,o),
(579,598,c),
(603,660,l),
(552,687,o),
(480,703,o),
(412,703,cs),
(197,703,o),
(54,557,o),
(54,339,cs),
(54,130,o),
(191,-10,o),
(396,-10,cs)
);
},
{
closed = 1;
nodes = (
(403,778,o),
(424,799,o),
(424,835,cs),
(424,871,o),
(403,892,o),
(367,892,cs),
(331,892,o),
(310,871,o),
(310,835,cs),
(310,799,o),
(331,778,o),
(367,778,cs)
);
}
);
};
layerId = "F333AEC5-BB61-4D5E-9EDD-6124322D28F2";
shapes = (
{
ref = C;
},
{
pos = (234,0);
ref = dotaccentcomb.case;
}
);
width = 645;
},
{
background = {
anchors = (
{
name = bottom;
pos = (361,0);
},
{
name = bottomright;
pos = (371,0);
},
{
name = top;
pos = (361,837);
}
);
shapes = (
{
closed = 1;
nodes = (
(463,-10,o),
(537,6,o),
(598,33,c),
(593,49,l),
(533,24,o),
(461,9,o),
(401,9,cs),
(218,9,o),
(94,145,o),
(94,348,cs),
(94,549,o),
(221,683,o),
(411,683,cs),
(471,683,o),
(534,670,o),
(592,645,c),
(599,662,l),
(541,689,o),
(478,702,o),
(414,702,cs),
(209,702,o),
(72,556,o),
(72,338,cs),
(72,129,o),
(203,-10,o),
(397,-10,cs)
);
},
{
closed = 1;
nodes = (
(373,795,o),
(382,804,o),
(382,816,cs),
(382,828,o),
(373,837,o),
(361,837,cs),
(349,837,o),
(340,828,o),
(340,816,cs),
(340,804,o),
(349,795,o),
(361,795,cs)
);
}
);
};
layerId = "0B2E441B-685E-400D-9B9B-E078DEED62EF";
shapes = (
{
ref = C;
},
{
pos = (242,0);
ref = dotaccentcomb.case;
}
);
width = 655;
},
{
background = {
anchors = (
{
name = bottom;
pos = (360,0);
},
{
name = bottomright;
pos = (342,0);
},
{
name = top;
pos = (360,946);
}
);
shapes = (
{
closed = 1;
nodes = (
(469,-10,o),
(555,10,o),
(608,39,c),
(570,164,l),
(530,150,o),
(479,142,o),
(436,142,cs),
(297,142,o),
(217,224,o),
(217,359,cs),
(217,486,o),
(288,551,o),
(414,551,cs),
(468,551,o),
(531,541,o),
(569,525,c),
(617,661,l),
(550,690,o),
(485,704,o),
(416,704,cs),
(193,704,o),
(37,560,o),
(37,342,cs),
(37,131,o),
(183,-10,o),
(394,-10,cs)
);
},
{
closed = 1;
nodes = (
(418,747,o),
(458,787,o),
(458,846,cs),
(458,906,o),
(418,946,o),
(359,946,cs),
(300,946,o),
(260,906,o),
(260,846,cs),
(260,787,o),
(300,747,o),
(359,747,cs)
);
}
);
};
layerId = "51C2DFEF-3776-4D13-9284-96485B799B57";
shapes = (
{
ref = C;
},
{
pos = (215,0);
ref = dotaccentcomb.case;
}
);
width = 636;
}
);
unicode = 266;
},
{
glyphname = D;
lastChange = "2023-04-14 09:29:02 +0000";
layers = (
{
anchors = (
{
name = bottom;
pos = (322,0);
},
{
name = center;
pos = (159,347);
},
{
name = top;
pos = (322,694);
}
);
background = {
anchors = (
{
name = bottom;
pos = (322,0);
},
{
name = center;
pos = (159,347);
},
{
name = top;
pos = (322,694);
}
);
shapes = (
{
closed = 1;
nodes = (
(304,0,ls),
(514,0,o),
(657,137,o),
(657,360,cs),
(657,570,o),
(531,694,o),
(319,694,cs),
(92,694,l),
(92,0,l)
);
},
{
closed = 1;
nodes = (
(175,622,l),
(309,622,ls),
(478,622,o),
(572,523,o),
(572,347,cs),
(572,172,o),
(479,72,o),
(314,72,cs),
(175,72,l)
);
}
);
};
layerId = "F333AEC5-BB61-4D5E-9EDD-6124322D28F2";
shapes = (
{
closed = 1;
nodes = (
(304,0,ls),
(514,0,o),
(657,137,o),
(657,360,cs),
(657,570,o),
(531,694,o),
(319,694,cs),
(92,694,l),
(92,0,l)
);
},
{
closed = 1;
nodes = (
(175,622,l),
(309,622,ls),
(478,622,o),
(572,523,o),
(572,347,cs),
(572,172,o),
(479,72,o),
(314,72,cs),
(175,72,l)
);
}
);
userData = {
com.schriftgestaltung.Glyphs.glyph.leftMetricsKey = I;
com.schriftgestaltung.Glyphs.glyph.rightMetricsKey = O;
};
width = 711;
},
{
anchors = (
{
name = bottom;
pos = (353,0);
},
{
name = center;
pos = (186,364);
},
{
name = top;
pos = (343,694);
}
);
background = {
anchors = (
{
name = bottom;
pos = (353,0);
},
{
name = center;
pos = (186,364);
},
{
name = top;
pos = (343,694);
}
);
shapes = (
{
closed = 1;
nodes = (
(286,0,ls),
(504,0,o),
(634,131,o),
(634,353,cs),
(634,573,o),
(513,694,o),
(292,694,cs),
(123,694,l),
(123,0,l)
);
},
{
closed = 1;
nodes = (
(145,676,l),
(286,676,ls),
(500,676,o),
(612,564,o),
(612,348,cs),
(612,138,o),
(496,18,o),
(292,18,cs),
(145,18,l)
);
}
);
};
layerId = "0B2E441B-685E-400D-9B9B-E078DEED62EF";
shapes = (
{
closed = 1;
nodes = (
(286,0,ls),
(504,0,o),
(634,131,o),
(634,353,cs),
(634,573,o),
(513,694,o),
(292,694,cs),
(123,694,l),
(123,0,l)
);
},
{
closed = 1;
nodes = (
(145,676,l),
(286,676,ls),
(500,676,o),
(612,564,o),
(612,348,cs),
(612,138,o),
(496,18,o),
(292,18,cs),
(145,18,l)
);
}
);
userData = {
com.schriftgestaltung.Glyphs.glyph.leftMetricsKey = I;
com.schriftgestaltung.Glyphs.glyph.rightMetricsKey = O;
};
width = 706;
},
{
anchors = (
{
name = bottom;
pos = (362,0);
},
{
name = center;
pos = (180,344);
},
{
name = top;
pos = (339,694);
}
);
background = {
anchors = (
{
name = bottom;
pos = (362,0);
},
{
name = center;
pos = (180,344);
},
{
name = top;
pos = (339,694);
}
);
shapes = (
{
closed = 1;
nodes = (
(318,0,ls),
(556,0,o),
(713,143,o),
(713,361,cs),
(713,570,o),
(571,694,o),
(331,694,cs),
(71,694,l),
(71,0,l)
);
},
{
closed = 1;
nodes = (
(241,545,l),
(321,545,ls),
(454,545,o),
(533,469,o),
(533,341,cs),
(533,217,o),
(464,149,o),
(338,149,cs),
(241,149,l)
);
}
);
};
layerId = "51C2DFEF-3776-4D13-9284-96485B799B57";
shapes = (
{
closed = 1;
nodes = (
(318,0,ls),
(556,0,o),
(713,143,o),
(713,361,cs),
(713,570,o),
(571,694,o),
(331,694,cs),
(71,694,l),
(71,0,l)
);
},
{
closed = 1;
nodes = (
(241,545,l),
(321,545,ls),
(454,545,o),
(533,469,o),
(533,341,cs),
(533,217,o),
(464,149,o),
(338,149,cs),
(241,149,l)
);
}
);
userData = {
com.schriftgestaltung.Glyphs.glyph.leftMetricsKey = I;
com.schriftgestaltung.Glyphs.glyph.rightMetricsKey = O;
};
width = 750;
}
);
unicode = 68;
},
{
glyphname = DZcaron;
lastChange = "2023-04-14 09:29:06 +0000";
layers = (
{
background = {
anchors = (
{
name = bottom;
pos = (1030,0);
},
{
name = center;
pos = (159,347);
},
{
name = top;
pos = (1030,836);
}
);
shapes = (
{
closed = 1;
nodes = (
(304,0,ls),
(514,0,o),
(657,137,o),
(657,360,cs),
(657,570,o),
(531,694,o),
(319,694,cs),
(92,694,l),
(92,0,l)
);
},
{
closed = 1;
nodes = (
(175,622,l),
(309,622,ls),
(478,622,o),
(572,523,o),
(572,347,cs),
(572,172,o),
(479,72,o),
(314,72,cs),
(175,72,l)
);
},
{
closed = 1;
nodes = (
(1309,0,l),
(1309,72,l),
(829,72,l),
(841,47,l),
(1296,642,l),
(1296,694,l),
(765,694,l),
(765,622,l),
(1217,622,l),
(1205,647,l),
(751,53,l),
(751,0,l)
);
},
{
closed = 1;
nodes = (
(1053,754,l),
(1180,893,l),
(1146,923,l),
(1034,822,l),
(929,922,l),
(880,880,l),
(1010,754,l)
);
}
);
};
layerId = "F333AEC5-BB61-4D5E-9EDD-6124322D28F2";
shapes = (
{
ref = D;
},
{
pos = (711,0);
ref = Zcaron;
}
);
width = 1347;
},
{
background = {
anchors = (
{
name = bottom;
pos = (1004,0);
},
{
name = center;
pos = (186,364);
},
{
name = top;
pos = (1004,803);
}
);
shapes = (
{
closed = 1;
nodes = (
(286,0,ls),
(504,0,o),
(634,131,o),
(634,353,cs),
(634,573,o),
(513,694,o),
(292,694,cs),
(123,694,l),
(123,0,l)
);
},
{
closed = 1;
nodes = (
(145,676,l),
(286,676,ls),
(500,676,o),
(612,564,o),
(612,348,cs),
(612,138,o),
(496,18,o),
(292,18,cs),
(145,18,l)
);
},
{
closed = 1;
nodes = (
(1278,0,l),
(1278,18,l),
(772,18,l),
(772,12,l),
(1261,677,l),
(1261,694,l),
(768,694,l),
(768,676,l),
(1239,676,l),
(1239,682,l),
(750,16,l),
(750,0,l)
);
},
{
closed = 1;
nodes = (
(1018,757,l),
(1128,881,l),
(1120,887,l),
(1011,774,l),
(902,888,l),
(888,877,l),
(1003,757,l)
);
}
);
};
layerId = "0B2E441B-685E-400D-9B9B-E078DEED62EF";
shapes = (
{
ref = D;
},
{
pos = (706,0);
ref = Zcaron;
}
);
width = 1322;
},
{
background = {
anchors = (
{
name = bottom;
pos = (1089,0);
},
{
name = center;
pos = (180,344);
},
{
name = top;
pos = (1089,888);
}
);
shapes = (
{
closed = 1;
nodes = (
(318,0,ls),
(556,0,o),
(713,143,o),
(713,361,cs),
(713,570,o),
(571,694,o),
(331,694,cs),
(71,694,l),
(71,0,l)
);
},
{
closed = 1;
nodes = (
(241,545,l),
(321,545,ls),
(454,545,o),
(533,469,o),
(533,341,cs),
(533,217,o),
(464,149,o),
(338,149,cs),
(241,149,l)
);
},
{
closed = 1;
nodes = (
(1383,0,l),
(1383,152,l),
(926,152,l),
(967,94,l),
(1378,591,l),
(1378,694,l),
(798,694,l),
(798,542,l),
(1242,542,l),
(1190,608,l),
(780,111,l),
(780,0,l)
);
},
{
closed = 1;
nodes = (
(1127,742,l),
(1269,909,l),
(1201,967,l),
(1093,874,l),
(990,968,l),
(890,878,l),
(1041,742,l)
);
}
);
};
layerId = "51C2DFEF-3776-4D13-9284-96485B799B57";
shapes = (
{
ref = D;
},
{
pos = (750,0);
ref = Zcaron;
}
);
width = 1417;
}
);
unicode = 452;
},
{
glyphname = Dcaron;
lastChange = "2023-04-14 09:29:06 +0000";
layers = (
{
background = {
anchors = (
{
name = bottom;
pos = (322,0);
},
{
name = center;
pos = (159,347);
},
{
name = top;
pos = (322,836);
}
);
shapes = (
{
closed = 1;
nodes = (
(304,0,ls),
(514,0,o),
(657,137,o),
(657,360,cs),
(657,570,o),
(531,694,o),
(319,694,cs),
(92,694,l),
(92,0,l)
);
},
{
closed = 1;
nodes = (
(175,622,l),
(309,622,ls),
(478,622,o),
(572,523,o),
(572,347,cs),
(572,172,o),
(479,72,o),
(314,72,cs),
(175,72,l)
);
},
{
closed = 1;
nodes = (
(345,754,l),
(472,893,l),
(438,923,l),
(326,822,l),
(221,922,l),
(172,880,l),
(302,754,l)
);
}
);
};
layerId = "F333AEC5-BB61-4D5E-9EDD-6124322D28F2";
shapes = (
{
ref = D;
},
{
pos = (138,0);
ref = caroncomb.case;
}
);
width = 711;
},
{
background = {
anchors = (
{
name = bottom;
pos = (353,0);
},
{
name = center;
pos = (186,364);
},
{
name = top;
pos = (343,803);
}
);
shapes = (
{
closed = 1;
nodes = (
(286,0,ls),
(504,0,o),
(634,131,o),
(634,353,cs),
(634,573,o),
(513,694,o),
(292,694,cs),
(123,694,l),
(123,0,l)
);
},
{
closed = 1;
nodes = (
(145,676,l),
(286,676,ls),
(500,676,o),
(612,564,o),
(612,348,cs),
(612,138,o),
(496,18,o),
(292,18,cs),
(145,18,l)
);
},
{
closed = 1;
nodes = (
(357,757,l),
(467,881,l),
(459,887,l),
(350,774,l),
(241,888,l),
(227,877,l),
(342,757,l)
);
}
);
};
layerId = "0B2E441B-685E-400D-9B9B-E078DEED62EF";
shapes = (
{
ref = D;
},
{
pos = (168,0);
ref = caroncomb.case;
}
);
width = 706;
},
{
background = {
anchors = (
{
name = bottom;
pos = (362,0);
},
{
name = center;
pos = (180,344);
},
{
name = top;
pos = (339,888);
}
);
shapes = (
{
closed = 1;
nodes = (
(318,0,ls),
(556,0,o),
(713,143,o),
(713,361,cs),
(713,570,o),
(571,694,o),
(331,694,cs),
(71,694,l),
(71,0,l)
);
},
{
closed = 1;
nodes = (
(241,545,l),
(321,545,ls),
(454,545,o),
(533,469,o),
(533,341,cs),
(533,217,o),
(464,149,o),
(338,149,cs),
(241,149,l)
);
},
{
closed = 1;
nodes = (
(377,742,l),
(519,909,l),
(451,967,l),
(343,874,l),
(240,968,l),
(140,878,l),
(291,742,l)
);
}
);
};
layerId = "51C2DFEF-3776-4D13-9284-96485B799B57";
shapes = (
{
ref = D;
},
{
pos = (125,0);
ref = caroncomb.case;
}
);
width = 750;
}
);
unicode = 270;
},
{
glyphname = Dcroat;
lastChange = "2023-04-14 09:29:06 +0000";
layers = (
{
background = {
anchors = (
{
name = bottom;
pos = (322,0);
},
{
name = center;
pos = (159,347);
},
{
name = top;
pos = (322,694);
}
);
shapes = (
{
closed = 1;
nodes = (
(304,0,ls),
(514,0,o),
(657,137,o),
(657,360,cs),
(657,570,o),
(531,694,o),
(319,694,cs),
(92,694,l),
(92,0,l)
);
},
{
closed = 1;
nodes = (
(175,622,l),
(309,622,ls),
(478,622,o),
(572,523,o),
(572,347,cs),
(572,172,o),
(479,72,o),
(314,72,cs),
(175,72,l)
);
},
{
closed = 1;
nodes = (
(309,315,l),
(309,380,l),
(9,380,l),
(9,315,l)
);
}
);
};
layerId = "F333AEC5-BB61-4D5E-9EDD-6124322D28F2";
shapes = (
{
ref = Eth;
}
);
width = 711;
},
{
background = {
anchors = (
{
name = bottom;
pos = (353,0);
},
{
name = center;
pos = (186,364);
},
{
name = top;
pos = (343,694);
}
);
shapes = (
{
closed = 1;
nodes = (
(286,0,ls),
(504,0,o),
(634,131,o),
(634,353,cs),
(634,573,o),
(513,694,o),
(292,694,cs),
(123,694,l),
(123,0,l)
);
},
{
closed = 1;
nodes = (
(145,676,l),
(286,676,ls),
(500,676,o),
(612,564,o),
(612,348,cs),
(612,138,o),
(496,18,o),
(292,18,cs),
(145,18,l)
);
},
{
closed = 1;
nodes = (
(305,355,l),
(305,372,l),
(66,372,l),
(66,355,l)
);
}
);
};
layerId = "0B2E441B-685E-400D-9B9B-E078DEED62EF";
shapes = (
{
ref = Eth;
}
);
width = 706;
},
{
background = {
anchors = (
{
name = bottom;
pos = (362,0);
},
{
name = center;
pos = (180,344);
},
{
name = top;
pos = (339,694);
}
);
shapes = (
{
closed = 1;
nodes = (
(318,0,ls),
(556,0,o),
(713,143,o),
(713,361,cs),
(713,570,o),
(571,694,o),
(331,694,cs),
(71,694,l),
(71,0,l)
);
},
{
closed = 1;
nodes = (
(241,545,l),
(321,545,ls),
(454,545,o),
(533,469,o),
(533,341,cs),
(533,217,o),
(464,149,o),
(338,149,cs),
(241,149,l)
);
},
{
closed = 1;
nodes = (
(375,284,l),
(375,404,l),
(-16,404,l),
(-16,284,l)
);
}
);
};
layerId = "51C2DFEF-3776-4D13-9284-96485B799B57";
shapes = (
{
ref = Eth;
}
);
width = 750;
}
);
unicode = 272;
},
{
glyphname = Ddotbelow;
lastChange = "2023-04-14 09:29:06 +0000";
layers = (
{
background = {
anchors = (
{
name = bottom;
pos = (322,-205);
},
{
name = center;
pos = (159,347);
},
{
name = top;
pos = (322,694);
}
);
shapes = (
{
closed = 1;
nodes = (
(304,0,ls),
(514,0,o),
(657,137,o),
(657,360,cs),
(657,570,o),
(531,694,o),
(319,694,cs),
(92,694,l),
(92,0,l)
);
},
{
closed = 1;
nodes = (
(175,622,l),
(309,622,ls),
(478,622,o),
(572,523,o),
(572,347,cs),
(572,172,o),
(479,72,o),
(314,72,cs),
(175,72,l)
);
},
{
closed = 1;
nodes = (
(358,-195,o),
(379,-174,o),
(379,-138,cs),
(379,-102,o),
(358,-81,o),
(322,-81,cs),
(286,-81,o),
(265,-102,o),
(265,-138,cs),
(265,-174,o),
(286,-195,o),
(322,-195,cs)
);
}
);
};
layerId = "F333AEC5-BB61-4D5E-9EDD-6124322D28F2";
shapes = (
{
ref = D;
},
{
pos = (186,0);
ref = dotbelowcomb;
}
);
width = 711;
},
{
background = {
anchors = (
{
name = bottom;
pos = (353,-143);
},
{
name = center;
pos = (186,364);
},
{
name = top;
pos = (343,694);
}
);
shapes = (
{
closed = 1;
nodes = (
(286,0,ls),
(504,0,o),
(634,131,o),
(634,353,cs),
(634,573,o),
(513,694,o),
(292,694,cs),
(123,694,l),
(123,0,l)
);
},
{
closed = 1;
nodes = (
(145,676,l),
(286,676,ls),
(500,676,o),
(612,564,o),
(612,348,cs),
(612,138,o),
(496,18,o),
(292,18,cs),
(145,18,l)
);
},
{
closed = 1;
nodes = (
(365,-143,o),
(374,-134,o),
(374,-122,cs),
(374,-110,o),
(365,-101,o),
(353,-101,cs),
(341,-101,o),
(332,-110,o),
(332,-122,cs),
(332,-134,o),
(341,-143,o),
(353,-143,cs)
);
}
);
};
layerId = "0B2E441B-685E-400D-9B9B-E078DEED62EF";
shapes = (
{
ref = D;
},
{
pos = (233,0);
ref = dotbelowcomb;
}
);
width = 706;
},
{
background = {
anchors = (
{
name = bottom;
pos = (362,-227);
},
{
name = center;
pos = (180,344);
},
{
name = top;
pos = (339,694);
}
);
shapes = (
{
closed = 1;
nodes = (
(318,0,ls),
(556,0,o),
(713,143,o),
(713,361,cs),
(713,570,o),
(571,694,o),
(331,694,cs),
(71,694,l),
(71,0,l)
);
},
{
closed = 1;
nodes = (
(241,545,l),
(321,545,ls),
(454,545,o),
(533,469,o),
(533,341,cs),
(533,217,o),
(464,149,o),
(338,149,cs),
(241,149,l)
);
},
{
closed = 1;
nodes = (
(421,-225,o),
(461,-185,o),
(461,-126,cs),
(461,-66,o),
(421,-26,o),
(362,-26,cs),
(303,-26,o),
(263,-66,o),
(263,-126,cs),
(263,-185,o),
(303,-225,o),
(362,-225,cs)
);
}
);
};
layerId = "51C2DFEF-3776-4D13-9284-96485B799B57";
shapes = (
{
ref = D;
},
{
pos = (212,0);
ref = dotbelowcomb;
}
);
width = 750;
}
);
unicode = 7692;
},
{
glyphname = Dmacronbelow;
lastChange = "2023-04-14 09:29:21 +0000";
layers = (
{
background = {
anchors = (
{
name = bottom;
pos = (322,-172);
},
{
name = center;
pos = (159,347);
},
{
name = top;
pos = (322,694);
}
);
shapes = (
{
closed = 1;
nodes = (
(304,0,ls),
(514,0,o),
(657,137,o),
(657,360,cs),
(657,570,o),
(531,694,o),
(319,694,cs),
(92,694,l),
(92,0,l)
);
},
{
closed = 1;
nodes = (
(175,622,l),
(309,622,ls),
(478,622,o),
(572,523,o),
(572,347,cs),
(572,172,o),
(479,72,o),
(314,72,cs),
(175,72,l)
);
},
{
closed = 1;
nodes = (
(478,-171,l),
(478,-106,l),
(165,-106,l),
(165,-171,l)
);
}
);
};
layerId = "F333AEC5-BB61-4D5E-9EDD-6124322D28F2";
shapes = (
{
ref = D;
},
{
pos = (77,0);
ref = macronbelowcomb;
}
);
width = 711;
},
{
background = {
anchors = (
{
name = bottom;
pos = (353,-125);
},
{
name = center;
pos = (186,364);
},
{
name = top;
pos = (343,694);
}
);
shapes = (
{
closed = 1;
nodes = (
(286,0,ls),
(504,0,o),
(634,131,o),
(634,353,cs),
(634,573,o),
(513,694,o),
(292,694,cs),
(123,694,l),
(123,0,l)
);
},
{
closed = 1;
nodes = (
(145,676,l),
(286,676,ls),
(500,676,o),
(612,564,o),
(612,348,cs),
(612,138,o),
(496,18,o),
(292,18,cs),
(145,18,l)
);
},
{
closed = 1;
nodes = (
(488,-125,l),
(488,-110,l),
(217,-110,l),
(217,-125,l)
);
}
);
};
layerId = "0B2E441B-685E-400D-9B9B-E078DEED62EF";
shapes = (
{
ref = D;
},
{
pos = (103,0);
ref = macronbelowcomb;
}
);
width = 706;
},
{
background = {
anchors = (
{
name = bottom;
pos = (362,-206);
},
{
name = center;
pos = (180,344);
},
{
name = top;
pos = (339,694);
}
);
shapes = (
{
closed = 1;
nodes = (
(318,0,ls),
(556,0,o),
(713,143,o),
(713,361,cs),
(713,570,o),
(571,694,o),
(331,694,cs),
(71,694,l),
(71,0,l)
);
},
{
closed = 1;
nodes = (
(241,545,l),
(321,545,ls),
(454,545,o),
(533,469,o),
(533,341,cs),
(533,217,o),
(464,149,o),
(338,149,cs),
(241,149,l)
);
},
{
closed = 1;
nodes = (
(538,-206,l),
(538,-71,l),
(185,-71,l),
(185,-206,l)
);
}
);
};
layerId = "51C2DFEF-3776-4D13-9284-96485B799B57";
shapes = (
{
ref = D;
},
{
pos = (117,0);
ref = macronbelowcomb;
}
);
width = 750;
}
);
unicode = 7694;
},
{
glyphname = Dzcaron;
lastChange = "2023-04-14 09:29:06 +0000";
layers = (
{
background = {
anchors = (
{
name = bottom;
pos = (943,0);
},
{
name = center;
pos = (159,347);
},
{
name = top;
pos = (943,642);
}
);
shapes = (
{
closed = 1;
nodes = (
(304,0,ls),
(514,0,o),
(657,137,o),
(657,360,cs),
(657,570,o),
(531,694,o),
(319,694,cs),
(92,694,l),
(92,0,l)
);
},
{
closed = 1;
nodes = (
(175,622,l),
(309,622,ls),
(478,622,o),
(572,523,o),
(572,347,cs),
(572,172,o),
(479,72,o),
(314,72,cs),
(175,72,l)
);
},
{
closed = 1;
nodes = (
(1140,0,l),
(1140,67,l),
(828,67,l),
(840,49,l),
(1128,433,l),
(1128,482,l),
(750,482,l),
(750,415,l),
(1049,415,l),
(1037,433,l),
(750,49,l),
(750,0,l)
);
},
{
closed = 1;
nodes = (
(967,567,l),
(1094,706,l),
(1060,736,l),
(948,635,l),
(843,735,l),
(794,693,l),
(924,567,l)
);
}
);
};
layerId = "F333AEC5-BB61-4D5E-9EDD-6124322D28F2";
shapes = (
{
ref = D;
},
{
pos = (711,0);
ref = zcaron;
}
);
width = 1175;
},
{
background = {
anchors = (
{
name = bottom;
pos = (931,0);
},
{
name = center;
pos = (186,364);
},
{
name = top;
pos = (931,600);
}
);
shapes = (
{
closed = 1;
nodes = (
(286,0,ls),
(504,0,o),
(634,131,o),
(634,353,cs),
(634,573,o),
(513,694,o),
(292,694,cs),
(123,694,l),
(123,0,l)
);
},
{
closed = 1;
nodes = (
(145,676,l),
(286,676,ls),
(500,676,o),
(612,564,o),
(612,348,cs),
(612,138,o),
(496,18,o),
(292,18,cs),
(145,18,l)
);
},
{
closed = 1;
nodes = (
(1110,0,l),
(1110,17,l),
(774,17,l),
(776,13,l),
(1100,464,l),
(1100,480,l),
(755,480,l),
(755,463,l),
(1081,463,l),
(1079,467,l),
(755,15,l),
(755,0,l)
);
},
{
closed = 1;
nodes = (
(937,584,l),
(1047,708,l),
(1039,714,l),
(930,601,l),
(821,715,l),
(807,704,l),
(922,584,l)
);
}
);
};
layerId = "0B2E441B-685E-400D-9B9B-E078DEED62EF";
shapes = (
{
ref = D;
},
{
pos = (706,0);
ref = zcaron;
}
);
width = 1157;
},
{
background = {
anchors = (
{
name = bottom;
pos = (1007,0);
},
{
name = center;
pos = (180,344);
},
{
name = top;
pos = (1007,690);
}
);
shapes = (
{
closed = 1;
nodes = (
(318,0,ls),
(556,0,o),
(713,143,o),
(713,361,cs),
(713,570,o),
(571,694,o),
(331,694,cs),
(71,694,l),
(71,0,l)
);
},
{
closed = 1;
nodes = (
(241,545,l),
(321,545,ls),
(454,545,o),
(533,469,o),
(533,341,cs),
(533,217,o),
(464,149,o),
(338,149,cs),
(241,149,l)
);
},
{
closed = 1;
nodes = (
(1229,0,l),
(1229,141,l),
(932,141,l),
(960,80,l),
(1216,386,l),
(1216,490,l),
(790,490,l),
(790,349,l),
(1075,349,l),
(1047,411,l),
(790,103,l),
(790,0,l)
);
},
{
closed = 1;
nodes = (
(1053,547,l),
(1195,714,l),
(1127,772,l),
(1019,679,l),
(916,773,l),
(816,683,l),
(967,547,l)
);
}
);
};
layerId = "51C2DFEF-3776-4D13-9284-96485B799B57";
shapes = (
{
ref = D;
},
{
pos = (750,0);
ref = zcaron;
}
);
width = 1265;
}
);
unicode = 453;
},
{
glyphname = Eth;
lastChange = "2023-04-14 09:29:06 +0000";
layers = (
{
background = {
anchors = (
{
name = bottom;
pos = (322,0);
},
{
name = center;
pos = (159,347);
},
{
name = top;
pos = (322,694);
}
);
shapes = (
{
closed = 1;
nodes = (
(304,0,ls),
(514,0,o),
(657,137,o),
(657,360,cs),
(657,570,o),
(531,694,o),
(319,694,cs),
(92,694,l),
(92,0,l)
);
},
{
closed = 1;
nodes = (
(175,622,l),
(309,622,ls),
(478,622,o),
(572,523,o),
(572,347,cs),
(572,172,o),
(479,72,o),
(314,72,cs),
(175,72,l)
);
},
{
closed = 1;
nodes = (
(309,315,l),
(309,380,l),
(9,380,l),
(9,315,l)
);
}
);
};
layerId = "F333AEC5-BB61-4D5E-9EDD-6124322D28F2";
shapes = (
{
ref = D;
},
{
pos = (-69,49);
ref = strokeshortcomb.case;
}
);
width = 711;
},
{
background = {
anchors = (
{
name = bottom;
pos = (353,0);
},
{
name = center;
pos = (186,364);
},
{
name = top;
pos = (343,694);
}
);
shapes = (
{
closed = 1;
nodes = (
(286,0,ls),
(504,0,o),
(634,131,o),
(634,353,cs),
(634,573,o),
(513,694,o),
(292,694,cs),
(123,694,l),
(123,0,l)
);
},
{
closed = 1;
nodes = (
(145,676,l),
(286,676,ls),
(500,676,o),
(612,564,o),
(612,348,cs),
(612,138,o),
(496,18,o),
(292,18,cs),
(145,18,l)
);
},
{
closed = 1;
nodes = (
(305,355,l),
(305,372,l),
(66,372,l),
(66,355,l)
);
}
);
};
layerId = "0B2E441B-685E-400D-9B9B-E078DEED62EF";
shapes = (
{
ref = D;
},
{
pos = (-55,65);
ref = strokeshortcomb.case;
}
);
width = 706;
},
{
background = {
anchors = (
{
name = bottom;
pos = (362,0);
},
{
name = center;
pos = (180,344);
},
{
name = top;
pos = (339,694);
}
);
shapes = (
{
closed = 1;
nodes = (
(318,0,ls),
(556,0,o),
(713,143,o),
(713,361,cs),
(713,570,o),
(571,694,o),
(331,694,cs),
(71,694,l),
(71,0,l)
);
},
{
closed = 1;
nodes = (
(241,545,l),
(321,545,ls),
(454,545,o),
(533,469,o),
(533,341,cs),
(533,217,o),
(464,149,o),
(338,149,cs),
(241,149,l)
);
},
{
closed = 1;
nodes = (
(375,284,l),
(375,404,l),
(-16,404,l),
(-16,284,l)
);
}
);
};
layerId = "51C2DFEF-3776-4D13-9284-96485B799B57";
shapes = (
{
ref = D;
},
{
pos = (-35,46);
ref = strokeshortcomb.case;
}
);
width = 750;
}
);
unicode = 208;
},
{
glyphname = E;
lastChange = "2023-04-14 09:29:02 +0000";
layers = (
{
anchors = (
{
name = bottom;
pos = (301,0);
},
{
name = ogonek;
pos = (506,10);
},
{
name = top;
pos = (321,694);
},
{
name = topleft;
pos = (-18,694);
}
);
background = {
anchors = (
{
name = bottom;
pos = (301,0);
},
{
name = ogonek;
pos = (506,10);
},
{
name = top;
pos = (321,694);
},
{
name = topleft;
pos = (-18,694);
}
);
shapes = (
{
closed = 1;
nodes = (
(528,0,l),
(528,72,l),
(175,72,l),
(175,323,l),
(501,323,l),
(501,395,l),
(175,395,l),
(175,622,l),
(528,622,l),
(528,694,l),
(92,694,l),
(92,0,l)
);
}
);
};
layerId = "F333AEC5-BB61-4D5E-9EDD-6124322D28F2";
shapes = (
{
closed = 1;
nodes = (
(528,0,l),
(528,72,l),
(175,72,l),
(175,323,l),
(501,323,l),
(501,395,l),
(175,395,l),
(175,622,l),
(528,622,l),
(528,694,l),
(92,694,l),
(92,0,l)
);
}
);
userData = {
com.schriftgestaltung.Glyphs.glyph.leftMetricsKey = I;
};
width = 584;
},
{
anchors = (
{
name = bottom;
pos = (317,0);
},
{
name = ogonek;
pos = (511,10);
},
{
name = top;
pos = (326,694);
},
{
name = topleft;
pos = (20,694);
}
);
background = {
anchors = (
{
name = bottom;
pos = (317,0);
},
{
name = ogonek;
pos = (511,10);
},
{
name = top;
pos = (326,694);
},
{
name = topleft;
pos = (20,694);
}
);
shapes = (
{
closed = 1;
nodes = (
(517,0,l),
(517,18,l),
(144,18,l),
(144,355,l),
(490,355,l),
(490,373,l),
(144,373,l),
(144,676,l),
(517,676,l),
(517,694,l),
(123,694,l),
(123,0,l)
);
}
);
};
layerId = "0B2E441B-685E-400D-9B9B-E078DEED62EF";
shapes = (
{
closed = 1;
nodes = (
(517,0,l),
(517,18,l),
(144,18,l),
(144,355,l),
(490,355,l),
(490,373,l),
(144,373,l),
(144,676,l),
(517,676,l),
(517,694,l),
(123,694,l),
(123,0,l)
);
}
);
userData = {
com.schriftgestaltung.Glyphs.glyph.leftMetricsKey = I;
};
width = 579;
},
{
anchors = (
{
name = bottom;
pos = (324,0);
},
{
name = ogonek;
pos = (522,10);
},
{
name = top;
pos = (317,694);
},
{
name = topleft;
pos = (-29,694);
}
);
background = {
anchors = (
{
name = bottom;
pos = (324,0);
},
{
name = ogonek;
pos = (522,10);
},
{
name = top;
pos = (317,694);
},
{
name = topleft;
pos = (-29,694);
}
);
shapes = (
{
closed = 1;
nodes = (
(569,0,l),
(569,152,l),
(244,152,l),
(244,276,l),
(541,276,l),
(541,428,l),
(244,428,l),
(244,542,l),
(569,542,l),
(569,694,l),
(71,694,l),
(71,0,l)
);
}
);
};
layerId = "51C2DFEF-3776-4D13-9284-96485B799B57";
shapes = (
{
closed = 1;
nodes = (
(569,0,l),
(569,152,l),
(244,152,l),
(244,276,l),
(541,276,l),
(541,428,l),
(244,428,l),
(244,542,l),
(569,542,l),
(569,694,l),
(71,694,l),
(71,0,l)
);
}
);
userData = {
com.schriftgestaltung.Glyphs.glyph.leftMetricsKey = I;
};
width = 619;
}
);
unicode = 69;
},
{
glyphname = Eacute;
lastChange = "2023-04-14 09:29:06 +0000";
layers = (
{
background = {
anchors = (
{
name = bottom;
pos = (301,0);
},
{
name = ogonek;
pos = (506,10);
},
{
name = top;
pos = (272,801);
},
{
name = topleft;
pos = (-18,694);
}
);
shapes = (
{
closed = 1;
nodes = (
(528,0,l),
(528,72,l),
(175,72,l),
(175,323,l),
(501,323,l),
(501,395,l),
(175,395,l),
(175,622,l),
(528,622,l),
(528,694,l),
(92,694,l),
(92,0,l)
);
},
{
closed = 1;
nodes = (
(469,853,l),
(419,917,l),
(273,786,l),
(305,744,l)
);
}
);
};
layerId = "F333AEC5-BB61-4D5E-9EDD-6124322D28F2";
shapes = (
{
ref = E;
},
{
pos = (233,0);
ref = acutecomb.case;
}
);
width = 584;
},
{
background = {
anchors = (
{
name = bottom;
pos = (317,0);
},
{
name = ogonek;
pos = (511,10);
},
{
name = top;
pos = (321,764);
},
{
name = topleft;
pos = (20,694);
}
);
shapes = (
{
closed = 1;
nodes = (
(517,0,l),
(517,18,l),
(144,18,l),
(144,355,l),
(490,355,l),
(490,373,l),
(144,373,l),
(144,676,l),
(517,676,l),
(517,694,l),
(123,694,l),
(123,0,l)
);
},
{
closed = 1;
nodes = (
(464,866,l),
(449,883,l),
(321,764,l),
(327,758,l)
);
}
);
};
layerId = "0B2E441B-685E-400D-9B9B-E078DEED62EF";
shapes = (
{
ref = E;
},
{
pos = (268,0);
ref = acutecomb.case;
}
);
width = 579;
},
{
background = {
anchors = (
{
name = bottom;
pos = (324,0);
},
{
name = ogonek;
pos = (522,10);
},
{
name = top;
pos = (220,839);
},
{
name = topleft;
pos = (-29,694);
}
);
shapes = (
{
closed = 1;
nodes = (
(569,0,l),
(569,152,l),
(244,152,l),
(244,276,l),
(541,276,l),
(541,428,l),
(244,428,l),
(244,542,l),
(569,542,l),
(569,694,l),
(71,694,l),
(71,0,l)
);
},
{
closed = 1;
nodes = (
(510,849,l),
(412,983,l),
(233,827,l),
(301,734,l)
);
}
);
};
layerId = "51C2DFEF-3776-4D13-9284-96485B799B57";
shapes = (
{
ref = E;
},
{
pos = (238,0);
ref = acutecomb.case;
}
);
width = 619;
}
);
unicode = 201;
},
{
glyphname = Ebreve;
lastChange = "2023-04-14 09:29:06 +0000";
layers = (
{
background = {
anchors = (
{
name = bottom;
pos = (301,0);
},
{
name = ogonek;
pos = (506,10);
},
{
name = top;
pos = (321,826);
},
{
name = topleft;
pos = (-18,694);
}
);
shapes = (
{
closed = 1;
nodes = (
(528,0,l),
(528,72,l),
(175,72,l),
(175,323,l),
(501,323,l),
(501,395,l),
(175,395,l),
(175,622,l),
(528,622,l),
(528,694,l),
(92,694,l),
(92,0,l)
);
},
{
closed = 1;
nodes = (
(394,758,o),
(455,816,o),
(468,902,c),
(429,928,l),
(422,865,o),
(382,823,o),
(329,823,cs),
(278,823,o),
(239,865,o),
(231,927,c),
(167,890,l),
(181,811,o),
(241,758,o),
(317,758,cs)
);
}
);
};
layerId = "F333AEC5-BB61-4D5E-9EDD-6124322D28F2";
shapes = (
{
ref = E;
},
{
pos = (112,0);
ref = brevecomb.case;
}
);
width = 584;
},
{
background = {
anchors = (
{
name = bottom;
pos = (317,0);
},
{
name = ogonek;
pos = (511,10);
},
{
name = top;
pos = (326,805);
},
{
name = topleft;
pos = (20,694);
}
);
shapes = (
{
closed = 1;
nodes = (
(517,0,l),
(517,18,l),
(144,18,l),
(144,355,l),
(490,355,l),
(490,373,l),
(144,373,l),
(144,676,l),
(517,676,l),
(517,694,l),
(123,694,l),
(123,0,l)
);
},
{
closed = 1;
nodes = (
(385,752,o),
(435,802,o),
(444,877,c),
(434,883,l),
(427,815,o),
(383,770,o),
(329,770,cs),
(277,770,o),
(231,810,o),
(222,879,c),
(205,873,l),
(214,800,o),
(263,752,o),
(323,752,cs)
);
}
);
};
layerId = "0B2E441B-685E-400D-9B9B-E078DEED62EF";
shapes = (
{
ref = E;
},
{
pos = (123,0);
ref = brevecomb.case;
}
);
width = 579;
},
{
background = {
anchors = (
{
name = bottom;
pos = (324,0);
},
{
name = ogonek;
pos = (522,10);
},
{
name = top;
pos = (317,892);
},
{
name = topleft;
pos = (-29,694);
}
);
shapes = (
{
closed = 1;
nodes = (
(569,0,l),
(569,152,l),
(244,152,l),
(244,276,l),
(541,276,l),
(541,428,l),
(244,428,l),
(244,542,l),
(569,542,l),
(569,694,l),
(71,694,l),
(71,0,l)
);
},
{
closed = 1;
nodes = (
(402,741,o),
(477,809,o),
(494,916,c),
(413,972,l),
(408,908,o),
(370,871,o),
(320,871,cs),
(268,871,o),
(229,911,o),
(223,971,c),
(99,894,l),
(113,799,o),
(196,741,o),
(301,741,cs)
);
}
);
};
layerId = "51C2DFEF-3776-4D13-9284-96485B799B57";
shapes = (
{
ref = E;
},
{
pos = (84,0);
ref = brevecomb.case;
}
);
width = 619;
}
);
unicode = 276;
},
{
glyphname = Ecaron;
lastChange = "2023-04-14 09:29:06 +0000";
layers = (
{
background = {
anchors = (
{
name = bottom;
pos = (301,0);
},
{
name = ogonek;
pos = (506,10);
},
{
name = top;
pos = (321,836);
},
{
name = topleft;
pos = (-18,694);
}
);
shapes = (
{
closed = 1;
nodes = (
(528,0,l),
(528,72,l),
(175,72,l),
(175,323,l),
(501,323,l),
(501,395,l),
(175,395,l),
(175,622,l),
(528,622,l),
(528,694,l),
(92,694,l),
(92,0,l)
);
},
{
closed = 1;
nodes = (
(344,754,l),
(471,893,l),
(437,923,l),
(325,822,l),
(220,922,l),
(171,880,l),
(301,754,l)
);
}
);
};
layerId = "F333AEC5-BB61-4D5E-9EDD-6124322D28F2";
shapes = (
{
ref = E;
},
{
pos = (137,0);
ref = caroncomb.case;
}
);
width = 584;
},
{
background = {
anchors = (
{
name = bottom;
pos = (317,0);
},
{
name = ogonek;
pos = (511,10);
},
{
name = top;
pos = (326,803);
},
{
name = topleft;
pos = (20,694);
}
);
shapes = (
{
closed = 1;
nodes = (
(517,0,l),
(517,18,l),
(144,18,l),
(144,355,l),
(490,355,l),
(490,373,l),
(144,373,l),
(144,676,l),
(517,676,l),
(517,694,l),
(123,694,l),
(123,0,l)
);
},
{
closed = 1;
nodes = (
(340,757,l),
(450,881,l),
(442,887,l),
(333,774,l),
(224,888,l),
(210,877,l),
(325,757,l)
);
}
);
};
layerId = "0B2E441B-685E-400D-9B9B-E078DEED62EF";
shapes = (
{
ref = E;
},
{
pos = (151,0);
ref = caroncomb.case;
}
);
width = 579;
},
{
background = {
anchors = (
{
name = bottom;
pos = (324,0);
},
{
name = ogonek;
pos = (522,10);
},
{
name = top;
pos = (317,888);
},
{
name = topleft;
pos = (-29,694);
}
);
shapes = (
{
closed = 1;
nodes = (
(569,0,l),
(569,152,l),
(244,152,l),
(244,276,l),
(541,276,l),
(541,428,l),
(244,428,l),
(244,542,l),
(569,542,l),
(569,694,l),
(71,694,l),
(71,0,l)
);
},
{
closed = 1;
nodes = (
(355,742,l),
(497,909,l),
(429,967,l),
(321,874,l),
(218,968,l),
(118,878,l),
(269,742,l)
);
}
);
};
layerId = "51C2DFEF-3776-4D13-9284-96485B799B57";
shapes = (
{
ref = E;
},
{
pos = (103,0);
ref = caroncomb.case;
}
);
width = 619;
}
);
unicode = 282;
},
{
glyphname = Ecedillabreve;
lastChange = "2023-04-14 09:29:06 +0000";
layers = (
{
background = {
anchors = (
{
name = bottom;
pos = (410,-260);
},
{
name = ogonek;
pos = (506,10);
},
{
name = top;
pos = (321,826);
},
{
name = topleft;
pos = (-18,694);
}
);
shapes = (
{
closed = 1;
nodes = (
(528,0,l),
(528,72,l),
(175,72,l),
(175,323,l),
(501,323,l),
(501,395,l),
(175,395,l),
(175,622,l),
(528,622,l),
(528,694,l),
(92,694,l),
(92,0,l)
);
},
{
closed = 1;
nodes = (
(384,-256,o),
(431,-220,o),
(431,-157,cs),
(431,-102,o),
(393,-70,o),
(317,-59,c),
(328,5,l),
(270,5,l),
(250,-102,l),
(318,-105,o),
(358,-127,o),
(358,-161,cs),
(358,-186,o),
(338,-200,o),
(301,-200,cs),
(276,-200,o),
(244,-194,o),
(220,-183,c),
(203,-232,l),
(231,-248,o),
(264,-256,o),
(302,-256,cs)
);
},
{
closed = 1;
nodes = (
(394,758,o),
(455,816,o),
(468,902,c),
(429,928,l),
(422,865,o),
(382,823,o),
(329,823,cs),
(278,823,o),
(239,865,o),
(231,927,c),
(167,890,l),
(181,811,o),
(241,758,o),
(317,758,cs)
);
}
);
};
layerId = "F333AEC5-BB61-4D5E-9EDD-6124322D28F2";
shapes = (
{
ref = E;
},
{
pos = (154,0);
ref = cedillacomb;
},
{
pos = (112,0);
ref = brevecomb.case;
}
);
width = 584;
},
{
background = {
anchors = (
{
name = bottom;
pos = (443,-250);
},
{
name = ogonek;
pos = (511,10);
},
{
name = top;
pos = (326,805);
},
{
name = topleft;
pos = (20,694);
}
);
shapes = (
{
closed = 1;
nodes = (
(517,0,l),
(517,18,l),
(144,18,l),
(144,355,l),
(490,355,l),
(490,373,l),
(144,373,l),
(144,676,l),
(517,676,l),
(517,694,l),
(123,694,l),
(123,0,l)
);
},
{
closed = 1;
nodes = (
(397,-243,o),
(438,-213,o),
(438,-164,cs),
(438,-110,o),
(391,-77,o),
(312,-73,c),
(327,4,l),
(311,4,l),
(293,-87,l),
(373,-91,o),
(418,-120,o),
(418,-165,cs),
(418,-204,o),
(387,-226,o),
(335,-226,cs),
(306,-226,o),
(275,-218,o),
(252,-207,c),
(246,-223,l),
(275,-236,o),
(305,-243,o),
(334,-243,cs)
);
},
{
closed = 1;
nodes = (
(385,752,o),
(435,802,o),
(444,877,c),
(434,883,l),
(427,815,o),
(383,770,o),
(329,770,cs),
(277,770,o),
(231,810,o),
(222,879,c),
(205,873,l),
(214,800,o),
(263,752,o),
(323,752,cs)
);
}
);
};
layerId = "0B2E441B-685E-400D-9B9B-E078DEED62EF";
shapes = (
{
ref = E;
},
{
pos = (192,0);
ref = cedillacomb;
},
{
pos = (123,0);
ref = brevecomb.case;
}
);
width = 579;
},
{
background = {
anchors = (
{
name = bottom;
pos = (407,-239);
},
{
name = ogonek;
pos = (522,10);
},
{
name = top;
pos = (317,892);
},
{
name = topleft;
pos = (-29,694);
}
);
shapes = (
{
closed = 1;
nodes = (
(569,0,l),
(569,152,l),
(244,152,l),
(244,276,l),
(541,276,l),
(541,428,l),
(244,428,l),
(244,542,l),
(569,542,l),
(569,694,l),
(71,694,l),
(71,0,l)
);
},
{
closed = 1;
nodes = (
(417,-258,o),
(481,-212,o),
(481,-139,cs),
(481,-87,o),
(446,-55,o),
(373,-44,c),
(385,18,l),
(270,18,l),
(249,-96,l),
(314,-102,o),
(344,-116,o),
(344,-137,cs),
(344,-150,o),
(328,-158,o),
(299,-158,cs),
(273,-158,o),
(238,-152,o),
(217,-143,c),
(200,-235,l),
(228,-250,o),
(272,-258,o),
(315,-258,cs)
);
},
{
closed = 1;
nodes = (
(402,741,o),
(477,809,o),
(494,916,c),
(413,972,l),
(408,908,o),
(370,871,o),
(320,871,cs),
(268,871,o),
(229,911,o),
(223,971,c),
(99,894,l),
(113,799,o),
(196,741,o),
(301,741,cs)
);
}
);
};
layerId = "51C2DFEF-3776-4D13-9284-96485B799B57";
shapes = (
{
ref = E;
},
{
pos = (166,0);
ref = cedillacomb;
},
{
pos = (84,0);
ref = brevecomb.case;
}
);
width = 619;
}
);
unicode = 7708;
},
{
glyphname = Ecircumflex;
lastChange = "2023-04-14 09:29:06 +0000";
layers = (
{
background = {
anchors = (
{
name = bottom;
pos = (301,0);
},
{
name = ogonek;
pos = (506,10);
},
{
name = top;
pos = (321,852);
},
{
name = top_viet;
pos = (488,779);
},
{
name = topleft;
pos = (-18,694);
}
);
shapes = (
{
closed = 1;
nodes = (
(528,0,l),
(528,72,l),
(175,72,l),
(175,323,l),
(501,323,l),
(501,395,l),
(175,395,l),
(175,622,l),
(528,622,l),
(528,694,l),
(92,694,l),
(92,0,l)
);
},
{
closed = 1;
nodes = (
(323,852,l),
(432,754,l),
(476,796,l),
(349,923,l),
(306,923,l),
(178,782,l),
(213,754,l)
);
}
);
};
layerId = "F333AEC5-BB61-4D5E-9EDD-6124322D28F2";
shapes = (
{
ref = E;
},
{
pos = (133,0);
ref = circumflexcomb.case;
}
);
width = 584;
},
{
background = {
anchors = (
{
name = bottom;
pos = (317,0);
},
{
name = ogonek;
pos = (511,10);
},
{
name = top;
pos = (326,834);
},
{
name = top_viet;
pos = (451,779);
},
{
name = topleft;
pos = (20,694);
}
);
shapes = (
{
closed = 1;
nodes = (
(517,0,l),
(517,18,l),
(144,18,l),
(144,355,l),
(490,355,l),
(490,373,l),
(144,373,l),
(144,676,l),
(517,676,l),
(517,694,l),
(123,694,l),
(123,0,l)
);
},
{
closed = 1;
nodes = (
(320,868,l),
(433,754,l),
(445,765,l),
(330,885,l),
(314,885,l),
(204,761,l),
(210,755,l)
);
}
);
};
layerId = "0B2E441B-685E-400D-9B9B-E078DEED62EF";
shapes = (
{
ref = E;
},
{
pos = (149,0);
ref = circumflexcomb.case;
}
);
width = 579;
},
{
background = {
anchors = (
{
name = bottom;
pos = (324,0);
},
{
name = ogonek;
pos = (522,10);
},
{
name = top;
pos = (317,912);
},
{
name = top_viet;
pos = (507,861);
},
{
name = topleft;
pos = (-29,694);
}
);
shapes = (
{
closed = 1;
nodes = (
(569,0,l),
(569,152,l),
(244,152,l),
(244,276,l),
(541,276,l),
(541,428,l),
(244,428,l),
(244,542,l),
(569,542,l),
(569,694,l),
(71,694,l),
(71,0,l)
);
},
{
closed = 1;
nodes = (
(316,818,l),
(420,734,l),
(516,825,l),
(369,962,l),
(284,962,l),
(138,794,l),
(207,735,l)
);
}
);
};
layerId = "51C2DFEF-3776-4D13-9284-96485B799B57";
shapes = (
{
ref = E;
},
{
pos = (118,0);
ref = circumflexcomb.case;
}
);
width = 619;
}
);
unicode = 202;
},
{
glyphname = Ecircumflexacute;
lastChange = "2023-04-14 09:29:06 +0000";
layers = (
{
background = {
anchors = (
{
name = bottom;
pos = (301,0);
},
{
name = ogonek;
pos = (506,10);
},
{
name = top;
pos = (322,792);
},
{
name = top_dot;
pos = (409,920);
},
{
name = top_viet;
pos = (485,955);
},
{
name = topleft;
pos = (-18,694);
}
);
shapes = (
{
closed = 1;
nodes = (
(528,0,l),
(528,72,l),
(175,72,l),
(175,323,l),
(501,323,l),
(501,395,l),
(175,395,l),
(175,622,l),
(528,622,l),
(528,694,l),
(92,694,l),
(92,0,l)
);
},
{
closed = 1;
nodes = (
(320,822,l),
(429,748,l),
(473,790,l),
(346,892,l),
(303,892,l),
(175,776,l),
(210,748,l)
);
},
{
closed = 1;
nodes = (
(588,984,l),
(527,1037,l),
(418,885,l),
(454,855,l)
);
}
);
};
layerId = "F333AEC5-BB61-4D5E-9EDD-6124322D28F2";
shapes = (
{
ref = E;
},
{
pos = (130,212);
ref = circumflexcomb.loclVIET;
},
{
anchor = top_viet;
pos = (368,293);
ref = acutecomb.loclVIET;
}
);
width = 584;
},
{
background = {
anchors = (
{
name = bottom;
pos = (317,0);
},
{
name = ogonek;
pos = (511,10);
},
{
name = top;
pos = (326,774);
},
{
name = top_dot;
pos = (400,865);
},
{
name = top_viet;
pos = (471,970);
},
{
name = topleft;
pos = (20,694);
}
);
shapes = (
{
closed = 1;
nodes = (
(517,0,l),
(517,18,l),
(144,18,l),
(144,355,l),
(490,355,l),
(490,373,l),
(144,373,l),
(144,676,l),
(517,676,l),
(517,694,l),
(123,694,l),
(123,0,l)
);
},
{
closed = 1;
nodes = (
(321,857,l),
(434,768,l),
(446,779,l),
(331,874,l),
(315,874,l),
(205,775,l),
(211,769,l)
);
},
{
closed = 1;
nodes = (
(546,992,l),
(529,1006,l),
(423,877,l),
(431,869,l)
);
}
);
};
layerId = "0B2E441B-685E-400D-9B9B-E078DEED62EF";
shapes = (
{
ref = E;
},
{
pos = (150,214);
ref = circumflexcomb.loclVIET;
},
{
anchor = top_viet;
pos = (369,288);
ref = acutecomb.loclVIET;
}
);
width = 579;
},
{
background = {
anchors = (
{
name = bottom;
pos = (324,0);
},
{
name = ogonek;
pos = (522,10);
},
{
name = top;
pos = (317,834);
},
{
name = top_dot;
pos = (419,985);
},
{
name = top_viet;
pos = (519,1074);
},
{
name = topleft;
pos = (-29,694);
}
);
shapes = (
{
closed = 1;
nodes = (
(569,0,l),
(569,152,l),
(244,152,l),
(244,276,l),
(541,276,l),
(541,428,l),
(244,428,l),
(244,542,l),
(569,542,l),
(569,694,l),
(71,694,l),
(71,0,l)
);
},
{
closed = 1;
nodes = (
(311,785,l),
(415,715,l),
(511,806,l),
(364,918,l),
(279,918,l),
(133,775,l),
(202,716,l)
);
},
{
closed = 1;
nodes = (
(667,1003,l),
(550,1101,l),
(430,927,l),
(505,863,l)
);
}
);
};
layerId = "51C2DFEF-3776-4D13-9284-96485B799B57";
shapes = (
{
ref = E;
},
{
pos = (113,204);
ref = circumflexcomb.loclVIET;
},
{
anchor = top_viet;
pos = (408,327);
ref = acutecomb.loclVIET;
}
);
width = 619;
}
);
unicode = 7870;
},
{
glyphname = Ecircumflexdotbelow;
lastChange = "2023-04-14 09:29:06 +0000";
layers = (
{
background = {
anchors = (
{
name = bottom;
pos = (301,-205);
},
{
name = ogonek;
pos = (506,10);
},
{
name = top;
pos = (321,852);
},
{
name = top_viet;
pos = (488,779);
},
{
name = topleft;
pos = (-18,694);
}
);
shapes = (
{
closed = 1;
nodes = (
(528,0,l),
(528,72,l),
(175,72,l),
(175,323,l),
(501,323,l),
(501,395,l),
(175,395,l),
(175,622,l),
(528,622,l),
(528,694,l),
(92,694,l),
(92,0,l)
);
},
{
closed = 1;
nodes = (
(337,-195,o),
(358,-174,o),
(358,-138,cs),
(358,-102,o),
(337,-81,o),
(301,-81,cs),
(265,-81,o),
(244,-102,o),
(244,-138,cs),
(244,-174,o),
(265,-195,o),
(301,-195,cs)
);
},
{
closed = 1;
nodes = (
(323,852,l),
(432,754,l),
(476,796,l),
(349,923,l),
(306,923,l),
(178,782,l),
(213,754,l)
);
}
);
};
layerId = "F333AEC5-BB61-4D5E-9EDD-6124322D28F2";
shapes = (
{
ref = E;
},
{
pos = (165,0);
ref = dotbelowcomb;
},
{
pos = (133,0);
ref = circumflexcomb.case;
}
);
width = 584;
},
{
background = {
anchors = (
{
name = bottom;
pos = (317,-143);
},
{
name = ogonek;
pos = (511,10);
},
{
name = top;
pos = (326,834);
},
{
name = top_viet;
pos = (451,779);
},
{
name = topleft;
pos = (20,694);
}
);
shapes = (
{
closed = 1;
nodes = (
(517,0,l),
(517,18,l),
(144,18,l),
(144,355,l),
(490,355,l),
(490,373,l),
(144,373,l),
(144,676,l),
(517,676,l),
(517,694,l),
(123,694,l),
(123,0,l)
);
},
{
closed = 1;
nodes = (
(329,-143,o),
(338,-134,o),
(338,-122,cs),
(338,-110,o),
(329,-101,o),
(317,-101,cs),
(305,-101,o),
(296,-110,o),
(296,-122,cs),
(296,-134,o),
(305,-143,o),
(317,-143,cs)
);
},
{
closed = 1;
nodes = (
(320,868,l),
(433,754,l),
(445,765,l),
(330,885,l),
(314,885,l),
(204,761,l),
(210,755,l)
);
}
);
};
layerId = "0B2E441B-685E-400D-9B9B-E078DEED62EF";
shapes = (
{
ref = E;
},
{
pos = (197,0);
ref = dotbelowcomb;
},
{
pos = (149,0);
ref = circumflexcomb.case;
}
);
width = 579;
},
{
background = {
anchors = (
{
name = bottom;
pos = (324,-227);
},
{
name = ogonek;
pos = (522,10);
},
{
name = top;
pos = (317,912);
},
{
name = top_viet;
pos = (507,861);
},
{
name = topleft;
pos = (-29,694);
}
);
shapes = (
{
closed = 1;
nodes = (
(569,0,l),
(569,152,l),
(244,152,l),
(244,276,l),
(541,276,l),
(541,428,l),
(244,428,l),
(244,542,l),
(569,542,l),
(569,694,l),
(71,694,l),
(71,0,l)
);
},
{
closed = 1;
nodes = (
(383,-225,o),
(423,-185,o),
(423,-126,cs),
(423,-66,o),
(383,-26,o),
(324,-26,cs),
(265,-26,o),
(225,-66,o),
(225,-126,cs),
(225,-185,o),
(265,-225,o),
(324,-225,cs)
);
},
{
closed = 1;
nodes = (
(316,818,l),
(420,734,l),
(516,825,l),
(369,962,l),
(284,962,l),
(138,794,l),
(207,735,l)
);
}
);
};
layerId = "51C2DFEF-3776-4D13-9284-96485B799B57";
shapes = (
{
ref = E;
},
{
pos = (174,0);
ref = dotbelowcomb;
},
{
pos = (118,0);
ref = circumflexcomb.case;
}
);
width = 619;
}
);
unicode = 7878;
},
{
glyphname = Ecircumflexgrave;
lastChange = "2023-04-14 09:29:06 +0000";
layers = (
{
background = {
anchors = (
{
name = bottom;
pos = (301,0);
},
{
name = ogonek;
pos = (506,10);
},
{
name = top;
pos = (322,792);
},
{
name = top_viet;
pos = (427,955);
},
{
name = topleft;
pos = (-18,694);
}
);
shapes = (
{
closed = 1;
nodes = (
(528,0,l),
(528,72,l),
(175,72,l),
(175,323,l),
(501,323,l),
(501,395,l),
(175,395,l),
(175,622,l),
(528,622,l),
(528,694,l),
(92,694,l),
(92,0,l)
);
},
{
closed = 1;
nodes = (
(320,822,l),
(429,748,l),
(473,790,l),
(346,892,l),
(303,892,l),
(175,776,l),
(210,748,l)
);
},
{
closed = 1;
nodes = (
(489,890,l),
(372,1036,l),
(314,980,l),
(455,857,l)
);
}
);
};
layerId = "F333AEC5-BB61-4D5E-9EDD-6124322D28F2";
shapes = (
{
ref = E;
},
{
pos = (130,212);
ref = circumflexcomb.loclVIET;
},
{
anchor = top_viet;
pos = (281,293);
ref = gravecomb.loclVIET;
}
);
width = 584;
},
{
background = {
anchors = (
{
name = bottom;
pos = (317,0);
},
{
name = ogonek;
pos = (511,10);
},
{
name = top;
pos = (326,774);
},
{
name = top_viet;
pos = (410,922);
},
{
name = topleft;
pos = (20,694);
}
);
shapes = (
{
closed = 1;
nodes = (
(517,0,l),
(517,18,l),
(144,18,l),
(144,355,l),
(490,355,l),
(490,373,l),
(144,373,l),
(144,676,l),
(517,676,l),
(517,694,l),
(123,694,l),
(123,0,l)
);
},
{
closed = 1;
nodes = (
(321,857,l),
(434,768,l),
(446,779,l),
(331,874,l),
(315,874,l),
(205,775,l),
(211,769,l)
);
},
{
closed = 1;
nodes = (
(462,880,l),
(349,1004,l),
(333,989,l),
(455,872,l)
);
}
);
};
layerId = "0B2E441B-685E-400D-9B9B-E078DEED62EF";
shapes = (
{
ref = E;
},
{
pos = (150,214);
ref = circumflexcomb.loclVIET;
},
{
anchor = top_viet;
pos = (265,288);
ref = gravecomb.loclVIET;
}
);
width = 579;
},
{
background = {
anchors = (
{
name = bottom;
pos = (324,0);
},
{
name = ogonek;
pos = (522,10);
},
{
name = top;
pos = (317,834);
},
{
name = top_viet;
pos = (488,1074);
},
{
name = topleft;
pos = (-29,694);
}
);
shapes = (
{
closed = 1;
nodes = (
(569,0,l),
(569,152,l),
(244,152,l),
(244,276,l),
(541,276,l),
(541,428,l),
(244,428,l),
(244,542,l),
(569,542,l),
(569,694,l),
(71,694,l),
(71,0,l)
);
},
{
closed = 1;
nodes = (
(311,785,l),
(415,715,l),
(511,806,l),
(364,918,l),
(279,918,l),
(133,775,l),
(202,716,l)
);
},
{
closed = 1;
nodes = (
(575,931,l),
(449,1101,l),
(335,999,l),
(502,864,l)
);
}
);
};
layerId = "51C2DFEF-3776-4D13-9284-96485B799B57";
shapes = (
{
ref = E;
},
{
pos = (113,204);
ref = circumflexcomb.loclVIET;
},
{
anchor = top_viet;
pos = (318,327);
ref = gravecomb.loclVIET;
}
);
width = 619;
}
);
unicode = 7872;
},
{
glyphname = Ecircumflexhookabove;
lastChange = "2023-04-14 09:29:06 +0000";
layers = (
{
background = {
anchors = (
{
name = bottom;
pos = (301,0);
},
{
name = ogonek;
pos = (506,10);
},
{
name = top;
pos = (322,792);
},
{
name = top_viet;
pos = (461,1035);
},
{
name = topleft;
pos = (-18,694);
}
);
shapes = (
{
closed = 1;
nodes = (
(528,0,l),
(528,72,l),
(175,72,l),
(175,323,l),
(501,323,l),
(501,395,l),
(175,395,l),
(175,622,l),
(528,622,l),
(528,694,l),
(92,694,l),
(92,0,l)
);
},
{
closed = 1;
nodes = (
(320,822,l),
(429,748,l),
(473,790,l),
(346,892,l),
(303,892,l),
(175,776,l),
(210,748,l)
);
},
{
closed = 1;
nodes = (
(526,885,o),
(565,930,o),
(565,973,cs),
(565,1016,o),
(528,1045,o),
(468,1045,cs),
(437,1045,o),
(393,1037,o),
(357,1020,c),
(376,968,l),
(404,978,o),
(432,985,o),
(452,985,cs),
(479,985,o),
(498,972,o),
(498,955,cs),
(498,935,o),
(474,911,o),
(438,897,c),
(453,857,l)
);
}
);
};
layerId = "F333AEC5-BB61-4D5E-9EDD-6124322D28F2";
shapes = (
{
ref = E;
},
{
pos = (130,212);
ref = circumflexcomb.loclVIET;
},
{
anchor = top_viet;
pos = (317,293);
ref = hookabovecomb.loclVIET;
}
);
width = 584;
},
{
background = {
anchors = (
{
name = bottom;
pos = (317,0);
},
{
name = ogonek;
pos = (511,10);
},
{
name = top;
pos = (326,774);
},
{
name = top_viet;
pos = (444,1003);
},
{
name = topleft;
pos = (20,694);
}
);
shapes = (
{
closed = 1;
nodes = (
(517,0,l),
(517,18,l),
(144,18,l),
(144,355,l),
(490,355,l),
(490,373,l),
(144,373,l),
(144,676,l),
(517,676,l),
(517,694,l),
(123,694,l),
(123,0,l)
);
},
{
closed = 1;
nodes = (
(321,857,l),
(434,768,l),
(446,779,l),
(331,874,l),
(315,874,l),
(205,775,l),
(211,769,l)
);
},
{
closed = 1;
nodes = (
(501,877,o),
(537,915,o),
(537,952,cs),
(537,986,o),
(503,1013,o),
(452,1013,cs),
(419,1013,o),
(386,1005,o),
(351,988,c),
(356,975,l),
(387,989,o),
(422,996,o),
(449,996,cs),
(489,996,o),
(517,974,o),
(517,947,cs),
(517,916,o),
(485,882,o),
(439,863,c),
(443,853,l)
);
}
);
};
layerId = "0B2E441B-685E-400D-9B9B-E078DEED62EF";
shapes = (
{
ref = E;
},
{
pos = (150,214);
ref = circumflexcomb.loclVIET;
},
{
anchor = top_viet;
pos = (296,288);
ref = hookabovecomb.loclVIET;
}
);
width = 579;
},
{
background = {
anchors = (
{
name = bottom;
pos = (324,0);
},
{
name = ogonek;
pos = (522,10);
},
{
name = top;
pos = (317,834);
},
{
name = top_viet;
pos = (484,1111);
},
{
name = topleft;
pos = (-29,694);
}
);
shapes = (
{
closed = 1;
nodes = (
(569,0,l),
(569,152,l),
(244,152,l),
(244,276,l),
(541,276,l),
(541,428,l),
(244,428,l),
(244,542,l),
(569,542,l),
(569,694,l),
(71,694,l),
(71,0,l)
);
},
{
closed = 1;
nodes = (
(311,785,l),
(415,715,l),
(511,806,l),
(364,918,l),
(279,918,l),
(133,775,l),
(202,716,l)
);
},
{
closed = 1;
nodes = (
(557,915,o),
(610,970,o),
(610,1027,cs),
(610,1082,o),
(560,1120,o),
(484,1120,cs),
(446,1120,o),
(402,1111,o),
(358,1095,c),
(397,1001,l),
(420,1009,o),
(435,1011,o),
(449,1011,cs),
(471,1011,o),
(481,1005,o),
(481,993,cs),
(481,980,o),
(465,966,o),
(440,961,c),
(468,886,l)
);
}
);
};
layerId = "51C2DFEF-3776-4D13-9284-96485B799B57";
shapes = (
{
ref = E;
},
{
pos = (113,204);
ref = circumflexcomb.loclVIET;
},
{
anchor = top_viet;
pos = (341,326);
ref = hookabovecomb.loclVIET;
}
);
width = 619;
}
);
unicode = 7874;
},
{
glyphname = Ecircumflextilde;
lastChange = "2023-04-14 09:29:06 +0000";
layers = (
{
background = {
anchors = (
{
name = bottom;
pos = (301,0);
},
{
name = ogonek;
pos = (506,10);
},
{
name = top;
pos = (322,942);
},
{
name = top_viet;
pos = (451,775);
},
{
name = topleft;
pos = (-18,694);
}
);
shapes = (
{
closed = 1;
nodes = (
(528,0,l),
(528,72,l),
(175,72,l),
(175,323,l),
(501,323,l),
(501,395,l),
(175,395,l),
(175,622,l),
(528,622,l),
(528,694,l),
(92,694,l),
(92,0,l)
);
},
{
closed = 1;
nodes = (
(320,822,l),
(429,748,l),
(473,790,l),
(346,892,l),
(303,892,l),
(175,776,l),
(210,748,l)
);
},
{
closed = 1;
nodes = (
(222,955,o),
(241,972,o),
(265,972,cs),
(304,972,o),
(320,931,o),
(382,931,cs),
(434,931,o),
(478,963,o),
(491,1023,c),
(440,1036,l),
(430,1010,o),
(411,992,o),
(384,992,cs),
(343,992,o),
(323,1035,o),
(267,1035,cs),
(223,1035,o),
(179,1004,o),
(161,941,c),
(212,929,l)
);
}
);
};
layerId = "F333AEC5-BB61-4D5E-9EDD-6124322D28F2";
shapes = (
{
ref = E;
},
{
pos = (130,212);
ref = circumflexcomb.loclVIET;
},
{
pos = (100,310);
ref = tildecomb.loclVIET;
}
);
width = 584;
},
{
background = {
anchors = (
{
name = bottom;
pos = (317,0);
},
{
name = ogonek;
pos = (511,10);
},
{
name = top;
pos = (326,906);
},
{
name = top_viet;
pos = (434,768);
},
{
name = topleft;
pos = (20,694);
}
);
shapes = (
{
closed = 1;
nodes = (
(517,0,l),
(517,18,l),
(144,18,l),
(144,355,l),
(490,355,l),
(490,373,l),
(144,373,l),
(144,676,l),
(517,676,l),
(517,694,l),
(123,694,l),
(123,0,l)
);
},
{
closed = 1;
nodes = (
(321,857,l),
(434,768,l),
(446,779,l),
(331,874,l),
(315,874,l),
(205,775,l),
(211,769,l)
);
},
{
closed = 1;
nodes = (
(208,971,o),
(238,981,o),
(262,981,cs),
(313,981,o),
(326,932,o),
(387,932,cs),
(425,932,o),
(460,958,o),
(476,999,c),
(467,1001,l),
(452,968,o),
(422,948,o),
(393,948,cs),
(337,948,o),
(323,997,o),
(267,997,cs),
(235,997,o),
(197,979,o),
(177,937,c),
(185,934,l)
);
}
);
};
layerId = "0B2E441B-685E-400D-9B9B-E078DEED62EF";
shapes = (
{
ref = E;
},
{
pos = (150,214);
ref = circumflexcomb.loclVIET;
},
{
pos = (99,294);
ref = tildecomb.loclVIET;
}
);
width = 579;
},
{
background = {
anchors = (
{
name = bottom;
pos = (324,0);
},
{
name = ogonek;
pos = (522,10);
},
{
name = top;
pos = (317,1015);
},
{
name = top_viet;
pos = (494,816);
},
{
name = topleft;
pos = (-29,694);
}
);
shapes = (
{
closed = 1;
nodes = (
(569,0,l),
(569,152,l),
(244,152,l),
(244,276,l),
(541,276,l),
(541,428,l),
(244,428,l),
(244,542,l),
(569,542,l),
(569,694,l),
(71,694,l),
(71,0,l)
);
},
{
closed = 1;
nodes = (
(311,785,l),
(415,715,l),
(511,806,l),
(364,918,l),
(279,918,l),
(133,775,l),
(202,716,l)
);
},
{
closed = 1;
nodes = (
(239,966,o),
(255,980,o),
(270,980,cs),
(297,980,o),
(320,948,o),
(375,948,cs),
(443,948,o),
(498,998,o),
(508,1079,c),
(412,1104,l),
(404,1080,o),
(388,1068,o),
(372,1068,cs),
(345,1068,o),
(309,1103,o),
(260,1103,cs),
(197,1103,o),
(147,1047,o),
(134,964,c),
(231,941,l)
);
}
);
};
layerId = "51C2DFEF-3776-4D13-9284-96485B799B57";
shapes = (
{
ref = E;
},
{
pos = (113,204);
ref = circumflexcomb.loclVIET;
},
{
anchor = top;
pos = (99,344);
ref = tildecomb.loclVIET;
}
);
width = 619;
}
);
unicode = 7876;
},
{
glyphname = Edblgrave;
lastChange = "2023-04-14 09:29:06 +0000";
layers = (
{
background = {
anchors = (
{
name = bottom;
pos = (301,0);
},
{
name = ogonek;
pos = (506,10);
},
{
name = top;
pos = (321,926);
},
{
name = topleft;
pos = (-18,694);
}
);
shapes = (
{
closed = 1;
nodes = (
(528,0,l),
(528,72,l),
(175,72,l),
(175,323,l),
(501,323,l),
(501,395,l),
(175,395,l),
(175,622,l),
(528,622,l),
(528,694,l),
(92,694,l),
(92,0,l)
);
},
{
closed = 1;
nodes = (
(475,800,l),
(366,939,l),
(306,885,l),
(436,764,l)
);
},
{
closed = 1;
nodes = (
(285,800,l),
(176,939,l),
(116,885,l),
(246,764,l)
);
}
);
};
layerId = "F333AEC5-BB61-4D5E-9EDD-6124322D28F2";
shapes = (
{
ref = E;
},
{
pos = (100,0);
ref = dblgravecomb.case;
}
);
width = 584;
},
{
background = {
anchors = (
{
name = bottom;
pos = (317,0);
},
{
name = ogonek;
pos = (511,10);
},
{
name = top;
pos = (326,926);
},
{
name = topleft;
pos = (20,694);
}
);
shapes = (
{
closed = 1;
nodes = (
(517,0,l),
(517,18,l),
(144,18,l),
(144,355,l),
(490,355,l),
(490,373,l),
(144,373,l),
(144,676,l),
(517,676,l),
(517,694,l),
(123,694,l),
(123,0,l)
);
},
{
closed = 1;
nodes = (
(445,777,l),
(332,911,l),
(316,895,l),
(439,772,l)
);
},
{
closed = 1;
nodes = (
(265,777,l),
(152,911,l),
(136,895,l),
(259,772,l)
);
}
);
};
layerId = "0B2E441B-685E-400D-9B9B-E078DEED62EF";
shapes = (
{
ref = E;
},
{
pos = (83,0);
ref = dblgravecomb.case;
}
);
width = 579;
},
{
background = {
anchors = (
{
name = bottom;
pos = (324,0);
},
{
name = ogonek;
pos = (522,10);
},
{
name = top;
pos = (317,926);
},
{
name = topleft;
pos = (-29,694);
}
);
shapes = (
{
closed = 1;
nodes = (
(569,0,l),
(569,152,l),
(244,152,l),
(244,276,l),
(541,276,l),
(541,428,l),
(244,428,l),
(244,542,l),
(569,542,l),
(569,694,l),
(71,694,l),
(71,0,l)
);
},
{
closed = 1;
nodes = (
(548,812,l),
(415,986,l),
(296,871,l),
(472,739,l)
);
},
{
closed = 1;
nodes = (
(293,812,l),
(160,986,l),
(41,871,l),
(217,739,l)
);
}
);
};
layerId = "51C2DFEF-3776-4D13-9284-96485B799B57";
shapes = (
{
ref = E;
},
{
pos = (34,0);
ref = dblgravecomb.case;
}
);
width = 619;
}
);
unicode = 516;
},
{
glyphname = Edieresis;
lastChange = "2023-04-14 09:29:06 +0000";
layers = (
{
background = {
anchors = (
{
name = bottom;
pos = (301,0);
},
{
name = ogonek;
pos = (506,10);
},
{
name = top;
pos = (321,856);
},
{
name = topleft;
pos = (-18,694);
}
);
shapes = (
{
closed = 1;
nodes = (
(528,0,l),
(528,72,l),
(175,72,l),
(175,323,l),
(501,323,l),
(501,395,l),
(175,395,l),
(175,622,l),
(528,622,l),
(528,694,l),
(92,694,l),
(92,0,l)
);
},
{
closed = 1;
nodes = (
(454,777,o),
(475,798,o),
(475,834,cs),
(475,870,o),
(454,891,o),
(418,891,cs),
(382,891,o),
(361,870,o),
(361,834,cs),
(361,798,o),
(382,777,o),
(418,777,cs)
);
},
{
closed = 1;
nodes = (
(254,777,o),
(275,798,o),
(275,834,cs),
(275,870,o),
(254,891,o),
(218,891,cs),
(182,891,o),
(161,870,o),
(161,834,cs),
(161,798,o),
(182,777,o),
(218,777,cs)
);
}
);
};
layerId = "F333AEC5-BB61-4D5E-9EDD-6124322D28F2";
shapes = (
{
ref = E;
},
{
pos = (85,0);
ref = dieresiscomb.case;
}
);
width = 584;
},
{
background = {
anchors = (
{
name = bottom;
pos = (317,0);
},
{
name = ogonek;
pos = (511,10);
},
{
name = top;
pos = (326,839);
},
{
name = topleft;
pos = (20,694);
}
);
shapes = (
{
closed = 1;
nodes = (
(517,0,l),
(517,18,l),
(144,18,l),
(144,355,l),
(490,355,l),
(490,373,l),
(144,373,l),
(144,676,l),
(517,676,l),
(517,694,l),
(123,694,l),
(123,0,l)
);
},
{
closed = 1;
nodes = (
(422,797,o),
(431,806,o),
(431,818,cs),
(431,830,o),
(422,839,o),
(410,839,cs),
(398,839,o),
(389,830,o),
(389,818,cs),
(389,806,o),
(398,797,o),
(410,797,cs)
);
},
{
closed = 1;
nodes = (
(252,797,o),
(261,806,o),
(261,818,cs),
(261,830,o),
(252,839,o),
(240,839,cs),
(228,839,o),
(219,830,o),
(219,818,cs),
(219,806,o),
(228,797,o),
(240,797,cs)
);
}
);
};
layerId = "0B2E441B-685E-400D-9B9B-E078DEED62EF";
shapes = (
{
ref = E;
},
{
pos = (106,0);
ref = dieresiscomb.case;
}
);
width = 579;
},
{
background = {
anchors = (
{
name = bottom;
pos = (324,0);
},
{
name = ogonek;
pos = (522,10);
},
{
name = top;
pos = (317,906);
},
{
name = topleft;
pos = (-29,694);
}
);
shapes = (
{
closed = 1;
nodes = (
(569,0,l),
(569,152,l),
(244,152,l),
(244,276,l),
(541,276,l),
(541,428,l),
(244,428,l),
(244,542,l),
(569,542,l),
(569,694,l),
(71,694,l),
(71,0,l)
);
},
{
closed = 1;
nodes = (
(495,747,o),
(535,787,o),
(535,846,cs),
(535,906,o),
(495,946,o),
(436,946,cs),
(377,946,o),
(337,906,o),
(337,846,cs),
(337,787,o),
(377,747,o),
(436,747,cs)
);
},
{
closed = 1;
nodes = (
(245,747,o),
(285,787,o),
(285,846,cs),
(285,906,o),
(245,946,o),
(186,946,cs),
(127,946,o),
(87,906,o),
(87,846,cs),
(87,787,o),
(127,747,o),
(186,747,cs)
);
}
);
};
layerId = "51C2DFEF-3776-4D13-9284-96485B799B57";
shapes = (
{
ref = E;
},
{
pos = (42,0);
ref = dieresiscomb.case;
}
);
width = 619;
}
);
unicode = 203;
},
{
glyphname = Edotaccent;
lastChange = "2023-04-14 09:29:06 +0000";
layers = (
{
background = {
anchors = (
{
name = bottom;
pos = (301,0);
},
{
name = ogonek;
pos = (506,10);
},
{
name = top;
pos = (321,856);
},
{
name = topleft;
pos = (-18,694);
}
);
shapes = (
{
closed = 1;
nodes = (
(528,0,l),
(528,72,l),
(175,72,l),
(175,323,l),
(501,323,l),
(501,395,l),
(175,395,l),
(175,622,l),
(528,622,l),
(528,694,l),
(92,694,l),
(92,0,l)
);
},
{
closed = 1;
nodes = (
(357,778,o),
(378,799,o),
(378,835,cs),
(378,871,o),
(357,892,o),
(321,892,cs),
(285,892,o),
(264,871,o),
(264,835,cs),
(264,799,o),
(285,778,o),
(321,778,cs)
);
}
);
};
layerId = "F333AEC5-BB61-4D5E-9EDD-6124322D28F2";
shapes = (
{
ref = E;
},
{
pos = (188,0);
ref = dotaccentcomb.case;
}
);
width = 584;
},
{
background = {
anchors = (
{
name = bottom;
pos = (317,0);
},
{
name = ogonek;
pos = (511,10);
},
{
name = top;
pos = (326,837);
},
{
name = topleft;
pos = (20,694);
}
);
shapes = (
{
closed = 1;
nodes = (
(517,0,l),
(517,18,l),
(144,18,l),
(144,355,l),
(490,355,l),
(490,373,l),
(144,373,l),
(144,676,l),
(517,676,l),
(517,694,l),
(123,694,l),
(123,0,l)
);
},
{
closed = 1;
nodes = (
(338,795,o),
(347,804,o),
(347,816,cs),
(347,828,o),
(338,837,o),
(326,837,cs),
(314,837,o),
(305,828,o),
(305,816,cs),
(305,804,o),
(314,795,o),
(326,795,cs)
);
}
);
};
layerId = "0B2E441B-685E-400D-9B9B-E078DEED62EF";
shapes = (
{
ref = E;
},
{
pos = (207,0);
ref = dotaccentcomb.case;
}
);
width = 579;
},
{
background = {
anchors = (
{
name = bottom;
pos = (324,0);
},
{
name = ogonek;
pos = (522,10);
},
{
name = top;
pos = (317,946);
},
{
name = topleft;
pos = (-29,694);
}
);
shapes = (
{
closed = 1;
nodes = (
(569,0,l),
(569,152,l),
(244,152,l),
(244,276,l),
(541,276,l),
(541,428,l),
(244,428,l),
(244,542,l),
(569,542,l),
(569,694,l),
(71,694,l),
(71,0,l)
);
},
{
closed = 1;
nodes = (
(375,747,o),
(415,787,o),
(415,846,cs),
(415,906,o),
(375,946,o),
(316,946,cs),
(257,946,o),
(217,906,o),
(217,846,cs),
(217,787,o),
(257,747,o),
(316,747,cs)
);
}
);
};
layerId = "51C2DFEF-3776-4D13-9284-96485B799B57";
shapes = (
{
ref = E;
},
{
pos = (172,0);
ref = dotaccentcomb.case;
}
);
width = 619;
}
);
unicode = 278;
},
{
glyphname = Edotbelow;
lastChange = "2023-04-14 09:29:06 +0000";
layers = (
{
background = {
anchors = (
{
name = bottom;
pos = (301,-205);
},
{
name = ogonek;
pos = (506,10);
},
{
name = top;
pos = (321,694);
},
{
name = topleft;
pos = (-18,694);
}
);
shapes = (
{
closed = 1;
nodes = (
(528,0,l),
(528,72,l),
(175,72,l),
(175,323,l),
(501,323,l),
(501,395,l),
(175,395,l),
(175,622,l),
(528,622,l),
(528,694,l),
(92,694,l),
(92,0,l)
);
},
{
closed = 1;
nodes = (
(337,-195,o),
(358,-174,o),
(358,-138,cs),
(358,-102,o),
(337,-81,o),
(301,-81,cs),
(265,-81,o),
(244,-102,o),
(244,-138,cs),
(244,-174,o),
(265,-195,o),
(301,-195,cs)
);
}
);
};
layerId = "F333AEC5-BB61-4D5E-9EDD-6124322D28F2";
shapes = (
{
ref = E;
},
{
pos = (165,0);
ref = dotbelowcomb;
}
);
width = 584;
},
{
background = {
anchors = (
{
name = bottom;
pos = (317,-143);
},
{
name = ogonek;
pos = (511,10);
},
{
name = top;
pos = (326,694);
},
{
name = topleft;
pos = (20,694);
}
);
shapes = (
{
closed = 1;
nodes = (
(517,0,l),
(517,18,l),
(144,18,l),
(144,355,l),
(490,355,l),
(490,373,l),
(144,373,l),
(144,676,l),
(517,676,l),
(517,694,l),
(123,694,l),
(123,0,l)
);
},
{
closed = 1;
nodes = (
(329,-143,o),
(338,-134,o),
(338,-122,cs),
(338,-110,o),
(329,-101,o),
(317,-101,cs),
(305,-101,o),
(296,-110,o),
(296,-122,cs),
(296,-134,o),
(305,-143,o),
(317,-143,cs)
);
}
);
};
layerId = "0B2E441B-685E-400D-9B9B-E078DEED62EF";
shapes = (
{
ref = E;
},
{
pos = (197,0);
ref = dotbelowcomb;
}
);
width = 579;
},
{
background = {
anchors = (
{
name = bottom;
pos = (324,-227);
},
{
name = ogonek;
pos = (522,10);
},
{
name = top;
pos = (317,694);
},
{
name = topleft;
pos = (-29,694);
}
);
shapes = (
{
closed = 1;
nodes = (
(569,0,l),
(569,152,l),
(244,152,l),
(244,276,l),
(541,276,l),
(541,428,l),
(244,428,l),
(244,542,l),
(569,542,l),
(569,694,l),
(71,694,l),
(71,0,l)
);
},
{
closed = 1;
nodes = (
(383,-225,o),
(423,-185,o),
(423,-126,cs),
(423,-66,o),
(383,-26,o),
(324,-26,cs),
(265,-26,o),
(225,-66,o),
(225,-126,cs),
(225,-185,o),
(265,-225,o),
(324,-225,cs)
);
}
);
};
layerId = "51C2DFEF-3776-4D13-9284-96485B799B57";
shapes = (
{
ref = E;
},
{
pos = (174,0);
ref = dotbelowcomb;
}
);
width = 619;
}
);
unicode = 7864;
},
{
glyphname = Egrave;
lastChange = "2023-04-14 09:29:06 +0000";
layers = (
{
background = {
anchors = (
{
name = bottom;
pos = (301,0);
},
{
name = ogonek;
pos = (506,10);
},
{
name = top;
pos = (370,801);
},
{
name = topleft;
pos = (-18,694);
}
);
shapes = (
{
closed = 1;
nodes = (
(528,0,l),
(528,72,l),
(175,72,l),
(175,323,l),
(501,323,l),
(501,395,l),
(175,395,l),
(175,622,l),
(528,622,l),
(528,694,l),
(92,694,l),
(92,0,l)
);
},
{
closed = 1;
nodes = (
(369,786,l),
(223,917,l),
(173,853,l),
(337,744,l)
);
}
);
};
layerId = "F333AEC5-BB61-4D5E-9EDD-6124322D28F2";
shapes = (
{
ref = E;
},
{
pos = (126,0);
ref = gravecomb.case;
}
);
width = 584;
},
{
background = {
anchors = (
{
name = bottom;
pos = (317,0);
},
{
name = ogonek;
pos = (511,10);
},
{
name = top;
pos = (331,764);
},
{
name = topleft;
pos = (20,694);
}
);
shapes = (
{
closed = 1;
nodes = (
(517,0,l),
(517,18,l),
(144,18,l),
(144,355,l),
(490,355,l),
(490,373,l),
(144,373,l),
(144,676,l),
(517,676,l),
(517,694,l),
(123,694,l),
(123,0,l)
);
},
{
closed = 1;
nodes = (
(331,764,l),
(203,883,l),
(188,866,l),
(325,758,l)
);
}
);
};
layerId = "0B2E441B-685E-400D-9B9B-E078DEED62EF";
shapes = (
{
ref = E;
},
{
pos = (129,0);
ref = gravecomb.case;
}
);
width = 579;
},
{
background = {
anchors = (
{
name = bottom;
pos = (324,0);
},
{
name = ogonek;
pos = (522,10);
},
{
name = top;
pos = (398,800);
},
{
name = topleft;
pos = (-29,694);
}
);
shapes = (
{
closed = 1;
nodes = (
(569,0,l),
(569,152,l),
(244,152,l),
(244,276,l),
(541,276,l),
(541,428,l),
(244,428,l),
(244,542,l),
(569,542,l),
(569,694,l),
(71,694,l),
(71,0,l)
);
},
{
closed = 1;
nodes = (
(401,827,l),
(222,983,l),
(124,849,l),
(333,734,l)
);
}
);
};
layerId = "51C2DFEF-3776-4D13-9284-96485B799B57";
shapes = (
{
ref = E;
},
{
pos = (88,0);
ref = gravecomb.case;
}
);
width = 619;
}
);
unicode = 200;
},
{
glyphname = Ehookabove;
lastChange = "2023-04-14 09:29:06 +0000";
layers = (
{
background = {
anchors = (
{
name = bottom;
pos = (301,0);
},
{
name = ogonek;
pos = (506,10);
},
{
name = top;
pos = (321,962);
},
{
name = topleft;
pos = (-18,694);
}
);
shapes = (
{
closed = 1;
nodes = (
(528,0,l),
(528,72,l),
(175,72,l),
(175,323,l),
(501,323,l),
(501,395,l),
(175,395,l),
(175,622,l),
(528,622,l),
(528,694,l),
(92,694,l),
(92,0,l)
);
},
{
closed = 1;
nodes = (
(386,774,o),
(425,826,o),
(425,878,cs),
(425,929,o),
(388,962,o),
(328,962,cs),
(295,962,o),
(253,952,o),
(217,930,c),
(236,876,l),
(264,890,o),
(292,899,o),
(312,899,cs),
(339,899,o),
(358,883,o),
(358,859,cs),
(358,832,o),
(334,801,o),
(298,781,c),
(313,739,l)
);
}
);
};
layerId = "F333AEC5-BB61-4D5E-9EDD-6124322D28F2";
shapes = (
{
ref = E;
},
{
pos = (177,0);
ref = hookabovecomb.case;
}
);
width = 584;
},
{
background = {
anchors = (
{
name = bottom;
pos = (317,0);
},
{
name = ogonek;
pos = (511,10);
},
{
name = top;
pos = (326,953);
},
{
name = topleft;
pos = (20,694);
}
);
shapes = (
{
closed = 1;
nodes = (
(517,0,l),
(517,18,l),
(144,18,l),
(144,355,l),
(490,355,l),
(490,373,l),
(144,373,l),
(144,676,l),
(517,676,l),
(517,694,l),
(123,694,l),
(123,0,l)
);
},
{
closed = 1;
nodes = (
(388,776,o),
(424,823,o),
(424,868,cs),
(424,911,o),
(390,943,o),
(339,943,cs),
(305,943,o),
(273,933,o),
(238,911,c),
(243,899,l),
(273,916,o),
(307,926,o),
(336,926,cs),
(376,926,o),
(404,899,o),
(404,863,cs),
(404,824,o),
(372,781,o),
(326,757,c),
(330,747,l)
);
}
);
};
layerId = "0B2E441B-685E-400D-9B9B-E078DEED62EF";
shapes = (
{
ref = E;
},
{
pos = (171,0);
ref = hookabovecomb.case;
}
);
width = 579;
},
{
background = {
anchors = (
{
name = bottom;
pos = (324,0);
},
{
name = ogonek;
pos = (522,10);
},
{
name = top;
pos = (317,1022);
},
{
name = topleft;
pos = (-29,694);
}
);
shapes = (
{
closed = 1;
nodes = (
(569,0,l),
(569,152,l),
(244,152,l),
(244,276,l),
(541,276,l),
(541,428,l),
(244,428,l),
(244,542,l),
(569,542,l),
(569,694,l),
(71,694,l),
(71,0,l)
);
},
{
closed = 1;
nodes = (
(378,781,o),
(431,842,o),
(431,909,cs),
(431,973,o),
(381,1015,o),
(305,1015,cs),
(266,1015,o),
(223,1004,o),
(179,983,c),
(218,881,l),
(237,891,o),
(254,896,o),
(269,896,cs),
(289,896,o),
(302,886,o),
(302,871,cs),
(302,850,o),
(288,833,o),
(261,822,c),
(289,745,l)
);
}
);
};
layerId = "51C2DFEF-3776-4D13-9284-96485B799B57";
shapes = (
{
ref = E;
},
{
pos = (162,0);
ref = hookabovecomb.case;
}
);
width = 619;
}
);
unicode = 7866;
},
{
glyphname = Einvertedbreve;
lastChange = "2023-04-14 09:29:06 +0000";
layers = (
{
background = {
anchors = (
{
name = bottom;
pos = (301,0);
},
{
name = ogonek;
pos = (506,10);
},
{
name = top;
pos = (321,908);
},
{
name = topleft;
pos = (-18,694);
}
);
shapes = (
{
closed = 1;
nodes = (
(528,0,l),
(528,72,l),
(175,72,l),
(175,323,l),
(501,323,l),
(501,395,l),
(175,395,l),
(175,622,l),
(528,622,l),
(528,694,l),
(92,694,l),
(92,0,l)
);
},
{
closed = 1;
nodes = (
(235,823,o),
(276,862,o),
(324,862,cs),
(373,862,o),
(412,820,o),
(419,758,c),
(483,795,l),
(470,874,o),
(410,927,o),
(337,927,cs),
(261,927,o),
(202,869,o),
(189,783,c),
(228,757,l)
);
}
);
};
layerId = "F333AEC5-BB61-4D5E-9EDD-6124322D28F2";
shapes = (
{
ref = E;
},
{
pos = (124,0);
ref = breveinvertedcomb.case;
}
);
width = 584;
},
{
background = {
anchors = (
{
name = bottom;
pos = (317,0);
},
{
name = ogonek;
pos = (511,10);
},
{
name = top;
pos = (326,872);
},
{
name = topleft;
pos = (20,694);
}
);
shapes = (
{
closed = 1;
nodes = (
(517,0,l),
(517,18,l),
(144,18,l),
(144,355,l),
(490,355,l),
(490,373,l),
(144,373,l),
(144,676,l),
(517,676,l),
(517,694,l),
(123,694,l),
(123,0,l)
);
},
{
closed = 1;
nodes = (
(222,820,o),
(264,865,o),
(316,865,cs),
(370,865,o),
(412,821,o),
(420,756,c),
(437,762,l),
(428,835,o),
(381,883,o),
(323,883,cs),
(262,883,o),
(214,833,o),
(205,758,c),
(215,752,l)
);
}
);
};
layerId = "0B2E441B-685E-400D-9B9B-E078DEED62EF";
shapes = (
{
ref = E;
},
{
pos = (120,0);
ref = breveinvertedcomb.case;
}
);
width = 579;
},
{
background = {
anchors = (
{
name = bottom;
pos = (324,0);
},
{
name = ogonek;
pos = (522,10);
},
{
name = top;
pos = (317,932);
},
{
name = topleft;
pos = (-29,694);
}
);
shapes = (
{
closed = 1;
nodes = (
(569,0,l),
(569,152,l),
(244,152,l),
(244,276,l),
(541,276,l),
(541,428,l),
(244,428,l),
(244,542,l),
(569,542,l),
(569,694,l),
(71,694,l),
(71,0,l)
);
},
{
closed = 1;
nodes = (
(216,801,o),
(253,839,o),
(301,839,cs),
(350,839,o),
(390,799,o),
(395,739,c),
(519,816,l),
(506,911,o),
(422,969,o),
(321,969,cs),
(221,969,o),
(148,901,o),
(131,794,c),
(212,738,l)
);
}
);
};
layerId = "51C2DFEF-3776-4D13-9284-96485B799B57";
shapes = (
{
ref = E;
},
{
pos = (86,0);
ref = breveinvertedcomb.case;
}
);
width = 619;
}
);
unicode = 518;
},
{
glyphname = Emacron;
lastChange = "2023-04-14 09:29:06 +0000";
layers = (
{
background = {
anchors = (
{
name = bottom;
pos = (301,0);
},
{
name = ogonek;
pos = (506,10);
},
{
name = top;
pos = (321,857);
},
{
name = topleft;
pos = (-18,694);
}
);
shapes = (
{
closed = 1;
nodes = (
(528,0,l),
(528,72,l),
(175,72,l),
(175,323,l),
(501,323,l),
(501,395,l),
(175,395,l),
(175,622,l),
(528,622,l),
(528,694,l),
(92,694,l),
(92,0,l)
);
},
{
closed = 1;
nodes = (
(480,788,l),
(480,854,l),
(167,854,l),
(167,788,l)
);
}
);
};
layerId = "F333AEC5-BB61-4D5E-9EDD-6124322D28F2";
shapes = (
{
ref = E;
},
{
pos = (79,0);
ref = macroncomb.case;
}
);
width = 584;
},
{
background = {
anchors = (
{
name = bottom;
pos = (317,0);
},
{
name = ogonek;
pos = (511,10);
},
{
name = top;
pos = (326,822);
},
{
name = topleft;
pos = (20,694);
}
);
shapes = (
{
closed = 1;
nodes = (
(517,0,l),
(517,18,l),
(144,18,l),
(144,355,l),
(490,355,l),
(490,373,l),
(144,373,l),
(144,676,l),
(517,676,l),
(517,694,l),
(123,694,l),
(123,0,l)
);
},
{
closed = 1;
nodes = (
(471,794,l),
(471,809,l),
(190,809,l),
(190,794,l)
);
}
);
};
layerId = "0B2E441B-685E-400D-9B9B-E078DEED62EF";
shapes = (
{
ref = E;
},
{
pos = (88,0);
ref = macroncomb.case;
}
);
width = 579;
},
{
background = {
anchors = (
{
name = bottom;
pos = (324,0);
},
{
name = ogonek;
pos = (522,10);
},
{
name = top;
pos = (317,902);
},
{
name = topleft;
pos = (-29,694);
}
);
shapes = (
{
closed = 1;
nodes = (
(569,0,l),
(569,152,l),
(244,152,l),
(244,276,l),
(541,276,l),
(541,428,l),
(244,428,l),
(244,542,l),
(569,542,l),
(569,694,l),
(71,694,l),
(71,0,l)
);
},
{
closed = 1;
nodes = (
(500,769,l),
(500,905,l),
(140,905,l),
(140,769,l)
);
}
);
};
layerId = "51C2DFEF-3776-4D13-9284-96485B799B57";
shapes = (
{
ref = E;
},
{
pos = (78,0);
ref = macroncomb.case;
}
);
width = 619;
}
);
unicode = 274;
},
{
glyphname = Emacronacute;
lastChange = "2023-04-14 09:29:06 +0000";
layers = (
{
background = {
anchors = (
{
name = bottom;
pos = (301,0);
},
{
name = ogonek;
pos = (506,10);
},
{
name = top;
pos = (272,964);
},
{
name = topleft;
pos = (-18,694);
}
);
shapes = (
{
closed = 1;
nodes = (
(528,0,l),
(528,72,l),
(175,72,l),
(175,323,l),
(501,323,l),
(501,395,l),
(175,395,l),
(175,622,l),
(528,622,l),
(528,694,l),
(92,694,l),
(92,0,l)
);
},
{
closed = 1;
nodes = (
(480,788,l),
(480,854,l),
(167,854,l),
(167,788,l)
);
},
{
closed = 1;
nodes = (
(469,1016,l),
(419,1080,l),
(273,949,l),
(305,907,l)
);
}
);
};
layerId = "F333AEC5-BB61-4D5E-9EDD-6124322D28F2";
shapes = (
{
ref = E;
},
{
pos = (79,0);
ref = macroncomb.case;
},
{
pos = (233,163);
ref = acutecomb.case;
}
);
width = 584;
},
{
background = {
anchors = (
{
name = bottom;
pos = (317,0);
},
{
name = ogonek;
pos = (511,10);
},
{
name = top;
pos = (321,892);
},
{
name = topleft;
pos = (20,694);
}
);
shapes = (
{
closed = 1;
nodes = (
(517,0,l),
(517,18,l),
(144,18,l),
(144,355,l),
(490,355,l),
(490,373,l),
(144,373,l),
(144,676,l),
(517,676,l),
(517,694,l),
(123,694,l),
(123,0,l)
);
},
{
closed = 1;
nodes = (
(471,794,l),
(471,809,l),
(190,809,l),
(190,794,l)
);
},
{
closed = 1;
nodes = (
(464,994,l),
(449,1011,l),
(321,892,l),
(327,886,l)
);
}
);
};
layerId = "0B2E441B-685E-400D-9B9B-E078DEED62EF";
shapes = (
{
ref = E;
},
{
pos = (88,0);
ref = macroncomb.case;
},
{
pos = (268,128);
ref = acutecomb.case;
}
);
width = 579;
},
{
background = {
anchors = (
{
name = bottom;
pos = (324,0);
},
{
name = ogonek;
pos = (522,10);
},
{
name = top;
pos = (220,1047);
},
{
name = topleft;
pos = (-29,694);
}
);
shapes = (
{
closed = 1;
nodes = (
(569,0,l),
(569,152,l),
(244,152,l),
(244,276,l),
(541,276,l),
(541,428,l),
(244,428,l),
(244,542,l),
(569,542,l),
(569,694,l),
(71,694,l),
(71,0,l)
);
},
{
closed = 1;
nodes = (
(500,769,l),
(500,905,l),
(140,905,l),
(140,769,l)
);
},
{
closed = 1;
nodes = (
(510,1057,l),
(412,1191,l),
(233,1035,l),
(301,942,l)
);
}
);
};
layerId = "51C2DFEF-3776-4D13-9284-96485B799B57";
shapes = (
{
ref = E;
},
{
pos = (78,0);
ref = macroncomb.case;
},
{
pos = (238,208);
ref = acutecomb.case;
}
);
width = 619;
}
);
unicode = 7702;
},
{
glyphname = Emacrongrave;
lastChange = "2023-04-14 09:29:06 +0000";
layers = (
{
background = {
anchors = (
{
name = bottom;
pos = (301,0);
},
{
name = ogonek;
pos = (506,10);
},
{
name = top;
pos = (370,964);
},
{
name = topleft;
pos = (-18,694);
}
);
shapes = (
{
closed = 1;
nodes = (
(528,0,l),
(528,72,l),
(175,72,l),
(175,323,l),
(501,323,l),
(501,395,l),
(175,395,l),
(175,622,l),
(528,622,l),
(528,694,l),
(92,694,l),
(92,0,l)
);
},
{
closed = 1;
nodes = (
(480,788,l),
(480,854,l),
(167,854,l),
(167,788,l)
);
},
{
closed = 1;
nodes = (
(369,949,l),
(223,1080,l),
(173,1016,l),
(337,907,l)
);
}
);
};
layerId = "F333AEC5-BB61-4D5E-9EDD-6124322D28F2";
shapes = (
{
ref = E;
},
{
pos = (79,0);
ref = macroncomb.case;
},
{
pos = (126,163);
ref = gravecomb.case;
}
);
width = 584;
},
{
background = {
anchors = (
{
name = bottom;
pos = (317,0);
},
{
name = ogonek;
pos = (511,10);
},
{
name = top;
pos = (331,892);
},
{
name = topleft;
pos = (20,694);
}
);
shapes = (
{
closed = 1;
nodes = (
(517,0,l),
(517,18,l),
(144,18,l),
(144,355,l),
(490,355,l),
(490,373,l),
(144,373,l),
(144,676,l),
(517,676,l),
(517,694,l),
(123,694,l),
(123,0,l)
);
},
{
closed = 1;
nodes = (
(471,794,l),
(471,809,l),
(190,809,l),
(190,794,l)
);
},
{
closed = 1;
nodes = (
(331,892,l),
(203,1011,l),
(188,994,l),
(325,886,l)
);
}
);
};
layerId = "0B2E441B-685E-400D-9B9B-E078DEED62EF";
shapes = (
{
ref = E;
},
{
pos = (88,0);
ref = macroncomb.case;
},
{
pos = (129,128);
ref = gravecomb.case;
}
);
width = 579;
},
{
background = {
anchors = (
{
name = bottom;
pos = (324,0);
},
{
name = ogonek;
pos = (522,10);
},
{
name = top;
pos = (398,1008);
},
{
name = topleft;
pos = (-29,694);
}
);
shapes = (
{
closed = 1;
nodes = (
(569,0,l),
(569,152,l),
(244,152,l),
(244,276,l),
(541,276,l),
(541,428,l),
(244,428,l),
(244,542,l),
(569,542,l),
(569,694,l),
(71,694,l),
(71,0,l)
);
},
{
closed = 1;
nodes = (
(500,769,l),
(500,905,l),
(140,905,l),
(140,769,l)
);
},
{
closed = 1;
nodes = (
(401,1035,l),
(222,1191,l),
(124,1057,l),
(333,942,l)
);
}
);
};
layerId = "51C2DFEF-3776-4D13-9284-96485B799B57";
shapes = (
{
ref = E;
},
{
pos = (78,0);
ref = macroncomb.case;
},
{
pos = (88,208);
ref = gravecomb.case;
}
);
width = 619;
}
);
unicode = 7700;
},
{
glyphname = Eogonek;
lastChange = "2023-04-14 09:29:06 +0000";
layers = (
{
background = {
anchors = (
{
name = bottom;
pos = (301,0);
},
{
name = ogonek;
pos = (506,10);
},
{
name = top;
pos = (321,694);
},
{
name = topleft;
pos = (-18,694);
}
);
shapes = (
{
closed = 1;
nodes = (
(528,0,l),
(528,72,l),
(175,72,l),
(175,323,l),
(501,323,l),
(501,395,l),
(175,395,l),
(175,622,l),
(528,622,l),
(528,694,l),
(92,694,l),
(92,0,l)
);
},
{
closed = 1;
nodes = (
(475,-252,o),
(500,-245,o),
(524,-231,c),
(518,-179,l),
(503,-185,o),
(483,-190,o),
(467,-190,cs),
(433,-190,o),
(410,-168,o),
(410,-136,cs),
(410,-90,o),
(457,-36,o),
(528,0,c),
(488,22,l),
(387,-15,o),
(327,-79,o),
(327,-150,cs),
(327,-212,o),
(373,-252,o),
(446,-252,cs)
);
}
);
};
layerId = "F333AEC5-BB61-4D5E-9EDD-6124322D28F2";
shapes = (
{
ref = E;
},
{
pos = (74,0);
ref = ogonekcomb;
}
);
width = 584;
},
{
background = {
anchors = (
{
name = bottom;
pos = (317,0);
},
{
name = ogonek;
pos = (511,10);
},
{
name = top;
pos = (326,694);
},
{
name = topleft;
pos = (20,694);
}
);
shapes = (
{
closed = 1;
nodes = (
(517,0,l),
(517,18,l),
(144,18,l),
(144,355,l),
(490,355,l),
(490,373,l),
(144,373,l),
(144,676,l),
(517,676,l),
(517,694,l),
(123,694,l),
(123,0,l)
);
},
{
closed = 1;
nodes = (
(482,-243,o),
(506,-238,o),
(523,-230,c),
(520,-215,l),
(502,-222,o),
(484,-226,o),
(466,-226,cs),
(417,-226,o),
(384,-195,o),
(384,-148,cs),
(384,-92,o),
(433,-38,o),
(517,0,c),
(508,11,l),
(418,-28,o),
(363,-89,o),
(363,-152,cs),
(363,-207,o),
(402,-243,o),
(460,-243,cs)
);
}
);
};
layerId = "0B2E441B-685E-400D-9B9B-E078DEED62EF";
shapes = (
{
ref = E;
},
{
pos = (110,0);
ref = ogonekcomb;
}
);
width = 579;
},
{
background = {
anchors = (
{
name = bottom;
pos = (324,0);
},
{
name = ogonek;
pos = (522,10);
},
{
name = top;
pos = (317,694);
},
{
name = topleft;
pos = (-29,694);
}
);
shapes = (
{
closed = 1;
nodes = (
(569,0,l),
(569,152,l),
(244,152,l),
(244,276,l),
(541,276,l),
(541,428,l),
(244,428,l),
(244,542,l),
(569,542,l),
(569,694,l),
(71,694,l),
(71,0,l)
);
},
{
closed = 1;
nodes = (
(499,-256,o),
(536,-246,o),
(563,-231,c),
(550,-141,l),
(536,-148,o),
(518,-151,o),
(510,-151,cs),
(485,-151,o),
(469,-130,o),
(469,-105,cs),
(469,-61,o),
(507,-21,o),
(569,0,c),
(502,20,l),
(390,3,o),
(319,-59,o),
(319,-140,cs),
(319,-209,o),
(371,-256,o),
(459,-256,cs)
);
}
);
};
layerId = "51C2DFEF-3776-4D13-9284-96485B799B57";
shapes = (
{
ref = E;
},
{
pos = (62,0);
ref = ogonekcomb;
}
);
width = 619;
}
);
unicode = 280;
},
{
glyphname = Etilde;
lastChange = "2023-04-14 09:29:06 +0000";
layers = (
{
background = {
anchors = (
{
name = bottom;
pos = (301,0);
},
{
name = ogonek;
pos = (506,10);
},
{
name = top;
pos = (322,876);
},
{
name = topleft;
pos = (-18,694);
}
);
shapes = (
{
closed = 1;
nodes = (
(528,0,l),
(528,72,l),
(175,72,l),
(175,323,l),
(501,323,l),
(501,395,l),
(175,395,l),
(175,622,l),
(528,622,l),
(528,694,l),
(92,694,l),
(92,0,l)
);
},
{
closed = 1;
nodes = (
(205,794,o),
(226,815,o),
(252,815,cs),
(293,815,o),
(310,764,o),
(377,764,cs),
(434,764,o),
(479,800,o),
(493,869,c),
(440,883,l),
(429,848,o),
(407,828,o),
(380,828,cs),
(336,828,o),
(316,881,o),
(255,881,cs),
(207,881,o),
(162,848,o),
(142,776,c),
(195,762,l)
);
}
);
};
layerId = "F333AEC5-BB61-4D5E-9EDD-6124322D28F2";
shapes = (
{
ref = E;
},
{
pos = (81,0);
ref = tildecomb.case;
}
);
width = 584;
},
{
background = {
anchors = (
{
name = bottom;
pos = (317,0);
},
{
name = ogonek;
pos = (511,10);
},
{
name = top;
pos = (326,836);
},
{
name = topleft;
pos = (20,694);
}
);
shapes = (
{
closed = 1;
nodes = (
(517,0,l),
(517,18,l),
(144,18,l),
(144,355,l),
(490,355,l),
(490,373,l),
(144,373,l),
(144,676,l),
(517,676,l),
(517,694,l),
(123,694,l),
(123,0,l)
);
},
{
closed = 1;
nodes = (
(192,819,o),
(227,830,o),
(251,830,cs),
(305,830,o),
(319,772,o),
(384,772,cs),
(426,772,o),
(462,802,o),
(479,849,c),
(470,851,l),
(454,812,o),
(424,788,o),
(391,788,cs),
(331,788,o),
(316,846,o),
(256,846,cs),
(223,846,o),
(182,827,o),
(160,777,c),
(168,774,l)
);
}
);
};
layerId = "0B2E441B-685E-400D-9B9B-E078DEED62EF";
shapes = (
{
ref = E;
},
{
pos = (82,0);
ref = tildecomb.case;
}
);
width = 579;
},
{
background = {
anchors = (
{
name = bottom;
pos = (324,0);
},
{
name = ogonek;
pos = (522,10);
},
{
name = top;
pos = (317,939);
},
{
name = topleft;
pos = (-29,694);
}
);
shapes = (
{
closed = 1;
nodes = (
(569,0,l),
(569,152,l),
(244,152,l),
(244,276,l),
(541,276,l),
(541,428,l),
(244,428,l),
(244,542,l),
(569,542,l),
(569,694,l),
(71,694,l),
(71,0,l)
);
},
{
closed = 1;
nodes = (
(238,780,o),
(255,796,o),
(270,796,cs),
(300,796,o),
(325,756,o),
(383,756,cs),
(458,756,o),
(516,814,o),
(527,905,c),
(422,932,l),
(413,902,o),
(397,888,o),
(379,888,cs),
(351,888,o),
(311,930,o),
(259,930,cs),
(190,930,o),
(136,868,o),
(123,774,c),
(229,749,l)
);
}
);
};
layerId = "51C2DFEF-3776-4D13-9284-96485B799B57";
shapes = (
{
ref = E;
},
{
pos = (88,0);
ref = tildecomb.case;
}
);
width = 619;
}
);
unicode = 7868;
},
{
glyphname = Schwa;
lastChange = "2023-04-14 09:29:02 +0000";
layers = (
{
anchors = (
{
name = bottom;
pos = (359,0);
},
{
name = top;
pos = (359,694);
}
);
background = {
anchors = (
{
name = bottom;
pos = (359,0);
},
{
name = top;
pos = (359,694);
}
);
shapes = (
{
closed = 1;
nodes = (
(536,-10,o),
(669,132,o),
(669,347,cs),
(669,566,o),
(531,700,o),
(312,700,cs),
(225,700,o),
(147,680,o),
(77,640,c),
(96,579,l),
(160,610,o),
(230,627,o),
(298,627,cs),
(476,627,o),
(584,521,o),
(584,329,cs),
(584,158,o),
(499,63,o),
(352,63,cs),
(212,63,o),
(130,148,o),
(130,300,c),
(605,300,l),
(605,368,l),
(57,368,l),
(55,345,o),
(53,312,o),
(53,291,cs),
(53,111,o),
(169,-10,o),
(345,-10,cs)
);
}
);
};
layerId = "F333AEC5-BB61-4D5E-9EDD-6124322D28F2";
shapes = (
{
closed = 1;
nodes = (
(536,-10,o),
(669,132,o),
(669,347,cs),
(669,566,o),
(531,700,o),
(312,700,cs),
(225,700,o),
(147,680,o),
(77,640,c),
(96,579,l),
(160,610,o),
(230,627,o),
(298,627,cs),
(476,627,o),
(584,521,o),
(584,329,cs),
(584,158,o),
(499,63,o),
(352,63,cs),
(212,63,o),
(130,148,o),
(130,300,c),
(605,300,l),
(605,368,l),
(57,368,l),
(55,345,o),
(53,312,o),
(53,291,cs),
(53,111,o),
(169,-10,o),
(345,-10,cs)
);
}
);
userData = {
com.schriftgestaltung.Glyphs.glyph.rightMetricsKey = O;
};
width = 723;
},
{
anchors = (
{
name = bottom;
pos = (360,0);
},
{
name = top;
pos = (360,694);
}
);
background = {
anchors = (
{
name = bottom;
pos = (360,0);
},
{
name = top;
pos = (360,694);
}
);
shapes = (
{
closed = 1;
nodes = (
(531,-10,o),
(656,130,o),
(656,342,cs),
(656,562,o),
(523,704,o),
(319,704,cs),
(236,704,o),
(165,681,o),
(97,633,c),
(102,617,l),
(171,663,o),
(240,685,o),
(317,685,cs),
(512,685,o),
(633,558,o),
(633,342,cs),
(633,140,o),
(528,9,o),
(357,9,cs),
(193,9,o),
(96,130,o),
(96,321,c),
(651,321,l),
(651,340,l),
(74,340,l),
(73,332,o),
(73,328,o),
(73,318,cs),
(73,123,o),
(182,-10,o),
(355,-10,cs)
);
}
);
};
layerId = "0B2E441B-685E-400D-9B9B-E078DEED62EF";
shapes = (
{
closed = 1;
nodes = (
(531,-10,o),
(656,130,o),
(656,342,cs),
(656,562,o),
(523,704,o),
(319,704,cs),
(236,704,o),
(165,681,o),
(97,633,c),
(102,617,l),
(171,663,o),
(240,685,o),
(317,685,cs),
(512,685,o),
(633,558,o),
(633,342,cs),
(633,140,o),
(528,9,o),
(357,9,cs),
(193,9,o),
(96,130,o),
(96,321,c),
(651,321,l),
(651,340,l),
(74,340,l),
(73,332,o),
(73,328,o),
(73,318,cs),
(73,123,o),
(182,-10,o),
(355,-10,cs)
);
}
);
userData = {
com.schriftgestaltung.Glyphs.glyph.rightMetricsKey = O;
};
width = 728;
},
{
anchors = (
{
name = bottom;
pos = (369,0);
},
{
name = top;
pos = (369,694);
}
);
background = {
anchors = (
{
name = bottom;
pos = (369,0);
},
{
name = top;
pos = (369,694);
}
);
shapes = (
{
closed = 1;
nodes = (
(553,-10,o),
(696,133,o),
(696,350,cs),
(696,571,o),
(549,704,o),
(310,704,cs),
(220,704,o),
(133,685,o),
(53,648,c),
(92,517,l),
(152,541,o),
(218,554,o),
(281,554,cs),
(437,554,o),
(516,483,o),
(516,315,cs),
(516,192,o),
(462,140,o),
(356,140,cs),
(260,140,o),
(204,180,o),
(204,272,c),
(545,272,l),
(545,414,l),
(46,414,l),
(41,370,o),
(38,324,o),
(38,280,cs),
(38,105,o),
(156,-10,o),
(343,-10,cs)
);
}
);
};
layerId = "51C2DFEF-3776-4D13-9284-96485B799B57";
shapes = (
{
closed = 1;
nodes = (
(553,-10,o),
(696,133,o),
(696,350,cs),
(696,571,o),
(549,704,o),
(310,704,cs),
(220,704,o),
(133,685,o),
(53,648,c),
(92,517,l),
(152,541,o),
(218,554,o),
(281,554,cs),
(437,554,o),
(516,483,o),
(516,315,cs),
(516,192,o),
(462,140,o),
(356,140,cs),
(260,140,o),
(204,180,o),
(204,272,c),
(545,272,l),
(545,414,l),
(46,414,l),
(41,370,o),
(38,324,o),
(38,280,cs),
(38,105,o),
(156,-10,o),
(343,-10,cs)
);
}
);
userData = {
com.schriftgestaltung.Glyphs.glyph.rightMetricsKey = O;
};
width = 733;
}
);
unicode = 399;
},
{
glyphname = F;
lastChange = "2023-04-14 09:29:02 +0000";
layers = (
{
anchors = (
{
name = bottom;
pos = (259,0);
},
{
name = top;
pos = (259,694);
}
);
background = {
anchors = (
{
name = bottom;
pos = (259,0);
},
{
name = top;
pos = (259,694);
}
);
shapes = (
{
closed = 1;
nodes = (
(175,0,l),
(175,322,l),
(494,322,l),
(494,394,l),
(175,394,l),
(175,622,l),
(523,622,l),
(523,694,l),
(92,694,l),
(92,0,l)
);
}
);
};
layerId = "F333AEC5-BB61-4D5E-9EDD-6124322D28F2";
shapes = (
{
closed = 1;
nodes = (
(175,0,l),
(175,322,l),
(494,322,l),
(494,394,l),
(175,394,l),
(175,622,l),
(523,622,l),
(523,694,l),
(92,694,l),
(92,0,l)
);
}
);
userData = {
com.schriftgestaltung.Glyphs.glyph.leftMetricsKey = I;
};
width = 563;
},
{
anchors = (
{
name = bottom;
pos = (283,0);
},
{
name = top;
pos = (283,694);
}
);
background = {
anchors = (
{
name = bottom;
pos = (283,0);
},
{
name = top;
pos = (283,694);
}
);
shapes = (
{
closed = 1;
nodes = (
(145,0,l),
(145,366,l),
(486,366,l),
(486,384,l),
(145,384,l),
(145,676,l),
(510,676,l),
(510,694,l),
(123,694,l),
(123,0,l)
);
}
);
};
layerId = "0B2E441B-685E-400D-9B9B-E078DEED62EF";
shapes = (
{
closed = 1;
nodes = (
(145,0,l),
(145,366,l),
(486,366,l),
(486,384,l),
(145,384,l),
(145,676,l),
(510,676,l),
(510,694,l),
(123,694,l),
(123,0,l)
);
}
);
userData = {
com.schriftgestaltung.Glyphs.glyph.leftMetricsKey = I;
};
width = 554;
},
{
anchors = (
{
name = bottom;
pos = (175,0);
},
{
name = top;
pos = (282,694);
}
);
background = {
anchors = (
{
name = bottom;
pos = (175,0);
},
{
name = top;
pos = (282,694);
}
);
shapes = (
{
closed = 1;
nodes = (
(247,0,l),
(247,257,l),
(530,257,l),
(530,409,l),
(247,409,l),
(247,542,l),
(566,542,l),
(566,694,l),
(71,694,l),
(71,0,l)
);
}
);
};
layerId = "51C2DFEF-3776-4D13-9284-96485B799B57";
shapes = (
{
closed = 1;
nodes = (
(247,0,l),
(247,257,l),
(530,257,l),
(530,409,l),
(247,409,l),
(247,542,l),
(566,542,l),
(566,694,l),
(71,694,l),
(71,0,l)
);
}
);
userData = {
com.schriftgestaltung.Glyphs.glyph.leftMetricsKey = I;
};
width = 595;
}
);
unicode = 70;
},
{
glyphname = G;
lastChange = "2023-04-14 09:29:02 +0000";
layers = (
{
anchors = (
{
name = bottom;
pos = (393,0);
},
{
name = top;
pos = (393,694);
}
);
background = {
anchors = (
{
name = bottom;
pos = (393,0);
},
{
name = top;
pos = (393,694);
}
);
shapes = (
{
closed = 1;
nodes = (
(498,-9,o),
(585,19,o),
(655,74,c),
(655,368,l),
(375,368,l),
(375,296,l),
(572,296,l),
(572,71,l),
(591,112,l),
(537,81,o),
(476,64,o),
(414,64,cs),
(247,64,o),
(139,179,o),
(139,357,cs),
(139,530,o),
(238,630,o),
(407,630,cs),
(470,630,o),
(543,616,o),
(604,593,c),
(628,657,l),
(567,687,o),
(494,703,o),
(418,703,cs),
(199,703,o),
(54,560,o),
(54,342,cs),
(54,130,o),
(192,-9,o),
(402,-9,cs)
);
}
);
};
layerId = "F333AEC5-BB61-4D5E-9EDD-6124322D28F2";
shapes = (
{
closed = 1;
nodes = (
(498,-9,o),
(585,19,o),
(655,74,c),
(655,368,l),
(375,368,l),
(375,296,l),
(572,296,l),
(572,71,l),
(591,112,l),
(537,81,o),
(476,64,o),
(414,64,cs),
(247,64,o),
(139,179,o),
(139,357,cs),
(139,530,o),
(238,630,o),
(407,630,cs),
(470,630,o),
(543,616,o),
(604,593,c),
(628,657,l),
(567,687,o),
(494,703,o),
(418,703,cs),
(199,703,o),
(54,560,o),
(54,342,cs),
(54,130,o),
(192,-9,o),
(402,-9,cs)
);
}
);
userData = {
com.schriftgestaltung.Glyphs.glyph.leftMetricsKey = O;
};
width = 715;
},
{
anchors = (
{
name = bottom;
pos = (352,0);
},
{
name = top;
pos = (370,694);
}
);
background = {
anchors = (
{
name = bottom;
pos = (352,0);
},
{
name = top;
pos = (370,694);
}
);
shapes = (
{
closed = 1;
nodes = (
(487,-10,o),
(584,19,o),
(641,60,c),
(641,338,l),
(384,338,l),
(384,319,l),
(619,319,l),
(619,57,l),
(624,69,l),
(561,32,o),
(474,9,o),
(401,9,cs),
(216,9,o),
(95,143,o),
(95,348,cs),
(95,554,o),
(217,680,o),
(414,680,cs),
(483,680,o),
(556,664,o),
(606,634,c),
(613,651,l),
(559,683,o),
(490,699,o),
(417,699,cs),
(204,699,o),
(72,564,o),
(72,345,cs),
(72,130,o),
(201,-10,o),
(398,-10,cs)
);
}
);
};
layerId = "0B2E441B-685E-400D-9B9B-E078DEED62EF";
shapes = (
{
closed = 1;
nodes = (
(487,-10,o),
(584,19,o),
(641,60,c),
(641,338,l),
(384,338,l),
(384,319,l),
(619,319,l),
(619,57,l),
(624,69,l),
(561,32,o),
(474,9,o),
(401,9,cs),
(216,9,o),
(95,143,o),
(95,348,cs),
(95,554,o),
(217,680,o),
(414,680,cs),
(483,680,o),
(556,664,o),
(606,634,c),
(613,651,l),
(559,683,o),
(490,699,o),
(417,699,cs),
(204,699,o),
(72,564,o),
(72,345,cs),
(72,130,o),
(201,-10,o),
(398,-10,cs)
);
}
);
userData = {
com.schriftgestaltung.Glyphs.glyph.leftMetricsKey = O;
};
width = 727;
},
{
anchors = (
{
name = bottom;
pos = (363,0);
},
{
name = top;
pos = (383,694);
}
);
background = {
anchors = (
{
name = bottom;
pos = (363,0);
},
{
name = top;
pos = (383,694);
}
);
shapes = (
{
closed = 1;
nodes = (
(511,-10,o),
(605,23,o),
(683,89,c),
(683,411,l),
(371,411,l),
(371,265,l),
(518,265,l),
(518,79,l),
(544,180,l),
(521,155,o),
(477,140,o),
(422,140,cs),
(297,140,o),
(219,221,o),
(219,353,cs),
(219,482,o),
(294,551,o),
(435,551,cs),
(494,551,o),
(563,540,o),
(609,524,c),
(657,660,l),
(598,688,o),
(519,704,o),
(440,704,cs),
(194,704,o),
(37,556,o),
(37,339,cs),
(37,130,o),
(183,-10,o),
(401,-10,cs)
);
}
);
};
layerId = "51C2DFEF-3776-4D13-9284-96485B799B57";
shapes = (
{
closed = 1;
nodes = (
(511,-10,o),
(605,23,o),
(683,89,c),
(683,411,l),
(371,411,l),
(371,265,l),
(518,265,l),
(518,79,l),
(544,180,l),
(521,155,o),
(477,140,o),
(422,140,cs),
(297,140,o),
(219,221,o),
(219,353,cs),
(219,482,o),
(294,551,o),
(435,551,cs),
(494,551,o),
(563,540,o),
(609,524,c),
(657,660,l),
(598,688,o),
(519,704,o),
(440,704,cs),
(194,704,o),
(37,556,o),
(37,339,cs),
(37,130,o),
(183,-10,o),
(401,-10,cs)
);
}
);
userData = {
com.schriftgestaltung.Glyphs.glyph.leftMetricsKey = O;
};
width = 730;
}
);
unicode = 71;
},
{
glyphname = Gbreve;
lastChange = "2023-04-14 09:29:06 +0000";
layers = (
{
background = {
anchors = (
{
name = bottom;
pos = (393,0);
},
{
name = top;
pos = (393,826);
}
);
shapes = (
{
closed = 1;
nodes = (
(498,-9,o),
(585,19,o),
(655,74,c),
(655,368,l),
(375,368,l),
(375,296,l),
(572,296,l),
(572,71,l),
(591,112,l),
(537,81,o),
(476,64,o),
(414,64,cs),
(247,64,o),
(139,179,o),
(139,357,cs),
(139,530,o),
(238,630,o),
(407,630,cs),
(470,630,o),
(543,616,o),
(604,593,c),
(628,657,l),
(567,687,o),
(494,703,o),
(418,703,cs),
(199,703,o),
(54,560,o),
(54,342,cs),
(54,130,o),
(192,-9,o),
(402,-9,cs)
);
},
{
closed = 1;
nodes = (
(466,758,o),
(527,816,o),
(540,902,c),
(501,928,l),
(494,865,o),
(454,823,o),
(401,823,cs),
(350,823,o),
(311,865,o),
(303,927,c),
(239,890,l),
(253,811,o),
(313,758,o),
(389,758,cs)
);
}
);
};
layerId = "F333AEC5-BB61-4D5E-9EDD-6124322D28F2";
shapes = (
{
ref = G;
},
{
pos = (184,0);
ref = brevecomb.case;
}
);
width = 715;
},
{
background = {
anchors = (
{
name = bottom;
pos = (352,0);
},
{
name = top;
pos = (370,805);
}
);
shapes = (
{
closed = 1;
nodes = (
(487,-10,o),
(584,19,o),
(641,60,c),
(641,338,l),
(384,338,l),
(384,319,l),
(619,319,l),
(619,57,l),
(624,69,l),
(561,32,o),
(474,9,o),
(401,9,cs),
(216,9,o),
(95,143,o),
(95,348,cs),
(95,554,o),
(217,680,o),
(414,680,cs),
(483,680,o),
(556,664,o),
(606,634,c),
(613,651,l),
(559,683,o),
(490,699,o),
(417,699,cs),
(204,699,o),
(72,564,o),
(72,345,cs),
(72,130,o),
(201,-10,o),
(398,-10,cs)
);
},
{
closed = 1;
nodes = (
(429,752,o),
(479,802,o),
(488,877,c),
(478,883,l),
(471,815,o),
(427,770,o),
(373,770,cs),
(321,770,o),
(275,810,o),
(266,879,c),
(249,873,l),
(258,800,o),
(307,752,o),
(367,752,cs)
);
}
);
};
layerId = "0B2E441B-685E-400D-9B9B-E078DEED62EF";
shapes = (
{
ref = G;
},
{
pos = (167,0);
ref = brevecomb.case;
}
);
width = 727;
},
{
background = {
anchors = (
{
name = bottom;
pos = (363,0);
},
{
name = top;
pos = (383,892);
}
);
shapes = (
{
closed = 1;
nodes = (
(511,-10,o),
(605,23,o),
(683,89,c),
(683,411,l),
(371,411,l),
(371,265,l),
(518,265,l),
(518,79,l),
(544,180,l),
(521,155,o),
(477,140,o),
(422,140,cs),
(297,140,o),
(219,221,o),
(219,353,cs),
(219,482,o),
(294,551,o),
(435,551,cs),
(494,551,o),
(563,540,o),
(609,524,c),
(657,660,l),
(598,688,o),
(519,704,o),
(440,704,cs),
(194,704,o),
(37,556,o),
(37,339,cs),
(37,130,o),
(183,-10,o),
(401,-10,cs)
);
},
{
closed = 1;
nodes = (
(468,741,o),
(543,809,o),
(560,916,c),
(479,972,l),
(474,908,o),
(436,871,o),
(386,871,cs),
(334,871,o),
(295,911,o),
(289,971,c),
(165,894,l),
(179,799,o),
(262,741,o),
(367,741,cs)
);
}
);
};
layerId = "51C2DFEF-3776-4D13-9284-96485B799B57";
shapes = (
{
ref = G;
},
{
pos = (150,0);
ref = brevecomb.case;
}
);
width = 730;
}
);
unicode = 286;
},
{
glyphname = Gcaron;
lastChange = "2023-04-14 09:29:06 +0000";
layers = (
{
background = {
anchors = (
{
name = bottom;
pos = (393,0);
},
{
name = top;
pos = (393,836);
}
);
shapes = (
{
closed = 1;
nodes = (
(498,-9,o),
(585,19,o),
(655,74,c),
(655,368,l),
(375,368,l),
(375,296,l),
(572,296,l),
(572,71,l),
(591,112,l),
(537,81,o),
(476,64,o),
(414,64,cs),
(247,64,o),
(139,179,o),
(139,357,cs),
(139,530,o),
(238,630,o),
(407,630,cs),
(470,630,o),
(543,616,o),
(604,593,c),
(628,657,l),
(567,687,o),
(494,703,o),
(418,703,cs),
(199,703,o),
(54,560,o),
(54,342,cs),
(54,130,o),
(192,-9,o),
(402,-9,cs)
);
},
{
closed = 1;
nodes = (
(416,754,l),
(543,893,l),
(509,923,l),
(397,822,l),
(292,922,l),
(243,880,l),
(373,754,l)
);
}
);
};
layerId = "F333AEC5-BB61-4D5E-9EDD-6124322D28F2";
shapes = (
{
ref = G;
},
{
pos = (209,0);
ref = caroncomb.case;
}
);
width = 715;
},
{
background = {
anchors = (
{
name = bottom;
pos = (352,0);
},
{
name = top;
pos = (370,803);
}
);
shapes = (
{
closed = 1;
nodes = (
(487,-10,o),
(584,19,o),
(641,60,c),
(641,338,l),
(384,338,l),
(384,319,l),
(619,319,l),
(619,57,l),
(624,69,l),
(561,32,o),
(474,9,o),
(401,9,cs),
(216,9,o),
(95,143,o),
(95,348,cs),
(95,554,o),
(217,680,o),
(414,680,cs),
(483,680,o),
(556,664,o),
(606,634,c),
(613,651,l),
(559,683,o),
(490,699,o),
(417,699,cs),
(204,699,o),
(72,564,o),
(72,345,cs),
(72,130,o),
(201,-10,o),
(398,-10,cs)
);
},
{
closed = 1;
nodes = (
(384,757,l),
(494,881,l),
(486,887,l),
(377,774,l),
(268,888,l),
(254,877,l),
(369,757,l)
);
}
);
};
layerId = "0B2E441B-685E-400D-9B9B-E078DEED62EF";
shapes = (
{
ref = G;
},
{
pos = (195,0);
ref = caroncomb.case;
}
);
width = 727;
},
{
background = {
anchors = (
{
name = bottom;
pos = (363,0);
},
{
name = top;
pos = (383,888);
}
);
shapes = (
{
closed = 1;
nodes = (
(511,-10,o),
(605,23,o),
(683,89,c),
(683,411,l),
(371,411,l),
(371,265,l),
(518,265,l),
(518,79,l),
(544,180,l),
(521,155,o),
(477,140,o),
(422,140,cs),
(297,140,o),
(219,221,o),
(219,353,cs),
(219,482,o),
(294,551,o),
(435,551,cs),
(494,551,o),
(563,540,o),
(609,524,c),
(657,660,l),
(598,688,o),
(519,704,o),
(440,704,cs),
(194,704,o),
(37,556,o),
(37,339,cs),
(37,130,o),
(183,-10,o),
(401,-10,cs)
);
},
{
closed = 1;
nodes = (
(421,742,l),
(563,909,l),
(495,967,l),
(387,874,l),
(284,968,l),
(184,878,l),
(335,742,l)
);
}
);
};
layerId = "51C2DFEF-3776-4D13-9284-96485B799B57";
shapes = (
{
ref = G;
},
{
pos = (169,0);
ref = caroncomb.case;
}
);
width = 730;
}
);
unicode = 486;
},
{
glyphname = Gcircumflex;
lastChange = "2023-04-14 09:29:06 +0000";
layers = (
{
background = {
anchors = (
{
name = bottom;
pos = (393,0);
},
{
name = top;
pos = (393,852);
},
{
name = top_viet;
pos = (560,779);
}
);
shapes = (
{
closed = 1;
nodes = (
(498,-9,o),
(585,19,o),
(655,74,c),
(655,368,l),
(375,368,l),
(375,296,l),
(572,296,l),
(572,71,l),
(591,112,l),
(537,81,o),
(476,64,o),
(414,64,cs),
(247,64,o),
(139,179,o),
(139,357,cs),
(139,530,o),
(238,630,o),
(407,630,cs),
(470,630,o),
(543,616,o),
(604,593,c),
(628,657,l),
(567,687,o),
(494,703,o),
(418,703,cs),
(199,703,o),
(54,560,o),
(54,342,cs),
(54,130,o),
(192,-9,o),
(402,-9,cs)
);
},
{
closed = 1;
nodes = (
(395,852,l),
(504,754,l),
(548,796,l),
(421,923,l),
(378,923,l),
(250,782,l),
(285,754,l)
);
}
);
};
layerId = "F333AEC5-BB61-4D5E-9EDD-6124322D28F2";
shapes = (
{
ref = G;
},
{
pos = (205,0);
ref = circumflexcomb.case;
}
);
width = 715;
},
{
background = {
anchors = (
{
name = bottom;
pos = (352,0);
},
{
name = top;
pos = (370,834);
},
{
name = top_viet;
pos = (495,779);
}
);
shapes = (
{
closed = 1;
nodes = (
(487,-10,o),
(584,19,o),
(641,60,c),
(641,338,l),
(384,338,l),
(384,319,l),
(619,319,l),
(619,57,l),
(624,69,l),
(561,32,o),
(474,9,o),
(401,9,cs),
(216,9,o),
(95,143,o),
(95,348,cs),
(95,554,o),
(217,680,o),
(414,680,cs),
(483,680,o),
(556,664,o),
(606,634,c),
(613,651,l),
(559,683,o),
(490,699,o),
(417,699,cs),
(204,699,o),
(72,564,o),
(72,345,cs),
(72,130,o),
(201,-10,o),
(398,-10,cs)
);
},
{
closed = 1;
nodes = (
(364,868,l),
(477,754,l),
(489,765,l),
(374,885,l),
(358,885,l),
(248,761,l),
(254,755,l)
);
}
);
};
layerId = "0B2E441B-685E-400D-9B9B-E078DEED62EF";
shapes = (
{
ref = G;
},
{
pos = (193,0);
ref = circumflexcomb.case;
}
);
width = 727;
},
{
background = {
anchors = (
{
name = bottom;
pos = (363,0);
},
{
name = top;
pos = (383,912);
},
{
name = top_viet;
pos = (573,861);
}
);
shapes = (
{
closed = 1;
nodes = (
(511,-10,o),
(605,23,o),
(683,89,c),
(683,411,l),
(371,411,l),
(371,265,l),
(518,265,l),
(518,79,l),
(544,180,l),
(521,155,o),
(477,140,o),
(422,140,cs),
(297,140,o),
(219,221,o),
(219,353,cs),
(219,482,o),
(294,551,o),
(435,551,cs),
(494,551,o),
(563,540,o),
(609,524,c),
(657,660,l),
(598,688,o),
(519,704,o),
(440,704,cs),
(194,704,o),
(37,556,o),
(37,339,cs),
(37,130,o),
(183,-10,o),
(401,-10,cs)
);
},
{
closed = 1;
nodes = (
(382,818,l),
(486,734,l),
(582,825,l),
(435,962,l),
(350,962,l),
(204,794,l),
(273,735,l)
);
}
);
};
layerId = "51C2DFEF-3776-4D13-9284-96485B799B57";
shapes = (
{
ref = G;
},
{
pos = (184,0);
ref = circumflexcomb.case;
}
);
width = 730;
}
);
unicode = 284;
},
{
glyphname = Gcommaaccent;
lastChange = "2023-04-14 09:29:06 +0000";
layers = (
{
background = {
anchors = (
{
name = bottom;
pos = (393,-231);
},
{
name = top;
pos = (393,694);
}
);
shapes = (
{
closed = 1;
nodes = (
(498,-9,o),
(585,19,o),
(655,74,c),
(655,368,l),
(375,368,l),
(375,296,l),
(572,296,l),
(572,71,l),
(591,112,l),
(537,81,o),
(476,64,o),
(414,64,cs),
(247,64,o),
(139,179,o),
(139,357,cs),
(139,530,o),
(238,630,o),
(407,630,cs),
(470,630,o),
(543,616,o),
(604,593,c),
(628,657,l),
(567,687,o),
(494,703,o),
(418,703,cs),
(199,703,o),
(54,560,o),
(54,342,cs),
(54,130,o),
(192,-9,o),
(402,-9,cs)
);
},
{
closed = 1;
nodes = (
(381,-227,l),
(414,-181,o),
(430,-129,o),
(430,-65,c),
(355,-65,l),
(355,-132,o),
(344,-194,o),
(326,-227,c)
);
}
);
};
layerId = "F333AEC5-BB61-4D5E-9EDD-6124322D28F2";
shapes = (
{
ref = G;
},
{
pos = (227,0);
ref = commaaccentcomb;
}
);
width = 715;
},
{
background = {
anchors = (
{
name = bottom;
pos = (335,-227);
},
{
name = top;
pos = (370,694);
}
);
shapes = (
{
closed = 1;
nodes = (
(487,-10,o),
(584,19,o),
(641,60,c),
(641,338,l),
(384,338,l),
(384,319,l),
(619,319,l),
(619,57,l),
(624,69,l),
(561,32,o),
(474,9,o),
(401,9,cs),
(216,9,o),
(95,143,o),
(95,348,cs),
(95,554,o),
(217,680,o),
(414,680,cs),
(483,680,o),
(556,664,o),
(606,634,c),
(613,651,l),
(559,683,o),
(490,699,o),
(417,699,cs),
(204,699,o),
(72,564,o),
(72,345,cs),
(72,130,o),
(201,-10,o),
(398,-10,cs)
);
},
{
closed = 1;
nodes = (
(326,-227,l),
(349,-196,o),
(364,-135,o),
(364,-70,c),
(345,-70,l),
(345,-133,o),
(333,-193,o),
(314,-227,c)
);
}
);
};
layerId = "0B2E441B-685E-400D-9B9B-E078DEED62EF";
shapes = (
{
ref = G;
},
{
pos = (223,0);
ref = commaaccentcomb;
}
);
width = 727;
},
{
background = {
anchors = (
{
name = bottom;
pos = (363,-231);
},
{
name = top;
pos = (383,694);
}
);
shapes = (
{
closed = 1;
nodes = (
(511,-10,o),
(605,23,o),
(683,89,c),
(683,411,l),
(371,411,l),
(371,265,l),
(518,265,l),
(518,79,l),
(544,180,l),
(521,155,o),
(477,140,o),
(422,140,cs),
(297,140,o),
(219,221,o),
(219,353,cs),
(219,482,o),
(294,551,o),
(435,551,cs),
(494,551,o),
(563,540,o),
(609,524,c),
(657,660,l),
(598,688,o),
(519,704,o),
(440,704,cs),
(194,704,o),
(37,556,o),
(37,339,cs),
(37,130,o),
(183,-10,o),
(401,-10,cs)
);
},
{
closed = 1;
nodes = (
(373,-227,l),
(420,-176,o),
(445,-116,o),
(445,-56,c),
(284,-56,l),
(284,-122,o),
(273,-187,o),
(256,-227,c)
);
}
);
};
layerId = "51C2DFEF-3776-4D13-9284-96485B799B57";
shapes = (
{
ref = G;
},
{
pos = (245,0);
ref = commaaccentcomb;
}
);
width = 730;
}
);
unicode = 290;
},
{
glyphname = Gdotaccent;
lastChange = "2023-04-14 09:29:06 +0000";
layers = (
{
background = {
anchors = (
{
name = bottom;
pos = (393,0);
},
{
name = top;
pos = (393,856);
}
);
shapes = (
{
closed = 1;
nodes = (
(498,-9,o),
(585,19,o),
(655,74,c),
(655,368,l),
(375,368,l),
(375,296,l),
(572,296,l),
(572,71,l),
(591,112,l),
(537,81,o),
(476,64,o),
(414,64,cs),
(247,64,o),
(139,179,o),
(139,357,cs),
(139,530,o),
(238,630,o),
(407,630,cs),
(470,630,o),
(543,616,o),
(604,593,c),
(628,657,l),
(567,687,o),
(494,703,o),
(418,703,cs),
(199,703,o),
(54,560,o),
(54,342,cs),
(54,130,o),
(192,-9,o),
(402,-9,cs)
);
},
{
closed = 1;
nodes = (
(429,778,o),
(450,799,o),
(450,835,cs),
(450,871,o),
(429,892,o),
(393,892,cs),
(357,892,o),
(336,871,o),
(336,835,cs),
(336,799,o),
(357,778,o),
(393,778,cs)
);
}
);
};
layerId = "F333AEC5-BB61-4D5E-9EDD-6124322D28F2";
shapes = (
{
ref = G;
},
{
pos = (260,0);
ref = dotaccentcomb.case;
}
);
width = 715;
},
{
background = {
anchors = (
{
name = bottom;
pos = (352,0);
},
{
name = top;
pos = (370,837);
}
);
shapes = (
{
closed = 1;
nodes = (
(487,-10,o),
(584,19,o),
(641,60,c),
(641,338,l),
(384,338,l),
(384,319,l),
(619,319,l),
(619,57,l),
(624,69,l),
(561,32,o),
(474,9,o),
(401,9,cs),
(216,9,o),
(95,143,o),
(95,348,cs),
(95,554,o),
(217,680,o),
(414,680,cs),
(483,680,o),
(556,664,o),
(606,634,c),
(613,651,l),
(559,683,o),
(490,699,o),
(417,699,cs),
(204,699,o),
(72,564,o),
(72,345,cs),
(72,130,o),
(201,-10,o),
(398,-10,cs)
);
},
{
closed = 1;
nodes = (
(382,795,o),
(391,804,o),
(391,816,cs),
(391,828,o),
(382,837,o),
(370,837,cs),
(358,837,o),
(349,828,o),
(349,816,cs),
(349,804,o),
(358,795,o),
(370,795,cs)
);
}
);
};
layerId = "0B2E441B-685E-400D-9B9B-E078DEED62EF";
shapes = (
{
ref = G;
},
{
pos = (251,0);
ref = dotaccentcomb.case;
}
);
width = 727;
},
{
background = {
anchors = (
{
name = bottom;
pos = (363,0);
},
{
name = top;
pos = (383,946);
}
);
shapes = (
{
closed = 1;
nodes = (
(511,-10,o),
(605,23,o),
(683,89,c),
(683,411,l),
(371,411,l),
(371,265,l),
(518,265,l),
(518,79,l),
(544,180,l),
(521,155,o),
(477,140,o),
(422,140,cs),
(297,140,o),
(219,221,o),
(219,353,cs),
(219,482,o),
(294,551,o),
(435,551,cs),
(494,551,o),
(563,540,o),
(609,524,c),
(657,660,l),
(598,688,o),
(519,704,o),
(440,704,cs),
(194,704,o),
(37,556,o),
(37,339,cs),
(37,130,o),
(183,-10,o),
(401,-10,cs)
);
},
{
closed = 1;
nodes = (
(441,747,o),
(481,787,o),
(481,846,cs),
(481,906,o),
(441,946,o),
(382,946,cs),
(323,946,o),
(283,906,o),
(283,846,cs),
(283,787,o),
(323,747,o),
(382,747,cs)
);
}
);
};
layerId = "51C2DFEF-3776-4D13-9284-96485B799B57";
shapes = (
{
ref = G;
},
{
pos = (238,0);
ref = dotaccentcomb.case;
}
);
width = 730;
}
);
unicode = 288;
},
{
glyphname = Gmacron;
lastChange = "2023-04-14 09:29:06 +0000";
layers = (
{
background = {
anchors = (
{
name = bottom;
pos = (393,0);
},
{
name = top;
pos = (393,857);
}
);
shapes = (
{
closed = 1;
nodes = (
(498,-9,o),
(585,19,o),
(655,74,c),
(655,368,l),
(375,368,l),
(375,296,l),
(572,296,l),
(572,71,l),
(591,112,l),
(537,81,o),
(476,64,o),
(414,64,cs),
(247,64,o),
(139,179,o),
(139,357,cs),
(139,530,o),
(238,630,o),
(407,630,cs),
(470,630,o),
(543,616,o),
(604,593,c),
(628,657,l),
(567,687,o),
(494,703,o),
(418,703,cs),
(199,703,o),
(54,560,o),
(54,342,cs),
(54,130,o),
(192,-9,o),
(402,-9,cs)
);
},
{
closed = 1;
nodes = (
(552,788,l),
(552,854,l),
(239,854,l),
(239,788,l)
);
}
);
};
layerId = "F333AEC5-BB61-4D5E-9EDD-6124322D28F2";
shapes = (
{
ref = G;
},
{
pos = (151,0);
ref = macroncomb.case;
}
);
width = 715;
},
{
background = {
anchors = (
{
name = bottom;
pos = (352,0);
},
{
name = top;
pos = (370,822);
}
);
shapes = (
{
closed = 1;
nodes = (
(487,-10,o),
(584,19,o),
(641,60,c),
(641,338,l),
(384,338,l),
(384,319,l),
(619,319,l),
(619,57,l),
(624,69,l),
(561,32,o),
(474,9,o),
(401,9,cs),
(216,9,o),
(95,143,o),
(95,348,cs),
(95,554,o),
(217,680,o),
(414,680,cs),
(483,680,o),
(556,664,o),
(606,634,c),
(613,651,l),
(559,683,o),
(490,699,o),
(417,699,cs),
(204,699,o),
(72,564,o),
(72,345,cs),
(72,130,o),
(201,-10,o),
(398,-10,cs)
);
},
{
closed = 1;
nodes = (
(515,794,l),
(515,809,l),
(234,809,l),
(234,794,l)
);
}
);
};
layerId = "0B2E441B-685E-400D-9B9B-E078DEED62EF";
shapes = (
{
ref = G;
},
{
pos = (132,0);
ref = macroncomb.case;
}
);
width = 727;
},
{
background = {
anchors = (
{
name = bottom;
pos = (363,0);
},
{
name = top;
pos = (383,902);
}
);
shapes = (
{
closed = 1;
nodes = (
(511,-10,o),
(605,23,o),
(683,89,c),
(683,411,l),
(371,411,l),
(371,265,l),
(518,265,l),
(518,79,l),
(544,180,l),
(521,155,o),
(477,140,o),
(422,140,cs),
(297,140,o),
(219,221,o),
(219,353,cs),
(219,482,o),
(294,551,o),
(435,551,cs),
(494,551,o),
(563,540,o),
(609,524,c),
(657,660,l),
(598,688,o),
(519,704,o),
(440,704,cs),
(194,704,o),
(37,556,o),
(37,339,cs),
(37,130,o),
(183,-10,o),
(401,-10,cs)
);
},
{
closed = 1;
nodes = (
(566,769,l),
(566,905,l),
(206,905,l),
(206,769,l)
);
}
);
};
layerId = "51C2DFEF-3776-4D13-9284-96485B799B57";
shapes = (
{
ref = G;
},
{
pos = (144,0);
ref = macroncomb.case;
}
);
width = 730;
}
);
unicode = 7712;
},
